<?xml version="1.0" encoding="UTF-8" standalone="no"?>
<svg
   xmlns:dc="http://purl.org/dc/elements/1.1/"
   xmlns:cc="http://creativecommons.org/ns#"
   xmlns:rdf="http://www.w3.org/1999/02/22-rdf-syntax-ns#"
   xmlns:svg="http://www.w3.org/2000/svg"
   xmlns="http://www.w3.org/2000/svg"
   xmlns:sodipodi="http://sodipodi.sourceforge.net/DTD/sodipodi-0.dtd"
   xmlns:inkscape="http://www.inkscape.org/namespaces/inkscape"
   version="1.1"
   id="svg2"
   xml:space="preserve"
   width="117.81333"
   height="140.75999"
   viewBox="0 0 117.81333 140.75999"
   sodipodi:docname="logo.eps"><metadata
     id="metadata8"><rdf:RDF><cc:Work
         rdf:about=""><dc:format>image/svg+xml</dc:format><dc:type
           rdf:resource="http://purl.org/dc/dcmitype/StillImage" /></cc:Work></rdf:RDF></metadata><defs
     id="defs6" /><sodipodi:namedview
     pagecolor="#ffffff"
     bordercolor="#666666"
     borderopacity="1"
     objecttolerance="10"
     gridtolerance="10"
     guidetolerance="10"
     inkscape:pageopacity="0"
     inkscape:pageshadow="2"
     inkscape:window-width="640"
     inkscape:window-height="480"
     id="namedview4" /><g
     id="g10"
     inkscape:groupmode="layer"
     inkscape:label="ink_ext_XXXXXX"
     transform="matrix(1.3333333,0,0,-1.3333333,0,140.76)"><g
       id="g12"
       transform="scale(0.1)"><path
         d="m 0,400.152 v 0.403 c 0,36.648 27.4766,66.718 66.5273,66.718 23.7852,0 38.1607,-8.312 50.4767,-20.078 l -14.555,-16.75 c -10.3045,9.563 -21.3787,15.969 -36.1092,15.969 -24.6875,0 -42.5273,-20.226 -42.5273,-45.488 v -0.371 c 0,-25.196 17.8398,-45.879 42.5273,-45.879 15.8477,0 25.9961,6.453 37.0512,16.758 l 14.535,-14.739 C 104.496,342.625 89.7461,333.941 65.6055,333.941 28.043,333.941 0,363.16 0,400.152"
         style="fill:#1b1817;fill-opacity:1;fill-rule:nonzero;stroke:none"
         id="path14" /><path
         d="m 147.742,400.152 0.028,0.403 c -0.028,36.297 27.988,66.718 67.625,66.718 39.605,0 67.265,-30.039 67.265,-66.347 v -0.371 c 0,-36.321 -28.051,-66.614 -67.648,-66.614 -39.606,0 -67.27,29.914 -67.27,66.211 z m 111.106,0 v 0.403 c 0,25.027 -18.223,45.859 -43.836,45.859 -25.614,0 -43.492,-20.41 -43.492,-45.488 v -0.371 c 0,-25.117 18.23,-45.879 43.875,-45.879 25.621,0 43.46,20.418 43.453,45.476"
         style="fill:#1b1817;fill-opacity:1;fill-rule:nonzero;stroke:none"
         id="path16" /><path
         d="m 325.535,465.035 h 57.488 c 16.254,0 28.926,-4.734 37.204,-12.91 6.851,-6.953 10.73,-16.531 10.73,-27.781 v -0.422 c 0,-21.141 -12.734,-33.875 -30.785,-38.992 l 34.824,-48.867 h -26.734 l -31.668,44.96 h -28.375 v -44.96 h -22.684 z m 55.848,-63.914 c 16.23,0 26.508,8.465 26.508,21.563 v 0.339 c 0,13.829 -9.903,21.426 -26.692,21.426 h -32.98 v -43.328 h 33.164"
         style="fill:#1b1817;fill-opacity:1;fill-rule:nonzero;stroke:none"
         id="path18" /><path
         d="m 474.211,465.035 h 21.016 l 69.082,-89.219 v 89.219 h 22.312 V 336.063 h -18.984 l -71.172,91.765 v -91.765 h -22.254 v 128.972"
         style="fill:#1b1817;fill-opacity:1;fill-rule:nonzero;stroke:none"
         id="path20" /><path
         d="m 635.234,465.035 h 95.606 v -20.242 h -72.918 v -33.535 h 64.617 v -20.332 h -64.617 v -34.59 h 73.863 v -20.273 h -96.551 v 128.972"
         style="fill:#1b1817;fill-opacity:1;fill-rule:nonzero;stroke:none"
         id="path22" /><path
         d="m 774.094,465.035 h 57.488 c 16.277,0 28.926,-4.734 37.219,-12.91 6.851,-6.953 10.73,-16.531 10.73,-27.781 v -0.422 c 0,-21.141 -12.722,-33.875 -30.793,-38.992 l 34.836,-48.867 h -26.726 l -31.692,45.039 h -28.398 v -45.039 h -22.664 z m 55.84,-63.914 c 16.218,0 26.511,8.465 26.511,21.563 v 0.339 c 0,13.829 -9.89,21.426 -26.687,21.426 h -33 v -43.328 h 33.176"
         style="fill:#1b1817;fill-opacity:1;fill-rule:nonzero;stroke:none"
         id="path24" /><path
         d="m 168.914,217.867 -0.019,0.391 c 0.019,36.672 27.449,66.699 66.519,66.699 23.824,0 38.141,-8.348 50.492,-20.047 l -14.551,-16.816 c -10.304,9.551 -21.378,16.023 -36.113,16.023 -24.695,0 -42.566,-20.242 -42.566,-45.508 v -0.351 c 0,-25.254 17.871,-45.906 42.566,-45.906 15.844,0 25.988,6.492 37.043,16.785 l 14.551,-14.824 C 273.352,160.34 258.652,151.52 234.52,151.52 c -37.602,0 -65.606,29.328 -65.606,66.347"
         style="fill:#1b1817;fill-opacity:1;fill-rule:nonzero;stroke:none"
         id="path26" /><path
         d="m 371.734,283.609 h 21 L 449.48,153.785 h -23.945 l -13.109,31.067 H 351.438 L 338.207,153.785 H 314.98 Z m 32.414,-78.632 -22.316,51.621 -22.066,-51.621 z"
         style="fill:#1b1817;fill-opacity:1;fill-rule:nonzero;stroke:none"
         id="path28" /><path
         d="m 476.145,172.547 13.64,16.25 c 12.356,-10.703 24.668,-16.75 40.703,-16.75 13.992,0 22.864,6.426 22.864,16.164 v 0.352 c 0,9.207 -5.161,14.218 -29.153,19.714 -27.429,6.661 -42.871,14.688 -42.871,38.508 v 0.41 c 0,22.051 18.418,37.352 44.016,37.422 18.777,0 33.711,-5.762 46.758,-16.262 L 559.98,251.207 c -11.621,8.664 -23.234,13.215 -34.992,13.215 -13.316,0 -21.035,-6.777 -21.035,-15.234 v -0.372 c 0,-9.961 5.902,-14.347 30.59,-20.214 27.273,-6.661 41.473,-16.446 41.473,-37.813 v -0.344 c 0,-24.16 -18.996,-38.535 -46.075,-38.535 -19.699,0 -38.347,6.836 -53.796,20.637"
         style="fill:#1b1817;fill-opacity:1;fill-rule:nonzero;stroke:none"
         id="path30" /><path
         d="m 618.152,282.691 h 95.618 v -20.203 h -73 v -33.515 h 64.66 v -20.325 h -64.66 v -34.636 h 73.859 v -20.227 h -96.477 v 128.906"
         style="fill:#1b1817;fill-opacity:1;fill-rule:nonzero;stroke:none"
         id="path32" /><path
         d="m 162.664,26.6016 v 27.8476 h -6.41 v 6.0274 h 6.41 v 13.9453 h 6.871 V 60.4766 h 14.61 v -6.0274 h -14.61 V 27.5391 c 0,-5.6407 3.121,-7.6993 7.754,-7.6993 2.301,0 4.27,0.379 6.691,1.5391 v -5.8008 c -2.421,-1.2578 -4.964,-1.9492 -8.289,-1.9492 -7.402,0 -13.027,3.5703 -13.027,12.9727"
         style="fill:#1b1817;fill-opacity:1;fill-rule:nonzero;stroke:none"
         id="path34" /><path
         d="m 215.746,19.25 c 6.324,0 10.813,2.6484 14.527,6.5313 l 4.293,-3.8321 c -4.644,-5.1679 -10.257,-8.6679 -18.98,-8.6679 -12.688,0 -23.004,9.7187 -23.004,24.1875 0,13.2421 9.344,24.0507 22.102,24.0507 13.671,0 21.476,-10.9297 21.476,-24.5 0,-0.5976 0,-1.3593 -0.07,-2.3593 H 199.516 C 200.52,24.8906 207.641,19.25 215.746,19.25 Z m 13.449,20.9492 c -0.789,8.3008 -5.601,15.5117 -14.675,15.5117 -7.965,0 -14,-6.6328 -15.004,-15.5117 h 29.679"
         style="fill:#1b1817;fill-opacity:1;fill-rule:nonzero;stroke:none"
         id="path36" /><path
         d="m 245.875,37.1992 v 0.2696 c 0,12.9296 10.148,24.0507 23.613,24.0507 8.766,0 14.184,-3.6992 18.45,-8.2109 l -4.524,-4.8477 c -3.684,3.8282 -7.773,6.9375 -14.035,6.9375 -9.359,0 -16.488,-7.9179 -16.488,-17.8086 v -0.121 c 0,-10 7.32,-18.0196 16.976,-18.0196 5.86,0 10.406,2.9727 14.078,6.8711 l 4.379,-4.1094 c -4.652,-5.082 -10.179,-8.9296 -18.836,-8.9296 -13.465,0 -23.613,10.9492 -23.613,23.9179"
         style="fill:#1b1817;fill-opacity:1;fill-rule:nonzero;stroke:none"
         id="path38" /><path
         d="m 300.129,79.4492 h 6.863 V 52.4609 c 3.004,5.0157 7.852,9.0586 15.762,9.0586 11.172,0 17.68,-7.5586 17.68,-18.5312 V 14.3516 h -6.879 v 27.0078 c 0,8.5117 -4.645,13.8711 -12.758,13.8711 -7.91,0 -13.805,-5.7617 -13.805,-14.4414 V 14.3516 h -6.863 v 65.0976"
         style="fill:#1b1817;fill-opacity:1;fill-rule:nonzero;stroke:none"
         id="path40" /><path
         d="m 355.559,60.4766 h 6.867 v -8.0157 c 2.996,5.0157 7.816,9.0586 15.742,9.0586 11.148,0 17.668,-7.5586 17.668,-18.5312 V 14.3516 h -6.859 v 27.0078 c 0,8.5117 -4.622,13.8711 -12.762,13.8711 -7.918,0 -13.789,-5.7617 -13.789,-14.4414 V 14.3516 h -6.867 v 46.125"
         style="fill:#1b1817;fill-opacity:1;fill-rule:nonzero;stroke:none"
         id="path42" /><path
         d="m 408.16,37.1992 v 0.2696 c 0,12.9296 10.137,24.0507 24.024,24.0507 13.832,0 24.027,-10.9297 24.027,-23.9297 v -0.121 c 0,-13.0899 -10.313,-24.1875 -24.191,-24.1875 -13.821,0 -23.86,10.8906 -23.86,23.9179 z m 40.942,0 v 0.2696 c 0,9.8007 -7.344,17.9296 -17.082,17.9296 -9.985,0 -16.852,-8.1289 -16.852,-17.8086 v -0.121 c 0,-9.9297 7.312,-18.0196 17.016,-18.0196 9.964,0 16.918,8.0899 16.918,17.75"
         style="fill:#1b1817;fill-opacity:1;fill-rule:nonzero;stroke:none"
         id="path44" /><path
         d="m 469.707,79.4492 h 6.848 V 14.3516 h -6.848 v 65.0976"
         style="fill:#1b1817;fill-opacity:1;fill-rule:nonzero;stroke:none"
         id="path46" /><path
         d="m 490.188,37.1992 v 0.2696 c 0,12.9296 10.132,24.0507 24.023,24.0507 13.836,0 23.98,-10.9297 23.98,-23.9297 v -0.121 c 0,-13.0899 -10.242,-24.1875 -24.136,-24.1875 -13.821,0 -23.867,10.8906 -23.867,23.9179 z m 40.984,0 v 0.2696 c 0,9.8007 -7.402,17.9296 -17.117,17.9296 -9.992,0 -16.86,-8.1289 -16.86,-17.8086 v -0.121 c 0,-9.9297 7.297,-18.0196 17.016,-18.0196 10.008,0 16.961,8.0899 16.961,17.75"
         style="fill:#1b1817;fill-opacity:1;fill-rule:nonzero;stroke:none"
         id="path48" /><path
         d="m 550.574,6.32031 3.117,5.39849 c 5.254,-3.82036 11.145,-5.86724 17.754,-5.86724 10.11,0 16.778,5.60934 16.778,16.35934 v 5.4883 c -4.024,-5.3906 -9.637,-9.7383 -18.125,-9.7383 -11.043,0 -21.668,8.2383 -21.668,21.5899 v 0.1601 c 0,13.4688 10.703,21.8086 21.668,21.8086 8.672,0 14.289,-4.3359 17.988,-9.3398 v 8.2969 h 6.894 V 22.4219 C 594.98,15.25 592.813,9.78906 589.082,6.08984 584.988,2 578.801,0 571.504,0 c -7.637,0 -14.793,2.05859 -20.93,6.32031 z m 37.805,33.28909 v 0.2187 c 0,9.3711 -8.203,15.5703 -16.934,15.5703 -8.757,0 -15.976,-6.039 -15.976,-15.457 V 39.7109 C 555.469,30.4492 562.832,24 571.445,24 c 8.731,0 16.934,6.3711 16.934,15.6094"
         style="fill:#1b1817;fill-opacity:1;fill-rule:nonzero;stroke:none"
         id="path50" /><path
         d="m 611.008,78.1719 h 7.808 V 70.543 h -7.808 z m 0.437,-17.6953 h 6.875 v -46.125 h -6.875 v 46.125"
         style="fill:#1b1817;fill-opacity:1;fill-rule:nonzero;stroke:none"
         id="path52" /><path
         d="m 655.098,19.25 c 6.297,0 10.742,2.6484 14.511,6.5313 l 4.278,-3.8321 c -4.668,-5.1679 -10.235,-8.6679 -19.024,-8.6679 -12.644,0 -22.988,9.7187 -22.988,24.1875 0,13.2421 9.395,24.0507 22.129,24.0507 13.652,0 21.445,-10.9297 21.445,-24.5 0,-0.5976 0,-1.3593 -0.058,-2.3593 H 638.809 C 639.813,24.8906 646.953,19.25 655.098,19.25 Z m 13.449,20.9492 c -0.832,8.3008 -5.625,15.5117 -14.692,15.5117 -7.996,0 -14.042,-6.6328 -15.046,-15.5117 h 29.738"
         style="fill:#1b1817;fill-opacity:1;fill-rule:nonzero;stroke:none"
         id="path54" /><path
         d="m 684.188,20.2188 3.48,4.9414 c 4.988,-3.7813 10.496,-5.9102 15.937,-5.9102 5.594,0 9.54,2.8594 9.54,7.3516 v 0.1797 c 0,4.6289 -5.411,6.4492 -11.524,8.1093 -7.195,2.0391 -15.195,4.5508 -15.195,13.0391 v 0.1289 c 0,7.9648 6.64,13.2266 15.637,13.2266 5.671,0 11.89,-1.9727 16.628,-5.125 l -3.125,-5.1407 c -4.25,2.7891 -9.199,4.4688 -13.64,4.4688 -5.434,0 -8.86,-2.8399 -8.86,-6.668 v -0.2422 c 0,-4.3593 5.657,-5.9883 11.778,-7.8984 7.129,-2.1289 14.844,-4.9102 14.844,-13.1406 v -0.2578 c 0,-8.6797 -7.254,-13.7813 -16.426,-13.7813 -6.59,0 -13.926,2.5898 -19.074,6.7188"
         style="fill:#1b1817;fill-opacity:1;fill-rule:nonzero;stroke:none"
         id="path56" /><path
         d="m 625.02,725.734 c -36.551,-34.093 -70.332,-55.617 -121.082,-57.39 l 62.339,-62.391 c 43.918,12.434 77.629,36.488 108.879,68.949 l -50.136,50.832"
         style="fill:#1b1817;fill-opacity:1;fill-rule:nonzero;stroke:none"
         id="path58" /><path
         d="m 351.039,821.242 c -0.125,1.598 -0.254,3.145 -0.254,4.731 v 1.308 c 0,86.981 61.613,156.715 146.61,156.715 50.82,0 88.875,-22.219 124.429,-55.101 l 50.117,57.687 c -42.539,40.648 -91.992,69.118 -173.894,69.118 -109.508,0 -192.117,-68.661 -219.18,-162.286 l 72.172,-72.172"
         style="fill:#1b1817;fill-opacity:1;fill-rule:nonzero;stroke:none"
         id="path60" /><path
         d="M 449.813,665.027 H 337.742 v 112.094 l -68.851,68.813 V 596.227 h 249.672 l -68.75,68.8"
         style="fill:#3caea6;fill-opacity:1;fill-rule:nonzero;stroke:none"
         id="path62" /></g></g></svg>
