<svg id="Layer_1" data-name="Layer 1" xmlns="http://www.w3.org/2000/svg" viewBox="0 0 569.58 113.62"><defs><style>.cls-1{fill:#ff155b;}</style></defs><path class="cls-1" d="M30.43,56.81a32.25,32.25,0,0,1,2.25-12,29,29,0,0,1,6.49-9.92,31.79,31.79,0,0,1,10.28-6.82A34.68,34.68,0,0,1,63,25.52q10.16,0,17.24,4.28A27.37,27.37,0,0,1,91,41L75.55,45.61a13.42,13.42,0,0,0-5.31-5.08,15.46,15.46,0,0,0-13.7-.46,15.16,15.16,0,0,0-5.2,3.7,17.61,17.61,0,0,0-3.43,5.65,22.28,22.28,0,0,0-1.18,7.39A20.41,20.41,0,0,0,48,64.2,19.15,19.15,0,0,0,51.46,70a16.45,16.45,0,0,0,5.19,3.81,15.64,15.64,0,0,0,6.26,1.27A15.08,15.08,0,0,0,70.71,73a11.71,11.71,0,0,0,5.08-5.08l15.47,4.62A25.7,25.7,0,0,1,80.75,83.83q-7.32,4.38-17.6,4.38a34.5,34.5,0,0,1-13.58-2.54,31.6,31.6,0,0,1-10.28-6.81,32,32,0,0,1-6.61-10A32.78,32.78,0,0,1,30.43,56.81Z"/><path class="cls-1" d="M130.07,88.21a34.5,34.5,0,0,1-13.58-2.54,31.5,31.5,0,0,1-10.28-6.81,31.33,31.33,0,0,1-6.38-10,33,33,0,0,1,0-23.9A30.11,30.11,0,0,1,106.21,35a30.86,30.86,0,0,1,10.28-6.93,34.68,34.68,0,0,1,13.58-2.54,33.83,33.83,0,0,1,13.46,2.54A29.66,29.66,0,0,1,153.69,35a29.17,29.17,0,0,1,6.49,9.93,32.86,32.86,0,0,1,0,23.9,31.3,31.3,0,0,1-6.37,10,30.24,30.24,0,0,1-10.16,6.81A34.53,34.53,0,0,1,130.07,88.21ZM113.89,56.93a22.07,22.07,0,0,0,1.18,7.39A19.52,19.52,0,0,0,118.49,70a16.6,16.6,0,0,0,5.2,3.81,16.64,16.64,0,0,0,12.75,0A15.17,15.17,0,0,0,141.52,70,16.37,16.37,0,0,0,145,64.2a20.41,20.41,0,0,0,1.3-7.39,20,20,0,0,0-1.3-7.27,16.37,16.37,0,0,0-3.43-5.77,14,14,0,0,0-5.08-3.7,15.41,15.41,0,0,0-12.75,0,16.6,16.6,0,0,0-5.2,3.81,19.26,19.26,0,0,0-3.42,5.77A21.71,21.71,0,0,0,113.89,56.93Z"/><path class="cls-1" d="M231.58,87.06H215.75V53.12q0-7.27-2.6-10.62a8.58,8.58,0,0,0-7.2-3.35,14,14,0,0,0-4.85.92,18.08,18.08,0,0,0-4.72,2.66,20.4,20.4,0,0,0-3.9,3.92,15.79,15.79,0,0,0-2.6,5.08V87.06H174.06V26.56h14.29v11.2a23.17,23.17,0,0,1,9.92-9,32.36,32.36,0,0,1,14.65-3.24,19,19,0,0,1,9.44,2.08A15.27,15.27,0,0,1,228,33a21.41,21.41,0,0,1,2.72,7.62,45.55,45.55,0,0,1,.83,8.66Z"/><path class="cls-1" d="M261.78,87.06,239,26.56h16.3L271,74.47l15.83-47.91H301.7l-22.79,60.5Z"/><path class="cls-1" d="M310.67,87.06V26.56H326.5v60.5Z"/><path class="cls-1" d="M370.43,88.21a34.5,34.5,0,0,1-13.58-2.54,31.6,31.6,0,0,1-10.28-6.81,31.33,31.33,0,0,1-6.38-10,33,33,0,0,1,0-23.9A30.11,30.11,0,0,1,346.57,35a31,31,0,0,1,10.28-6.93,34.68,34.68,0,0,1,13.58-2.54,33.83,33.83,0,0,1,13.46,2.54A29.66,29.66,0,0,1,394.05,35a29.17,29.17,0,0,1,6.49,9.93,32.86,32.86,0,0,1,0,23.9,31.3,31.3,0,0,1-6.37,10A30.24,30.24,0,0,1,384,85.67,34.53,34.53,0,0,1,370.43,88.21ZM354.25,56.93a22.07,22.07,0,0,0,1.18,7.39A19.52,19.52,0,0,0,358.85,70a16.6,16.6,0,0,0,5.2,3.81,16.66,16.66,0,0,0,12.76,0A15.23,15.23,0,0,0,381.88,70a16.37,16.37,0,0,0,3.43-5.77,20.2,20.2,0,0,0,1.3-7.39,19.82,19.82,0,0,0-1.3-7.27,16.37,16.37,0,0,0-3.43-5.77,14.06,14.06,0,0,0-5.07-3.7,15.44,15.44,0,0,0-12.76,0,16.6,16.6,0,0,0-5.2,3.81,19.26,19.26,0,0,0-3.42,5.77A21.71,21.71,0,0,0,354.25,56.93Z"/><path class="cls-1" d="M433.32,88.21q-9.57,0-14.53-6t-5-17.78V26.56h15.82V61.08q0,14,10.28,14a16.7,16.7,0,0,0,9-2.65A19.87,19.87,0,0,0,456,64.08V26.56h15.83V69.28a5.08,5.08,0,0,0,.94,3.46,4.65,4.65,0,0,0,3.31,1.16V87.06a36.51,36.51,0,0,1-4.37.58,28.51,28.51,0,0,1-3.31.23A11.06,11.06,0,0,1,461.66,86a8.59,8.59,0,0,1-3-5.31l-.36-5a27,27,0,0,1-10.74,9.36A32.26,32.26,0,0,1,433.32,88.21Z"/><path class="cls-1" d="M513.52,88.21a57.87,57.87,0,0,1-7.91-.57A70.34,70.34,0,0,1,497.69,86a55.6,55.6,0,0,1-7.44-2.54A36.38,36.38,0,0,1,484,80.13l6.38-10.5q11.81,7.5,22.79,7.5A15,15,0,0,0,521,75.4a5.5,5.5,0,0,0,2.83-5q0-3.23-3.42-4.73a58.57,58.57,0,0,0-11.22-3.46,97.75,97.75,0,0,1-10.28-2.89A25.53,25.53,0,0,1,492,55.89a12.05,12.05,0,0,1-3.78-4.51,14.21,14.21,0,0,1-1.18-6A18,18,0,0,1,489,37.07a18.31,18.31,0,0,1,5.2-6.24,24.74,24.74,0,0,1,7.91-4A34.42,34.42,0,0,1,512,25.41a42.65,42.65,0,0,1,13.11,2.08,51.65,51.65,0,0,1,12.29,5.42l-6.5,9.59a41,41,0,0,0-9.8-4.62,29.6,29.6,0,0,0-9.22-1.5,14.91,14.91,0,0,0-7.2,1.61,5.53,5.53,0,0,0-2.83,5.2,4.68,4.68,0,0,0,2.71,4.5,55.93,55.93,0,0,0,9.92,3.12q6.62,1.62,11.22,3.23a30.91,30.91,0,0,1,7.68,3.69,12.25,12.25,0,0,1,4.37,4.85,13.65,13.65,0,0,1,1.42,6.47,16.76,16.76,0,0,1-1.89,8,17.35,17.35,0,0,1-5.08,6.12A25.44,25.44,0,0,1,524,86.94,40.31,40.31,0,0,1,513.52,88.21Z"/></svg>