<?xml version="1.0" encoding="UTF-8" standalone="no"?>
<!-- Created with Inkscape (http://www.inkscape.org/) -->

<svg
   xmlns:dc="http://purl.org/dc/elements/1.1/"
   xmlns:cc="http://creativecommons.org/ns#"
   xmlns:rdf="http://www.w3.org/1999/02/22-rdf-syntax-ns#"
   xmlns:svg="http://www.w3.org/2000/svg"
   xmlns="http://www.w3.org/2000/svg"
   xmlns:sodipodi="http://sodipodi.sourceforge.net/DTD/sodipodi-0.dtd"
   xmlns:inkscape="http://www.inkscape.org/namespaces/inkscape"
   width="250"
   height="150"
   viewBox="0 0 66.145832 39.687501"
   version="1.1"
   id="svg8"
   inkscape:version="0.92.4 (5da689c313, 2019-01-14)"
   sodipodi:docname="Logo_Text_horizontal_Green.svg">
  <defs
     id="defs2" />
  <sodipodi:namedview
     id="base"
     pagecolor="#ffffff"
     bordercolor="#666666"
     borderopacity="1.0"
     inkscape:pageopacity="0.0"
     inkscape:pageshadow="2"
     inkscape:zoom="4.0446508"
     inkscape:cx="151.91527"
     inkscape:cy="74.317021"
     inkscape:document-units="mm"
     inkscape:current-layer="layer1"
     showgrid="false"
     units="px"
     inkscape:snap-page="true"
     inkscape:snap-others="false"
     inkscape:window-width="1920"
     inkscape:window-height="1027"
     inkscape:window-x="1912"
     inkscape:window-y="-8"
     inkscape:window-maximized="1" />
  <metadata
     id="metadata5">
    <rdf:RDF>
      <cc:Work
         rdf:about="">
        <dc:format>image/svg+xml</dc:format>
        <dc:type
           rdf:resource="http://purl.org/dc/dcmitype/StillImage" />
        <dc:title></dc:title>
      </cc:Work>
    </rdf:RDF>
  </metadata>
  <g
     inkscape:label="Layer 1"
     inkscape:groupmode="layer"
     id="layer1"
     transform="translate(0,-257.31248)">
    <rect
       style="fill:#45ac76;fill-opacity:1;stroke-width:0.03969204"
       id="rect815"
       width="66.145836"
       height="39.6875"
       x="-6.6613381e-16"
       y="257.31247" />
    <g
       data-name="Layer 2"
       id="f5b6b207-6a1c-4bd0-9512-0106ef19144c-5"
       transform="matrix(0.29293567,0,0,0.30834506,32.047642,263.66196)">
      <g
         data-name="Layer 1"
         id="adc503c8-591f-4b28-89e8-89c45c22ecf5"
         transform="translate(-98.0185,-0.33347189)">
        <g
           id="g4688">
          <g
             id="g4676">
            <path
               id="path4664"
               d="m 126.123,50.586 c 0,5.053 -4.643,8.422 -11.518,8.422 -7.33,0 -11.745,-3.323 -11.745,-9.242 h 3.96 c 0,3.551 2.823,5.691 8.1,5.691 4.462,0 7.193,-1.776 7.147,-4.871 0,-8.833 -18.392,-2.413 -18.392,-14.933 0,-5.145 4.462,-8.423 11.154,-8.423 6.692,0 10.926,3.324 10.88,9.015 h -3.96 c 0,-3.779 -2.777,-5.464 -7.057,-5.464 -4.826,0 -6.965,1.73 -6.965,4.781 0.004,8.422 18.396,2.138 18.396,15.024 z"
               inkscape:connector-curvature="0"
               style="fill:#ffffff" />
            <path
               id="path4666"
               d="m 143.659,58.416 a 9.883,9.883 0 0 1 -3.5,0.547 c -5.19,0 -8.286,-2.914 -8.286,-7.558 V 39.887 H 128.5 v -3.46 h 3.6 V 29.78 h 3.778 v 6.647 h 7.239 V 39.8 h -7.239 v 11.605 c 0,2.231 1.048,4.052 4.69,4.052 a 7.2,7.2 0 0 0 2.913,-0.547 z"
               inkscape:connector-curvature="0"
               style="fill:#ffffff" />
            <path
               id="path4668"
               d="m 157.576,36.336 -0.045,3.96 a 3.821,3.821 0 0 0 -1.5,-0.182 c -2.822,0 -5.463,2.368 -5.463,6.875 v 11.746 h -4.006 V 36.427 h 3.778 l 0.092,3.6 a 6.317,6.317 0 0 1 5.868,-3.827 6.654,6.654 0 0 1 1.276,0.136 z"
               inkscape:connector-curvature="0"
               style="fill:#ffffff" />
            <path
               id="path4670"
               d="m 162.679,31.874 a 2.693,2.693 0 0 1 -2.777,-2.731 2.778,2.778 0 0 1 5.555,0 2.694,2.694 0 0 1 -2.778,2.731 z m -2.139,4.553 h 4.051 v 22.308 h -4.051 z"
               inkscape:connector-curvature="0"
               style="fill:#ffffff" />
            <path
               id="path4672"
               d="m 189.075,36.427 -8.559,22.308 h -4.371 l -8.7,-22.308 h 4.507 l 5.736,15.843 a 17.99,17.99 0 0 1 0.729,2.367 h 0.09 a 18.129,18.129 0 0 1 0.638,-2.367 l 5.828,-15.843 z"
               inkscape:connector-curvature="0"
               style="fill:#ffffff" />
            <path
               id="path4674"
               d="m 203.037,36.336 -0.046,3.96 a 3.814,3.814 0 0 0 -1.5,-0.182 c -2.822,0 -5.463,2.368 -5.463,6.875 V 58.735 H 192.02 V 36.427 h 3.78 l 0.09,3.6 a 6.32,6.32 0 0 1 5.873,-3.825 6.654,6.654 0 0 1 1.274,0.134 z"
               inkscape:connector-curvature="0"
               style="fill:#ffffff" />
          </g>
          <g
             id="g4686">
            <path
               id="path4678"
               d="m 65.149,46.144 h -42.1 A 23.073,23.073 0 0 1 0,23.1 V 23.048 A 23.072,23.072 0 0 1 23.046,0 h 42.1 A 23.071,23.071 0 0 1 88.194,23.046 V 23.1 A 23.072,23.072 0 0 1 65.149,46.144 Z M 23.049,4.094 A 18.973,18.973 0 0 0 4.094,23.046 V 23.1 a 18.974,18.974 0 0 0 18.952,18.95 h 42.1 A 18.974,18.974 0 0 0 84.1,23.1 V 23.048 A 18.973,18.973 0 0 0 65.149,4.094 Z"
               inkscape:connector-curvature="0"
               style="fill:#ffffff" />
            <path
               id="path4680"
               d="M 65.149,46.144 H 65.1 A 23.073,23.073 0 0 1 42.05,23.1 V 23.048 A 23.072,23.072 0 0 1 65.1,0 h 0.053 A 23.071,23.071 0 0 1 88.194,23.046 V 23.1 A 23.072,23.072 0 0 1 65.149,46.144 Z M 65.1,4.094 A 18.973,18.973 0 0 0 46.144,23.046 V 23.1 A 18.974,18.974 0 0 0 65.1,42.05 h 0.053 A 18.974,18.974 0 0 0 84.1,23.1 V 23.048 A 18.973,18.973 0 0 0 65.149,4.094 Z"
               inkscape:connector-curvature="0"
               style="fill:#ffffff" />
            <path
               id="path4682"
               d="m 65.149,88.194 h -42.1 A 23.072,23.072 0 0 1 0,65.148 V 65.1 A 23.072,23.072 0 0 1 23.046,42.05 h 42.1 A 23.071,23.071 0 0 1 88.194,65.1 v 0.052 A 23.071,23.071 0 0 1 65.149,88.194 Z m -42.1,-42.05 A 18.973,18.973 0 0 0 4.094,65.1 v 0.052 A 18.974,18.974 0 0 0 23.046,84.1 h 42.1 A 18.974,18.974 0 0 0 84.1,65.148 V 65.1 A 18.973,18.973 0 0 0 65.149,46.144 Z"
               inkscape:connector-curvature="0"
               style="fill:#ffffff" />
            <path
               id="path4684"
               d="M 23.1,88.194 H 23.048 A 23.072,23.072 0 0 1 0,65.148 V 65.1 A 23.072,23.072 0 0 1 23.046,42.05 H 23.1 A 23.072,23.072 0 0 1 46.144,65.1 v 0.052 A 23.072,23.072 0 0 1 23.1,88.194 Z M 23.048,46.144 A 18.973,18.973 0 0 0 4.094,65.1 v 0.052 A 18.974,18.974 0 0 0 23.046,84.1 H 23.1 A 18.973,18.973 0 0 0 42.05,65.148 V 65.1 A 18.972,18.972 0 0 0 23.1,46.144 Z"
               inkscape:connector-curvature="0"
               style="fill:#ffffff" />
          </g>
        </g>
      </g>
    </g>
  </g>
</svg>
