<svg width="170" height="24" viewBox="0 0 170 24" fill="none" xmlns="http://www.w3.org/2000/svg">
<path fill-rule="evenodd" clip-rule="evenodd" d="M41.6292 20.6061C38.7926 20.6061 36.8391 18.2413 36.8391 15.1628C36.8391 12.0843 38.7926 9.71952 41.6292 9.71952C44.4657 9.71952 46.4192 12.0843 46.4192 15.1628C46.4192 18.2413 44.496 20.6061 41.6292 20.6061ZM41.6292 7.11279C37.6858 7.11279 34.063 10.4876 34.063 15.1507C34.063 19.8138 37.6918 23.1886 41.6292 23.1886C45.5665 23.1886 49.1953 19.8199 49.1953 15.1507C49.1953 10.4816 45.5665 7.11279 41.6292 7.11279Z" fill="black"/>
<path fill-rule="evenodd" clip-rule="evenodd" d="M69.686 7.1129C68.7362 7.11024 67.8 7.33773 66.9573 7.7759C66.1147 8.21407 65.3908 8.84988 64.8475 9.62891H64.3153C63.8899 8.91116 63.297 8.30714 62.5873 7.86852C61.8775 7.4299 61.0721 7.16974 60.2399 7.11029C59.4077 7.05085 58.5735 7.1939 57.8086 7.52719C57.0437 7.86048 56.371 8.3741 55.8479 9.0241H55.4064L54.8681 7.2641H53.0537V22.9892H55.8298V14.0319C55.8298 11.1409 57.5958 9.5019 59.6401 9.5019C62.3557 9.5019 62.7307 12.3687 62.7307 15.4169V22.9892H65.5067V13.8142C65.5975 11.0442 67.3212 9.5019 69.3171 9.5019C72.0326 9.5019 72.4076 12.3687 72.4076 15.4169V22.9892H75.1837V14.4613C75.1837 10.1188 73.2906 7.10081 69.6678 7.10081" fill="black"/>
<path fill-rule="evenodd" clip-rule="evenodd" d="M87.141 7.11268C86.2758 7.07699 85.4134 7.23308 84.6156 7.56977C83.8178 7.90646 83.1043 8.41541 82.5263 9.06016H82.1513L81.5888 7.24573H79.7744V22.9708H82.5323V14.0317C82.5323 11.2677 84.4194 9.50168 86.766 9.50168C89.8687 9.50168 90.3404 12.6165 90.3404 15.4167V22.9889H93.0984V14.4611C93.0984 10.0883 91.1267 7.10059 87.141 7.10059" fill="black"/>
<path d="M100.828 7.27002H98.0698V23.0011H100.828V7.27002Z" fill="black"/>
<path d="M99.4491 4.08266C100.475 4.08266 101.306 3.25138 101.306 2.22591C101.306 1.20045 100.475 0.369141 99.4491 0.369141C98.4236 0.369141 97.5923 1.20045 97.5923 2.22591C97.5923 3.25138 98.4236 4.08266 99.4491 4.08266Z" fill="black"/>
<path fill-rule="evenodd" clip-rule="evenodd" d="M111.146 13.7356C109.604 13.3243 108.122 12.8162 108.122 11.3708C108.122 10.0765 109.253 9.25392 110.705 9.25392C112.374 9.25392 113.608 10.3305 113.608 11.4917H116.172C116.172 9.32044 114.249 7.01611 110.729 7.01611C107.832 7.01611 105.527 8.59467 105.527 11.401C105.527 14.552 108.461 15.4048 110.602 15.9733C112.338 16.4451 113.88 16.9471 113.88 18.5559C113.88 20.1647 112.495 20.8239 111.013 20.8239C109.277 20.8239 107.608 19.8139 107.608 17.8603H105.056C105.056 20.7332 107.42 23.098 111.043 23.098C114.134 23.098 116.487 21.3622 116.487 18.4289C116.487 15.181 113.553 14.3646 111.158 13.7356" fill="black"/>
<path fill-rule="evenodd" clip-rule="evenodd" d="M122.625 13.4815C123.127 10.9595 124.893 9.35069 127.228 9.35069C129.562 9.35069 131.177 11.0562 131.552 13.4815H122.625ZM127.264 7.01611C123.321 7.01611 119.783 10.0402 119.783 14.9331C119.783 19.826 123.321 23.098 127.294 23.098C128.751 23.0928 130.173 22.6556 131.381 21.8417C132.589 21.0278 133.529 19.8737 134.08 18.5256H131.177C130.765 19.174 130.189 19.7018 129.507 20.0556C128.825 20.4093 128.062 20.5763 127.294 20.5397C124.579 20.5397 122.752 18.7252 122.498 15.7798H134.425C134.74 9.82242 131.05 7.01611 127.264 7.01611Z" fill="black"/>
<path fill-rule="evenodd" clip-rule="evenodd" d="M145.693 7.11268C144.828 7.07662 143.967 7.23257 143.17 7.56931C142.373 7.90605 141.661 8.41521 141.084 9.06016H140.703L140.141 7.24573H138.326V22.9708H141.09V14.0317C141.09 11.2677 142.971 9.50168 145.324 9.50168C148.433 9.50168 148.898 12.6165 148.898 15.4167V22.9889H151.662V14.4611C151.662 10.0883 149.685 7.10059 145.699 7.10059" fill="black"/>
<path fill-rule="evenodd" clip-rule="evenodd" d="M162.815 20.5696C160.462 20.5696 158.109 18.5253 158.109 15.1263C158.109 11.7272 160.462 9.68299 162.815 9.68299C164.889 9.68299 167.333 11.2615 167.333 15.1263C167.333 18.991 164.913 20.5696 162.815 20.5696ZM167.333 0.61084V9.58622C166.828 8.79373 166.126 8.14549 165.296 7.70458C164.466 7.26368 163.536 7.04513 162.597 7.07021C158.611 7.07021 155.339 10.433 155.339 15.096C155.339 19.7591 158.605 23.1219 162.597 23.1219C163.465 23.1476 164.326 22.9637 165.107 22.5857C165.888 22.2077 166.567 21.6468 167.085 20.9506H167.581L168.186 22.9646H170V0.61084H167.333Z" fill="black"/>
<path d="M18.6161 0.683598H3.90102C3.38902 0.682803 2.88189 0.782959 2.40863 0.978344C1.93537 1.17373 1.50528 1.46051 1.14295 1.82227C0.780629 2.18403 0.493181 2.61368 0.297062 3.08663C0.100943 3.55959 -6.17264e-07 4.06657 0 4.57857V19.2936C-6.17264e-07 19.8056 0.100943 20.3126 0.297062 20.7855C0.493181 21.2585 0.780629 21.6881 1.14295 22.0499C1.50528 22.4117 1.93537 22.6984 2.40863 22.8938C2.88189 23.0892 3.38902 23.1894 3.90102 23.1886H10.6023V19.9649C10.6023 16.8562 10.2152 14.4733 7.90487 13.7838V11.2375C11.6607 11.5762 13.5236 14.3704 13.5236 18.961V23.1946H18.6161C19.6491 23.1946 20.6398 22.7843 21.3702 22.0538C22.1007 21.3234 22.511 20.3327 22.511 19.2996V4.57857C22.511 3.54556 22.1007 2.55486 21.3702 1.82441C20.6398 1.09396 19.6491 0.683598 18.6161 0.683598ZM11.3583 8.81224C10.931 8.81344 10.513 8.68783 10.1571 8.45131C9.80125 8.21479 9.52356 7.87799 9.35921 7.48356C9.19486 7.08913 9.15124 6.6548 9.23386 6.23556C9.31649 5.81633 9.52166 5.43103 9.82338 5.12846C10.1251 4.82588 10.5098 4.61965 10.9288 4.53585C11.3478 4.45204 11.7823 4.49444 12.1772 4.65768C12.5721 4.82093 12.9096 5.09768 13.1471 5.45288C13.3847 5.80808 13.5115 6.22577 13.5115 6.65307C13.5115 7.22467 13.2848 7.77295 12.8812 8.1777C12.4776 8.58245 11.9299 8.81064 11.3583 8.81224Z" fill="black"/>
</svg>
