<svg width="258" height="108" viewBox="0 0 258 108" fill="none" xmlns="http://www.w3.org/2000/svg">
<g clip-path="url(#clip0_206_5910)">
<path d="M9.22097 41.0938C8.62217 42.1484 8.14992 43.344 7.83062 44.6773C6.13975 51.6932 6.06473 56.0712 7.83062 63.397C8.1412 64.6898 8.55397 65.8943 9.07429 66.9802H23.953V64.3199C23.953 58.2406 29.213 52.8778 35.4597 52.8778H53.8573C58.9788 52.8778 63.0668 48.6612 63.0668 43.5177V41.0938H9.22097V41.0938Z" fill="#006A44"/>
<path d="M65.3636 41.0938V43.5177C65.3636 49.8589 59.9876 55.1961 53.8572 55.1961H35.4596C30.4197 55.1961 26.25 59.5093 26.25 64.5563V66.9802H80.1247C80.6126 65.9025 81.0529 64.7003 81.4858 63.397C83.4089 57.6272 83.3269 52.0786 81.4858 44.6773C81.1673 43.3938 80.7783 42.1869 80.2973 41.0938H65.3636V41.0938Z" fill="#006A44"/>
<path d="M9.07422 66.98C10.7482 70.4732 13.536 72.7349 17.6203 72.7349H23.9529V66.98H9.07422Z" fill="#C1272D"/>
<path d="M26.25 66.98V82.0948C26.25 87.0868 30.5907 90.0227 35.4596 91.4546C41.2899 93.1692 46.8811 93.4792 53.8572 91.4546C58.4941 90.1124 63.0667 87.4103 63.0667 82.0948V75.075H44.6691V72.7349H63.0667H72.2765C76.3843 72.7349 78.5147 70.5359 80.1247 66.98H26.25V66.98ZM55.0165 79.7548C56.9256 79.7548 58.4727 81.3194 58.4727 83.2542C58.4727 85.1956 56.9256 86.7749 55.0165 86.7749C53.1137 86.7749 51.56 85.1956 51.56 83.2542C51.56 81.3194 53.1137 79.7548 55.0165 79.7548Z" fill="#C1272D"/>
<path d="M44.2616 15.653C41.1127 15.6678 38.1058 15.9364 35.4599 16.4045C27.6653 17.7814 26.2504 20.6638 26.2504 25.979V32.9988H44.6694V35.3389H26.2504H19.3377C15.1508 35.3389 11.3708 37.3072 9.22119 41.0938H63.067V25.979C63.067 20.9872 58.8558 17.2375 53.8576 16.4045C50.6935 15.8778 47.4102 15.6384 44.2616 15.653V15.653ZM34.3006 21.2989C36.2029 21.2989 37.7568 22.8781 37.7568 24.82C37.7568 26.7543 36.2029 28.319 34.3006 28.319C32.3912 28.319 30.8445 26.7543 30.8445 24.82C30.8445 22.8781 32.3912 21.2989 34.3006 21.2989Z" fill="#FDB913"/>
<path d="M65.3638 35.3389V41.0938H80.2974C78.7811 37.6495 76.3454 35.3389 72.2766 35.3389H65.3638Z" fill="#FDB913"/>
<path d="M126.073 46.9294C126.073 40.188 121.461 35.753 114.364 35.753H102.478C101.532 35.753 101 36.1078 101 36.9948V71.0563C101 71.9433 101.532 72.2981 102.478 72.2981H107.978C108.924 72.2981 109.456 71.9433 109.456 71.0563V58.4015C109.456 57.8693 109.634 57.5145 110.402 57.5145H114.364C121.283 57.5145 126.073 53.1385 126.073 46.9294V46.9294ZM117.676 46.6929C117.676 48.526 116.316 50.0044 114.364 50.0044H110.521C109.811 50.0044 109.456 49.7087 109.456 48.7034V44.5049C109.456 43.8544 109.515 43.2631 110.521 43.2631H114.364C116.316 43.2631 117.676 44.7414 117.676 46.6929ZM153.988 47.4616C154.343 46.3379 153.692 45.6876 152.865 45.6876H147.188C146.064 45.6876 145.629 46.2138 145.414 46.9885L140.919 63.1323C140.804 63.5469 140.343 63.7204 140.21 63.1323L138.791 56.864L136.307 46.9885C136.111 46.2085 135.834 45.6876 134.829 45.6876H128.501C127.673 45.6876 127.138 46.1616 127.437 47.1659L134.533 71.0563C134.746 71.7732 135.124 72.2981 136.07 72.2981H136.78C137.549 72.2981 137.685 72.5299 137.431 73.4118L135.124 81.4147C134.795 82.5562 135.302 83.0015 136.13 83.0015H141.57C142.398 83.0015 142.942 82.473 143.167 81.7596L153.988 47.4616V47.4616ZM167.883 72.6529C172.909 72.6529 177.214 70.9898 180.301 65.7933C180.762 65.0175 180.349 64.4531 179.532 64.0193L174.742 61.4765C173.855 61.0053 173.444 61.841 173.086 62.3044C171.844 63.9153 170.13 65.0837 168.178 65.0837C165.281 65.0837 164.098 63.3097 164.098 61.5948V46.5155C164.098 44.7414 165.399 42.6126 168.356 42.6126C170.425 42.6126 171.958 43.4433 173.145 45.5102C173.555 46.2223 174.204 46.8399 175.097 46.2198L179.355 43.2631C180.096 42.7482 180.032 41.9474 179.769 41.489C176.838 36.3883 172.377 35.1616 167.883 35.1616C160.905 35.1616 155.701 39.7153 155.701 46.1015V61.5948C155.701 68.0401 160.313 72.6529 167.883 72.6529Z" fill="#0A3B63"/>
<path d="M230.367 71.0561V55.5628C230.367 49.7085 227.588 45.2734 221.201 45.2734C219.25 45.2734 216.992 46.1472 215.879 47.0475C215.75 47.1524 215.643 47.284 215.525 47.284C215.406 47.284 215.288 47.1657 215.288 46.9292C215.288 46.1013 214.932 45.6874 214.224 45.6874H208.428C207.601 45.6874 207.127 46.1612 207.127 46.9292V69.9153C207.127 70.6833 207.601 71.1571 208.428 71.1571H213.928C214.756 71.1571 215.288 70.684 215.288 69.9153V55.6811C215.288 53.8479 216.707 52.4287 218.718 52.4287C221.32 52.4287 222.148 53.8486 222.148 55.6811V71.0561C222.148 71.8242 222.739 72.2979 223.567 72.2979H229.125C229.894 72.2979 230.367 71.8249 230.367 71.0561Z" fill="#0A3B63"/>
<path d="M205.08 62.3633V55.3263C205.08 48.6441 200.349 45.1552 193.371 45.1552C186.334 45.1552 181.721 49.4133 181.721 55.3263V62.7181C181.721 68.6312 186.393 72.6527 193.371 72.6527C199.994 72.6527 205.08 69.1638 205.08 62.3633V62.3633ZM196.86 62.3042C196.86 64.3731 195.5 65.4974 193.371 65.4974C191.242 65.4974 189.882 64.2556 189.882 62.3042V55.7402C189.882 53.7888 191.183 52.3696 193.312 52.3696C195.5 52.3696 196.86 53.5527 196.86 55.622V62.3042V62.3042Z" fill="#0A3B63"/>
<path d="M238.303 69.4651C237.841 69.4651 237.841 69.2705 237.841 68.9056V58.0071C237.841 57.6178 237.598 57.5449 237.257 57.5449H234.971C234.606 57.5449 234.387 57.6422 234.387 58.0071V71.9952C234.387 72.3601 234.606 72.579 234.971 72.579H243.558C243.899 72.579 244.02 72.3601 244.02 71.9952V69.976C244.02 69.5868 243.85 69.4651 243.558 69.4651H238.303ZM253.442 60.0506V58.1287C253.442 57.7395 253.32 57.5449 252.979 57.5449H243.638C243.249 57.5449 243.127 57.7638 243.127 58.1287V60.0506C243.127 60.4155 243.249 60.6344 243.638 60.6344H245.925C246.411 60.6344 246.435 60.8047 246.435 61.0966L246.411 72.0925C246.411 72.4574 246.654 72.579 246.995 72.579H249.257C249.647 72.579 249.866 72.4574 249.866 72.0925L249.914 61.0723C249.914 60.8047 250.011 60.6344 250.449 60.6344H252.979C253.369 60.6344 253.442 60.4155 253.442 60.0506Z" fill="#0A3B63"/>
<path d="M238.236 53.8242H233.953C234.002 53.4012 234.15 53.004 234.398 52.6324C234.648 52.2585 235.115 51.8181 235.8 51.311C236.218 51.0002 236.486 50.7642 236.603 50.6029C236.719 50.4417 236.778 50.2886 236.778 50.1437C236.778 49.9872 236.719 49.854 236.603 49.7442C236.488 49.632 236.343 49.5759 236.168 49.5759C235.986 49.5759 235.836 49.6332 235.719 49.7477C235.605 49.8622 235.528 50.0643 235.488 50.3541L234.058 50.2384C234.114 49.8365 234.217 49.5233 234.366 49.299C234.516 49.0723 234.726 48.8994 234.997 48.7802C235.271 48.6587 235.648 48.598 236.129 48.598C236.632 48.598 237.022 48.6552 237.3 48.7697C237.581 48.8842 237.8 49.0606 237.959 49.299C238.12 49.535 238.201 49.8002 238.201 50.0947C238.201 50.4078 238.109 50.7069 237.924 50.992C237.742 51.2771 237.409 51.5902 236.925 51.9314C236.638 52.13 236.445 52.2691 236.347 52.3485C236.251 52.428 236.138 52.5319 236.007 52.6605H238.236V53.8242ZM238.846 51.2339C238.846 50.2571 239.021 49.5736 239.372 49.1833C239.725 48.7931 240.261 48.598 240.981 48.598C241.326 48.598 241.61 48.6412 241.832 48.7276C242.054 48.8118 242.235 48.9228 242.376 49.0606C242.516 49.1962 242.626 49.3399 242.705 49.4918C242.787 49.6413 242.852 49.8166 242.901 50.0176C242.997 50.4008 243.045 50.8004 243.045 51.2163C243.045 52.1487 242.887 52.8311 242.572 53.2634C242.256 53.6957 241.713 53.9118 240.942 53.9118C240.51 53.9118 240.16 53.8429 239.894 53.705C239.628 53.5671 239.409 53.365 239.239 53.0986C239.115 52.9093 239.018 52.6511 238.948 52.324C238.88 51.9945 238.846 51.6311 238.846 51.2339ZM240.262 51.2374C240.262 51.8917 240.319 52.3392 240.434 52.5798C240.551 52.8182 240.719 52.9374 240.939 52.9374C241.083 52.9374 241.208 52.8871 241.314 52.7867C241.421 52.6838 241.499 52.5226 241.548 52.3029C241.6 52.0833 241.626 51.7409 241.626 51.2759C241.626 50.5936 241.567 50.1356 241.45 49.9019C241.336 49.6659 241.163 49.5479 240.932 49.5479C240.696 49.5479 240.525 49.6682 240.42 49.9089C240.315 50.1472 240.262 50.5901 240.262 51.2374ZM247.812 53.8242H243.529C243.578 53.4012 243.726 53.004 243.974 52.6324C244.224 52.2585 244.691 51.8181 245.376 51.311C245.794 51.0002 246.062 50.7642 246.179 50.6029C246.296 50.4417 246.354 50.2886 246.354 50.1437C246.354 49.9872 246.296 49.854 246.179 49.7442C246.064 49.632 245.919 49.5759 245.744 49.5759C245.562 49.5759 245.412 49.6332 245.295 49.7477C245.181 49.8622 245.104 50.0643 245.064 50.3541L243.634 50.2384C243.69 49.8365 243.793 49.5233 243.942 49.299C244.092 49.0723 244.302 48.8994 244.573 48.7802C244.847 48.6587 245.224 48.598 245.706 48.598C246.208 48.598 246.598 48.6552 246.876 48.7697C247.157 48.8842 247.376 49.0606 247.535 49.299C247.697 49.535 247.777 49.8002 247.777 50.0947C247.777 50.4078 247.685 50.7069 247.5 50.992C247.318 51.2771 246.985 51.5902 246.501 51.9314C246.214 52.13 246.021 52.2691 245.923 52.3485C245.827 52.428 245.714 52.5319 245.583 52.6605H247.812V53.8242ZM252.6 53.8242H248.317C248.366 53.4012 248.514 53.004 248.762 52.6324C249.012 52.2585 249.48 51.8181 250.164 51.311C250.582 51.0002 250.85 50.7642 250.967 50.6029C251.084 50.4417 251.142 50.2886 251.142 50.1437C251.142 49.9872 251.084 49.854 250.967 49.7442C250.852 49.632 250.707 49.5759 250.532 49.5759C250.35 49.5759 250.2 49.6332 250.084 49.7477C249.969 49.8622 249.892 50.0643 249.852 50.3541L248.422 50.2384C248.478 49.8365 248.581 49.5233 248.731 49.299C248.88 49.0723 249.09 48.8994 249.362 48.7802C249.635 48.6587 250.012 48.598 250.494 48.598C250.996 48.598 251.386 48.6552 251.664 48.7697C251.945 48.8842 252.164 49.0606 252.323 49.299C252.485 49.535 252.565 49.8002 252.565 50.0947C252.565 50.4078 252.473 50.7069 252.288 50.992C252.106 51.2771 251.773 51.5902 251.289 51.9314C251.002 52.13 250.809 52.2691 250.711 52.3485C250.615 52.428 250.502 52.5319 250.371 52.6605H252.6V53.8242Z" fill="#0A3B63"/>
</g>
<defs>
<clipPath id="clip0_206_5910">
<rect width="258" height="108" fill="white"/>
</clipPath>
</defs>
</svg>
