<svg xmlns="http://www.w3.org/2000/svg" xmlns:xlink="http://www.w3.org/1999/xlink" version="1.1" id="Layer_2" x="0px" y="0px" style="enable-background:new 0 0 1113.06 1080;" xml:space="preserve" viewBox="359 345.9 410.71 410.27">
  <style type="text/css">
    .st0 {
      fill: none;
    }

    .st1 {
      fill: #006A44;
    }

    .st2 {
      fill: #FDB913;
    }

    .st3 {
      fill: #C1272D;
    }
  </style>
  <g>
    <ellipse transform="matrix(0.9239 -0.3827 0.3827 0.9239 -112.9349 224.6993)" class="st0" cx="508.35" cy="396.23" rx="17.92" ry="17.92" />
    <path class="st1" d="M769.71,548.75c0-22.99-2.95-44.16-9.2-61.05h-83.8v9.96c0,29.55-27.95,58.5-57.5,58.5H517.36   c-0.22,0-4.43,0-4.65,0.01c-29.25,0.34-48.86,20.17-48.86,49.5c0,0.59,0.01,4.4,0.03,5.62h296.06   C766.58,594.16,769.71,572.42,769.71,548.75z" />
    <path class="st1" d="M452,599.41c0-29.55,23.95-53.5,53.5-53.5h105.85c0.22,0,0.43,0,0.65-0.01c29.25-0.34,52.86-24.17,52.86-53.5   c0-0.65-0.01-1.29-0.04-1.93v-2.77H370.01c-7.5,17.56-11.01,40.51-11.01,65.62c0,21.61,2.6,41.62,8.11,57.97H452V599.41z" />
    <path class="st2" d="M713.71,448.75h-37v38.95h83.8C751.74,464.01,736.47,448.75,713.71,448.75z" />
    <path class="st2" d="M664.82,401.9c0-39-44.77-56-100-56s-99.75,11.78-100,56v37H565v14.42H415c-21.27,0-35.99,13.32-44.99,34.38   h294.81V401.9z M508.35,414.15c-9.9,0-17.92-8.02-17.92-17.92s8.02-17.92,17.92-17.92c9.9,0,17.92,8.02,17.92,17.92   S518.25,414.15,508.35,414.15z" />
    <path class="st3" d="M463.89,700.17c0,39,44.77,56,100,56s99.75-11.78,100-56v-37H563.71v-14.42h150   c22.29,0,37.38-14.62,46.23-37.46H463.88c0,0.13,0.01,0.24,0.01,0.31V700.17z M620.35,687.92c9.9,0,17.92,8.02,17.92,17.92   s-8.02,17.92-17.92,17.92s-17.92-8.02-17.92-17.92S610.46,687.92,620.35,687.92z" />
    <path class="st3" d="M415,653.32h37v-42.03h-84.89C375.67,636.73,391.26,653.32,415,653.32z" />
  </g>
</svg>