<?xml version="1.0" encoding="UTF-8"?>
<svg width="130px" height="40px" viewBox="0 0 130 40" version="1.1" xmlns="http://www.w3.org/2000/svg" xmlns:xlink="http://www.w3.org/1999/xlink">
    <!-- Generator: Sketch 52.6 (67491) - http://www.bohemiancoding.com/sketch -->
    <title>logo-color</title>
    <desc>Created with Sketch.</desc>
    <defs>
        <polygon id="path-1" points="0 0 6.304 0 6.304 6.3018 0 6.3018"></polygon>
        <polygon id="path-3" points="0.5728 0 6.8768 0 6.8768 6.3018 0.5728 6.3018"></polygon>
        <polygon id="path-5" points="0.7627 0 7.0667 0 7.0667 6.3018 0.7627 6.3018"></polygon>
        <polygon id="path-7" points="0.7214 0.6962 15.4304 0.6962 15.4304 7 0.7214 7"></polygon>
    </defs>
    <g id="Symbols" stroke="none" stroke-width="1" fill="none" fill-rule="evenodd">
        <g id="logo/main">
            <g id="logo-color">
                <g id="Group-3">
                    <mask id="mask-2" fill="white">
                        <use xlink:href="#path-1"></use>
                    </mask>
                    <g id="Clip-2"></g>
                    <path d="M0,3.1508 C0,1.4108 1.411,-0.0002 3.152,-0.0002 C4.893,-0.0002 6.304,1.4108 6.304,3.1508 C6.304,4.8908 4.893,6.3018 3.152,6.3018 C1.411,6.3018 0,4.8908 0,3.1508" id="Fill-1" fill="#294A68" mask="url(#mask-2)"></path>
                </g>
                <path d="M8.4241,19.9989 C8.4241,18.2589 9.8351,16.8479 11.5761,16.8479 C13.3171,16.8479 14.7281,18.2589 14.7281,19.9989 C14.7281,21.7389 13.3171,23.1499 11.5761,23.1499 C9.8351,23.1499 8.4241,21.7389 8.4241,19.9989" id="Fill-4" fill="#294A68"></path>
                <path d="M1.1487,36.847 C1.1487,35.107 2.5597,33.696 4.3007,33.696 C6.0417,33.696 7.4527,35.107 7.4527,36.847 C7.4527,38.587 6.0417,39.998 4.3007,39.998 C2.5597,39.998 1.1487,38.587 1.1487,36.847" id="Fill-6" fill="#84B536"></path>
                <g id="Group-10" transform="translate(9.000000, 0.000000)">
                    <mask id="mask-4" fill="white">
                        <use xlink:href="#path-3"></use>
                    </mask>
                    <g id="Clip-9"></g>
                    <path d="M0.5728,3.1508 C0.5728,1.4108 1.9838,-0.0002 3.7248,-0.0002 C5.4658,-0.0002 6.8768,1.4108 6.8768,3.1508 C6.8768,4.8908 5.4658,6.3018 3.7248,6.3018 C1.9838,6.3018 0.5728,4.8908 0.5728,3.1508" id="Fill-8" fill="#294A68" mask="url(#mask-4)"></path>
                </g>
                <path d="M17.9968,19.9989 C17.9968,18.2589 19.4078,16.8479 21.1488,16.8479 C22.8898,16.8479 24.3008,18.2589 24.3008,19.9989 C24.3008,21.7389 22.8898,23.1499 21.1488,23.1499 C19.4078,23.1499 17.9968,21.7389 17.9968,19.9989" id="Fill-11" fill="#294A68"></path>
                <g id="Group-15" transform="translate(18.000000, 0.000000)">
                    <mask id="mask-6" fill="white">
                        <use xlink:href="#path-5"></use>
                    </mask>
                    <g id="Clip-14"></g>
                    <path d="M0.7627,3.1508 C0.7627,1.4108 2.1737,-0.0002 3.9147,-0.0002 C5.6557,-0.0002 7.0667,1.4108 7.0667,3.1508 C7.0667,4.8908 5.6557,6.3018 3.9147,6.3018 C2.1737,6.3018 0.7627,4.8908 0.7627,3.1508" id="Fill-13" fill="#5492BD" mask="url(#mask-6)"></path>
                </g>
                <path d="M22.9747,11.5748 C22.9747,9.8348 24.3857,8.4238 26.1257,8.4238 C27.8657,8.4238 29.2767,9.8348 29.2767,11.5748 C29.2767,13.3148 27.8657,14.7258 26.1257,14.7258 C24.3857,14.7258 22.9747,13.3148 22.9747,11.5748" id="Fill-16" fill="#294A68"></path>
                <path d="M27.1867,19.9989 C27.1867,18.2589 28.5977,16.8479 30.3387,16.8479 C32.0797,16.8479 33.4907,18.2589 33.4907,19.9989 C33.4907,21.7389 32.0797,23.1499 30.3387,23.1499 C28.5977,23.1499 27.1867,21.7389 27.1867,19.9989" id="Fill-18" fill="#84B536"></path>
                <path d="M22.9747,28.4229 C22.9747,26.6829 24.3857,25.2719 26.1267,25.2719 C27.8677,25.2719 29.2787,26.6829 29.2787,28.4229 C29.2787,30.1629 27.8677,31.5739 26.1267,31.5739 C24.3857,31.5739 22.9747,30.1629 22.9747,28.4229" id="Fill-20" fill="#294A68"></path>
                <path d="M8.5126,8.4241 L16.9176,8.4241 C18.6586,8.4241 20.0696,9.8351 20.0696,11.5761 C20.0696,13.3171 18.6586,14.7281 16.9176,14.7281 L8.5126,14.7281 C6.7716,14.7281 5.3606,13.3171 5.3606,11.5761 C5.3606,9.8351 6.7716,8.4241 8.5126,8.4241" id="Fill-22" fill="#F26457"></path>
                <g id="Group-26" transform="translate(10.000000, 33.000000)">
                    <mask id="mask-8" fill="white">
                        <use xlink:href="#path-7"></use>
                    </mask>
                    <g id="Clip-25"></g>
                    <path d="M3.8734,0.6962 L12.2784,0.6962 C14.0194,0.6962 15.4304,2.1072 15.4304,3.8482 C15.4304,5.5892 14.0194,7.0002 12.2784,7.0002 L3.8734,7.0002 C2.1324,7.0002 0.7214,5.5892 0.7214,3.8482 C0.7214,2.1072 2.1324,0.6962 3.8734,0.6962" id="Fill-24" fill="#294A68" mask="url(#mask-8)"></path>
                </g>
                <path d="M8.5126,25.2722 L16.9176,25.2722 C18.6586,25.2722 20.0696,26.6832 20.0696,28.4242 C20.0696,30.1652 18.6586,31.5762 16.9176,31.5762 L8.5126,31.5762 C6.7716,31.5762 5.3606,30.1652 5.3606,28.4242 C5.3606,26.6832 6.7716,25.2722 8.5126,25.2722" id="Fill-27" fill="#F4C132"></path>
                <polygon id="Fill-29" fill="#294A68" points="45.9487 27.9038 40.5507 11.8238 43.9957 11.8238 47.9237 24.1828 51.8297 11.8238 55.2977 11.8238 49.8767 27.9038"></polygon>
                <path d="M63.9829,21.0812 C63.6389,19.5192 62.4899,18.7612 61.1359,18.7612 C59.5499,18.7612 58.4699,19.6112 58.1259,21.0812 L63.9829,21.0812 Z M58.1709,23.3782 C58.5619,24.8262 59.6419,25.5372 61.4109,25.5372 C62.5369,25.5372 63.4089,25.1472 63.9829,24.3892 L66.3729,25.7672 C65.2469,27.3982 63.5699,28.2252 61.3639,28.2252 C59.4579,28.2252 57.9409,27.6512 56.7929,26.5022 C55.6439,25.3542 55.0699,23.9062 55.0699,22.1602 C55.0699,20.4382 55.6439,18.9912 56.7699,17.8422 C57.8959,16.6702 59.3659,16.0962 61.1359,16.0962 C62.8119,16.0962 64.2129,16.6702 65.2919,17.8422 C66.3959,19.0132 66.9469,20.4382 66.9469,22.1602 C66.9469,22.5512 66.9009,22.9412 66.8319,23.3782 L58.1709,23.3782 Z" id="Fill-31" fill="#294A68"></path>
                <path d="M72.324,18.3934 C72.876,16.9234 74.253,16.1884 75.816,16.1884 L75.816,19.4964 C74.92,19.3814 74.093,19.5654 73.381,20.0474 C72.668,20.5294 72.324,21.3114 72.324,22.4134 L72.324,27.9034 L69.361,27.9034 L69.361,16.4184 L72.324,16.4184 L72.324,18.3934 Z" id="Fill-33" fill="#294A68"></path>
                <path d="M82.3401,20.9436 C84.0161,21.2876 86.1991,22.0916 86.1761,24.5496 C86.1761,25.7216 85.7391,26.6406 84.8431,27.2836 C83.9711,27.9036 82.8681,28.2256 81.5581,28.2256 C79.1921,28.2256 77.5841,27.3066 76.7341,25.4916 L79.3081,24.0446 C79.6521,25.0326 80.3871,25.5376 81.5581,25.5376 C82.6151,25.5376 83.1441,25.2156 83.1441,24.5496 C83.1441,23.9296 82.2241,23.5846 81.0531,23.2866 C79.3531,22.8496 77.2171,22.1376 77.2171,19.7486 C77.2171,18.6236 77.6301,17.7276 78.4571,17.0836 C79.3081,16.4176 80.3411,16.0966 81.5811,16.0966 C83.4421,16.0966 85.0501,16.9686 85.9461,18.5306 L83.4191,19.9096 C83.0511,19.1286 82.4321,18.7386 81.5811,18.7386 C80.8231,18.7386 80.2491,19.1056 80.2491,19.6806 C80.2491,20.3006 81.1681,20.6446 82.3401,20.9436" id="Fill-35" fill="#294A68"></path>
                <path d="M93.8038,25.4001 C94.7238,25.4001 95.4818,25.1011 96.0778,24.5041 C96.6988,23.8841 96.9968,23.1021 96.9968,22.1611 C96.9968,21.2191 96.6988,20.4381 96.0778,19.8411 C95.4818,19.2201 94.7238,18.9221 93.8038,18.9221 C92.8848,18.9221 92.1278,19.2201 91.5308,19.8411 C90.9328,20.4381 90.6348,21.2191 90.6348,22.1611 C90.6348,23.1021 90.9328,23.8841 91.5308,24.5041 C92.1278,25.1011 92.8848,25.4001 93.8038,25.4001 Z M96.9968,16.4181 L99.9608,16.4181 L99.9608,27.9041 L96.9968,27.9041 L96.9968,26.5481 C96.1018,27.6741 94.8608,28.2251 93.2538,28.2251 C91.7138,28.2251 90.4048,27.6511 89.3018,26.4791 C88.2218,25.3081 87.6708,23.8611 87.6708,22.1611 C87.6708,20.4611 88.2218,19.0371 89.3018,17.8651 C90.4048,16.6941 91.7138,16.0961 93.2538,16.0961 C94.8608,16.0961 96.1018,16.6471 96.9968,17.7731 L96.9968,16.4181 Z" id="Fill-37" fill="#294A68"></path>
                <path d="M108.5308,25.4001 C109.4508,25.4001 110.2088,25.1011 110.8048,24.5041 C111.4038,23.8841 111.7008,23.1021 111.7008,22.1611 C111.7008,21.2191 111.4038,20.4381 110.8048,19.8411 C110.2088,19.2201 109.4508,18.9221 108.5308,18.9221 C107.6118,18.9221 106.8548,19.2201 106.2338,19.8411 C105.6368,20.4381 105.3378,21.2191 105.3378,22.1611 C105.3378,23.1021 105.6368,23.8841 106.2338,24.5041 C106.8548,25.1011 107.6118,25.4001 108.5308,25.4001 Z M111.7008,11.8231 L114.6638,11.8231 L114.6638,27.9041 L111.7008,27.9041 L111.7008,26.5481 C110.8288,27.6741 109.5878,28.2251 107.9808,28.2251 C106.4408,28.2251 105.1078,27.6511 104.0058,26.4791 C102.9268,25.3081 102.3748,23.8611 102.3748,22.1611 C102.3748,20.4611 102.9268,19.0371 104.0058,17.8651 C105.1078,16.6941 106.4408,16.0961 107.9808,16.0961 C109.5878,16.0961 110.8288,16.6471 111.7008,17.7731 L111.7008,11.8231 Z" id="Fill-39" fill="#294A68"></path>
                <path d="M123.2578,25.4001 C124.1778,25.4001 124.9358,25.1011 125.5318,24.5041 C126.1528,23.8841 126.4508,23.1021 126.4508,22.1611 C126.4508,21.2191 126.1528,20.4381 125.5318,19.8411 C124.9358,19.2201 124.1778,18.9221 123.2578,18.9221 C122.3388,18.9221 121.5818,19.2201 120.9848,19.8411 C120.3868,20.4381 120.0888,21.2191 120.0888,22.1611 C120.0888,23.1021 120.3868,23.8841 120.9848,24.5041 C121.5818,25.1011 122.3388,25.4001 123.2578,25.4001 Z M126.4508,16.4181 L129.4148,16.4181 L129.4148,27.9041 L126.4508,27.9041 L126.4508,26.5481 C125.5558,27.6741 124.3148,28.2251 122.7078,28.2251 C121.1678,28.2251 119.8588,27.6511 118.7558,26.4791 C117.6758,25.3081 117.1248,23.8611 117.1248,22.1611 C117.1248,20.4611 117.6758,19.0371 118.7558,17.8651 C119.8588,16.6941 121.1678,16.0961 122.7078,16.0961 C124.3148,16.0961 125.5558,16.6471 126.4508,17.7731 L126.4508,16.4181 Z" id="Fill-41" fill="#294A68"></path>
            </g>
        </g>
    </g>
</svg>