<svg width="187" height="183" viewBox="0 0 187 183" fill="none" xmlns="http://www.w3.org/2000/svg">
<path d="M93.0412 130.153C113.912 130.153 130.831 113.234 130.831 92.3633C130.831 71.4926 113.912 54.5735 93.0412 54.5735C72.1704 54.5735 55.2513 71.4926 55.2513 92.3633C55.2513 113.234 72.1704 130.153 93.0412 130.153Z" stroke="#124C7B" stroke-width="3.61181" stroke-miterlimit="2.61313" stroke-linecap="round" stroke-linejoin="round"/>
<path d="M174.111 99.2672C179.864 99.2672 184.528 94.6035 184.528 88.8504C184.528 83.0974 179.864 78.4336 174.111 78.4336C168.358 78.4336 163.694 83.0974 163.694 88.8504C163.694 94.6035 168.358 99.2672 174.111 99.2672Z" stroke="#124C7B" stroke-width="3.61181" stroke-miterlimit="2.61313" stroke-linecap="round" stroke-linejoin="round"/>
<path d="M130.796 90.7272L163.704 89.3008" stroke="#124C7B" stroke-width="3.61181" stroke-miterlimit="2.61313" stroke-linecap="round" stroke-linejoin="round"/>
<path d="M14.3969 125.112C20.8169 125.112 26.0214 120.068 26.0214 113.846C26.0214 107.624 20.8169 102.579 14.3969 102.579C7.97691 102.579 2.77246 107.624 2.77246 113.846C2.77246 120.068 7.97691 125.112 14.3969 125.112Z" stroke="#124C7B" stroke-width="3.61181" stroke-miterlimit="2.61313" stroke-linecap="round" stroke-linejoin="round"/>
<path d="M126.237 47.2483C134.762 47.2483 141.673 40.5504 141.673 32.2881C141.673 24.0258 134.762 17.3279 126.237 17.3279C117.712 17.3279 110.801 24.0258 110.801 32.2881C110.801 40.5504 117.712 47.2483 126.237 47.2483Z" stroke="#124C7B" stroke-width="3.61181" stroke-miterlimit="2.61313" stroke-linecap="round" stroke-linejoin="round"/>
<path d="M59.6327 176.213C69.5065 176.213 77.5108 168.455 77.5108 158.885C77.5108 149.316 69.5065 141.558 59.6327 141.558C49.7589 141.558 41.7547 149.316 41.7547 158.885C41.7547 168.455 49.7589 176.213 59.6327 176.213Z" stroke="#124C7B" stroke-width="3.61181" stroke-miterlimit="2.61313" stroke-linecap="round" stroke-linejoin="round"/>
<path d="M157.365 181.053C171.899 181.053 183.681 169.634 183.681 155.548C183.681 141.461 171.899 130.042 157.365 130.042C142.831 130.042 131.049 141.461 131.049 155.548C131.049 169.634 142.831 181.053 157.365 181.053Z" stroke="#124C7B" stroke-width="3.61181" stroke-miterlimit="2.61313" stroke-linecap="round" stroke-linejoin="round"/>
<path d="M30.1278 56.5231C45.6624 56.5231 58.2557 44.3176 58.2557 29.2615C58.2557 14.2054 45.6624 2 30.1278 2C14.5933 2 2 14.2054 2 29.2615C2 44.3176 14.5933 56.5231 30.1278 56.5231Z" stroke="#124C7B" stroke-width="3.61181" stroke-miterlimit="2.61313" stroke-linecap="round" stroke-linejoin="round"/>
<path d="M111.32 59.2843L118.948 45.4783" stroke="#124C7B" stroke-width="3.61181" stroke-miterlimit="2.61313" stroke-linecap="round" stroke-linejoin="round"/>
<path d="M66.3595 65.6033L49.6719 48.8657" stroke="#124C7B" stroke-width="3.61181" stroke-miterlimit="2.61313" stroke-linecap="round" stroke-linejoin="round"/>
<path d="M56.5803 102.323L25.5879 110.789" stroke="#124C7B" stroke-width="3.61181" stroke-miterlimit="2.61313" stroke-linecap="round" stroke-linejoin="round"/>
<path d="M76.0784 126.14L67.4583 143.304" stroke="#124C7B" stroke-width="3.61181" stroke-miterlimit="2.61313" stroke-linecap="round" stroke-linejoin="round"/>
<path d="M119.998 118.844L138.883 137.395" stroke="#124C7B" stroke-width="3.61181" stroke-miterlimit="2.61313" stroke-linecap="round" stroke-linejoin="round"/>
<path fill-rule="evenodd" clip-rule="evenodd" d="M29.4374 16.1228H26.9713H25.1636C16.4027 16.1228 9.23471 23.2908 9.23471 32.0518V47.5127C14.3829 53.0448 21.8359 56.5231 30.1277 56.5231C30.252 56.5231 30.3755 56.5199 30.4993 56.5185V37.002H40.5812C46.3231 37.002 51.0206 32.3042 51.0206 26.5623C51.0206 20.8204 46.3231 16.1228 40.5812 16.1228H29.4374V16.1228Z" stroke="#124C7B" stroke-width="3.61181" stroke-miterlimit="2.61313" stroke-linecap="round" stroke-linejoin="round"/>
<path fill-rule="evenodd" clip-rule="evenodd" d="M40.9868 20.7363C42.253 20.7363 43.2797 21.7631 43.2797 23.0294C43.2797 24.2957 42.253 25.3225 40.9868 25.3225C39.7203 25.3225 38.6936 24.2957 38.6936 23.0294C38.6936 21.7631 39.7203 20.7363 40.9868 20.7363V20.7363Z" stroke="#124C7B" stroke-width="3.61181" stroke-miterlimit="2.61313" stroke-linecap="round" stroke-linejoin="round"/>
<path fill-rule="evenodd" clip-rule="evenodd" d="M158.055 143.927H160.521H162.329C171.09 143.927 178.258 151.095 178.258 159.856V171.057C173.448 177.135 165.88 181.055 157.365 181.055C157.241 181.055 157.117 181.052 156.994 181.051V164.806H146.912C141.17 164.806 136.472 160.109 136.472 154.367C136.472 148.625 141.17 143.927 146.912 143.927H158.055Z" stroke="#124C7B" stroke-width="3.61181" stroke-miterlimit="2.61313" stroke-linecap="round" stroke-linejoin="round"/>
<path fill-rule="evenodd" clip-rule="evenodd" d="M146.506 148.541C145.24 148.541 144.213 149.567 144.213 150.834C144.213 152.1 145.24 153.126 146.506 153.126C147.773 153.126 148.799 152.1 148.799 150.834C148.799 149.567 147.773 148.541 146.506 148.541Z" stroke="#124C7B" stroke-width="3.61181" stroke-miterlimit="2.61313" stroke-linecap="round" stroke-linejoin="round"/>
<path fill-rule="evenodd" clip-rule="evenodd" d="M93.9696 73.9355H97.2874H99.7196C111.506 73.9355 121.15 83.579 121.15 95.3662V117.618C114.232 125.312 104.202 130.153 93.0409 130.153C92.8738 130.153 92.7076 130.148 92.541 130.146V102.026H78.9768C71.2518 102.026 64.9316 95.706 64.9316 87.9807C64.9316 80.2557 71.2518 73.9355 78.9768 73.9355H93.9696Z" stroke="#124C7B" stroke-width="3.61181" stroke-miterlimit="2.61313" stroke-linecap="round" stroke-linejoin="round"/>
<path fill-rule="evenodd" clip-rule="evenodd" d="M78.4313 80.1433C76.7274 80.1433 75.3462 81.5246 75.3462 83.2285C75.3462 84.9323 76.7274 86.3135 78.4313 86.3135C80.135 86.3135 81.5162 84.9323 81.5162 83.2285C81.5162 81.5246 80.135 80.1433 78.4313 80.1433Z" stroke="#124C7B" stroke-width="3.61181" stroke-miterlimit="2.61313" stroke-linecap="round" stroke-linejoin="round"/>
</svg>
