<svg width="250" height="250" viewBox="0 0 250 250" fill="none" xmlns="http://www.w3.org/2000/svg">
<g clip-path="url(#clip0_206_5937)">
<g filter="url(#filter0_f_206_5937)">
<rect x="41" y="42" width="166" height="166" rx="5" fill="#458DC7" fill-opacity="0.1"/>
</g>
<path d="M166.066 77.2732L162.916 84.5784L166.066 77.2732ZM166.066 77.2732L168.967 84.7903L166.066 77.2732ZM47.887 54.0088H111.575L109.239 59.2636L124.949 78.6616L149.875 77.3271L155.67 64.2909L130.744 65.6254L121.336 54.0088H121.372L130.744 65.6254L166.228 63.6593L166.066 77.2732L166.228 63.6593L158.442 54.0088H197.279C201.617 54.0088 205.166 57.5579 205.166 61.8958V111.178C200.741 105.741 192.99 102.136 184.167 102.136C170.41 102.136 159.259 110.898 159.259 121.707C159.259 124.01 159.767 126.219 160.697 128.272V141.763L166.758 135.702C171.248 139.151 177.391 141.277 184.167 141.277C192.99 141.277 200.741 137.672 205.166 132.235V171.932C205.166 176.27 201.617 179.819 197.279 179.819H47.887C43.5491 179.819 40 176.27 40 171.932V61.8958C40 57.5579 43.5491 54.0088 47.887 54.0088V54.0088ZM100.155 123.455V138.275L92.3426 130.462C87.3472 133.457 81.1087 135.236 74.3404 135.236C57.9312 135.236 44.629 124.784 44.629 111.891C44.629 98.998 57.9312 88.5464 74.3404 88.5464C90.7496 88.5464 104.052 98.998 104.052 111.891C104.052 116.099 102.634 120.046 100.155 123.455Z" stroke="#124C7B" stroke-width="3.61181" stroke-miterlimit="2.61313" stroke-linecap="round" stroke-linejoin="round"/>
<path fill-rule="evenodd" clip-rule="evenodd" d="M205.166 157.479V171.932C205.166 176.27 201.617 179.819 197.279 179.819H47.887C43.5491 179.819 40 176.27 40 171.932V157.479H205.166Z" stroke="#124C7B" stroke-width="3.61181" stroke-miterlimit="2.61313" stroke-linecap="round" stroke-linejoin="round"/>
<path fill-rule="evenodd" clip-rule="evenodd" d="M53.6599 66.2716H89.5474C87.9022 68.7445 86.9406 71.7067 86.9406 74.8829C86.9406 83.4744 93.9694 90.5031 102.56 90.5031H117.646V157.471L118.201 157.478H50.5051V125.829C55.9216 131.538 64.5813 135.235 74.3405 135.235C81.1088 135.235 87.3473 133.456 92.3427 130.462L100.155 138.274V123.455C102.634 120.046 104.052 116.098 104.052 111.89C104.052 98.9974 90.7497 88.5457 74.3405 88.5457C64.5813 88.5457 55.9216 92.243 50.5051 97.9516V69.4264C50.5051 67.6913 51.9248 66.2716 53.6599 66.2716V66.2716ZM154.79 66.2716H191.507C193.242 66.2716 194.661 67.6913 194.661 69.4264V103.954C191.472 102.788 187.916 102.135 184.167 102.135C170.41 102.135 159.259 110.897 159.259 121.706C159.259 124.009 159.767 126.219 160.697 128.271V141.762L166.758 135.701C171.248 139.15 177.391 141.276 184.167 141.276C187.916 141.276 191.472 140.624 194.661 139.458V157.478H149.462V83.0964C149.462 81.1299 149.221 79.2171 148.766 77.3859L149.875 77.3265L154.79 66.2716V66.2716Z" stroke="#124C7B" stroke-width="3.61181" stroke-miterlimit="2.61313" stroke-linecap="round" stroke-linejoin="round"/>
<path d="M157.349 201.508H87.8174C83.4615 201.508 79.9304 204.501 79.9304 208.194C79.9304 211.886 83.4615 214.88 87.8174 214.88H157.349C161.704 214.88 165.236 211.886 165.236 208.194C165.236 204.501 161.704 201.508 157.349 201.508Z" stroke="#124C7B" stroke-width="3.61181" stroke-miterlimit="2.61313" stroke-linecap="round" stroke-linejoin="round"/>
<path fill-rule="evenodd" clip-rule="evenodd" d="M101.59 179.819H105.195H139.972H143.577L146.565 201.508H136.984H108.183H98.6021L101.59 179.819Z" stroke="#124C7B" stroke-width="3.61181" stroke-miterlimit="2.61313" stroke-linecap="round" stroke-linejoin="round"/>
<path d="M126.216 166.298H118.95C114.594 166.298 111.063 167.35 111.063 168.648C111.063 169.946 114.594 170.998 118.95 170.998H126.216C130.572 170.998 134.103 169.946 134.103 168.648C134.103 167.35 130.572 166.298 126.216 166.298Z" stroke="#124C7B" stroke-width="3.61181" stroke-miterlimit="2.61313" stroke-linecap="round" stroke-linejoin="round"/>
<path fill-rule="evenodd" clip-rule="evenodd" d="M124.949 78.6626L148.766 77.3876C149.22 79.2188 149.462 81.1314 149.462 83.0981V157.48H118.202L117.646 157.473V90.5048H102.561C93.9694 90.5048 86.9407 83.4761 86.9407 74.8846C86.9407 66.2935 93.9694 59.2646 102.561 59.2646H109.24L124.949 78.6626V78.6626Z" stroke="#124C7B" stroke-width="3.61181" stroke-miterlimit="2.61313" stroke-linecap="round" stroke-linejoin="round"/>
<path fill-rule="evenodd" clip-rule="evenodd" d="M101.954 66.1684C100.059 66.1684 98.5227 67.7045 98.5227 69.5994C98.5227 71.4942 100.059 73.0302 101.954 73.0302C103.848 73.0302 105.385 71.4942 105.385 69.5994C105.385 67.7045 103.848 66.1684 101.954 66.1684Z" stroke="#124C7B" stroke-width="3.61181" stroke-miterlimit="2.61313" stroke-linecap="round" stroke-linejoin="round"/>
<path d="M130.744 65.6258L115.034 46.2278L109.24 59.2641L124.949 78.662L130.744 65.6258Z" stroke="#124C7B" stroke-width="3.61181" stroke-miterlimit="2.61313" stroke-linecap="round" stroke-linejoin="round"/>
<path d="M130.744 65.625L155.67 64.2905L149.875 77.3267L124.949 78.6612L130.744 65.625Z" stroke="#124C7B" stroke-width="3.61181" stroke-miterlimit="2.61313" stroke-linecap="round" stroke-linejoin="round"/>
<path d="M143.913 36L108.429 37.9661L130.744 65.6249L166.228 63.6588L143.913 36Z" stroke="#124C7B" stroke-width="3.61181" stroke-miterlimit="2.61313" stroke-linecap="round" stroke-linejoin="round"/>
<path d="M162.916 84.5781L166.066 77.2729L166.228 63.659L137.722 50.9873" stroke="#124C7B" stroke-width="3.61181" stroke-miterlimit="2.61313" stroke-linecap="round" stroke-linejoin="round"/>
<path d="M168.967 84.7911L166.065 77.274" stroke="#124C7B" stroke-width="3.61181" stroke-miterlimit="2.61313" stroke-linecap="round" stroke-linejoin="round"/>
<path fill-rule="evenodd" clip-rule="evenodd" d="M184.167 102.136C197.923 102.136 209.074 110.898 209.074 121.706C209.074 132.515 197.923 141.277 184.167 141.277C177.391 141.277 171.248 139.15 166.758 135.701L160.697 141.763V128.271C159.767 126.219 159.259 124.01 159.259 121.706C159.259 110.898 170.41 102.136 184.167 102.136V102.136Z" stroke="#124C7B" stroke-width="3.61181" stroke-miterlimit="2.61313" stroke-linecap="round" stroke-linejoin="round"/>
<path fill-rule="evenodd" clip-rule="evenodd" d="M100.155 123.456V138.275L92.3424 130.463C87.3469 133.457 81.1085 135.236 74.3402 135.236C57.931 135.236 44.6288 124.785 44.6288 111.891C44.6288 98.9985 57.931 88.5468 74.3402 88.5468C90.7494 88.5468 104.052 98.9985 104.052 111.891C104.052 116.099 102.634 120.047 100.155 123.456Z" stroke="#124C7B" stroke-width="3.61181" stroke-miterlimit="2.61313" stroke-linecap="round" stroke-linejoin="round"/>
</g>
<defs>
<filter id="filter0_f_206_5937" x="-9" y="-8" width="266" height="266" filterUnits="userSpaceOnUse" color-interpolation-filters="sRGB">
<feFlood flood-opacity="0" result="BackgroundImageFix"/>
<feBlend mode="normal" in="SourceGraphic" in2="BackgroundImageFix" result="shape"/>
<feGaussianBlur stdDeviation="25" result="effect1_foregroundBlur_206_5937"/>
</filter>
<clipPath id="clip0_206_5937">
<rect width="250" height="250" fill="white"/>
</clipPath>
</defs>
</svg>
