<svg width="250" height="250" viewBox="0 0 250 250" fill="none" xmlns="http://www.w3.org/2000/svg">
<g clip-path="url(#clip0_206_5964)">
<g filter="url(#filter0_f_206_5964)">
<rect x="42" y="42" width="166" height="166" rx="5" fill="#458DC7" fill-opacity="0.1"/>
</g>
<path fill-rule="evenodd" clip-rule="evenodd" d="M88.3433 43H157.266C161.053 43 164.151 46.098 164.151 49.8844V103.494C164.151 107.28 161.053 110.378 157.266 110.378H131.955L124.752 117.581C123.681 118.652 121.929 118.652 120.858 117.581L113.655 110.378H88.3433C84.5569 110.378 81.4589 107.28 81.4589 103.494V49.8844C81.4589 46.098 84.5569 43 88.3433 43Z" stroke="#124C7B" stroke-width="3.61181" stroke-miterlimit="2.61313" stroke-linecap="round" stroke-linejoin="round"/>
<path fill-rule="evenodd" clip-rule="evenodd" d="M121.503 59.4248C115.188 52.3001 104.337 53.7348 100.151 62.2669C96.9969 68.6975 100.28 75.1744 104.144 80.1765C105.092 81.404 105.995 82.3153 106.951 83.411C107.923 84.5254 108.84 85.4783 109.917 86.488C112.44 88.8524 120.787 96.2232 122.826 97.7052C123.964 96.9221 125.011 95.8262 126.164 94.9054C129.533 92.2147 136.119 86.4194 138.778 83.3409C141.574 80.1032 144.528 77.0608 145.973 72.4099C150.695 57.2173 131.867 48.5839 123.455 60.3534L122.826 61.2592L121.503 59.4248V59.4248Z" stroke="#124C7B" stroke-width="3.61181" stroke-miterlimit="2.61313"/>
<path d="M124.745 130.116C121.509 130.131 118.418 130.407 115.698 130.888C107.685 132.304 106.231 135.266 106.231 140.73V150.351H125.165H106.231H99.1253C93.6227 150.351 88.8042 153.659 87.2972 159.951C85.5589 167.163 85.4817 171.663 87.2972 179.193C88.643 184.799 91.8573 188.793 97.36 188.793H103.87V180.142C103.87 173.893 109.277 168.38 115.698 168.38H134.609C139.874 168.38 144.076 164.046 144.076 158.759V140.73C144.076 135.599 139.748 131.744 134.609 130.888C131.357 130.347 127.982 130.101 124.745 130.116V130.116ZM114.506 135.92C116.462 135.92 118.059 137.543 118.059 139.539C118.059 141.527 116.462 143.135 114.506 143.135C112.544 143.135 110.953 141.527 110.953 139.539C110.953 137.543 112.544 135.92 114.506 135.92Z" stroke="#124C7B" stroke-width="3.61181" stroke-miterlimit="2.61313" stroke-linejoin="round"/>
<path d="M103.869 189.093V196.031C103.869 201.162 108.331 204.18 113.336 205.652C119.33 207.414 125.077 207.733 132.248 205.652C137.014 204.272 141.715 201.495 141.715 196.031V186.409M141.715 186.409H122.803M141.715 186.409H151.182C156.684 186.409 158.735 182.571 160.648 176.81C162.625 170.879 162.541 165.176 160.648 157.568C159.289 152.09 156.691 147.968 151.182 147.968H144.076M133.439 193.625C135.402 193.625 136.992 195.234 136.992 197.222C136.992 199.218 135.402 200.841 133.439 200.841C131.484 200.841 129.887 199.218 129.887 197.222C129.887 195.234 131.484 193.625 133.439 193.625Z" stroke="#124C7B" stroke-width="3.61181" stroke-miterlimit="2.61313" stroke-linejoin="round"/>
<path fill-rule="evenodd" clip-rule="evenodd" d="M187.181 45.4213L212.699 58.0023C214.1 58.6935 214.682 60.4059 213.991 61.8078L204.205 81.6558C203.514 83.0577 201.801 83.6391 200.399 82.948L191.028 78.3277L187.047 79.6795C186.455 79.8806 185.806 79.5607 185.605 78.9687L184.253 74.9872L174.882 70.3669C173.48 69.6757 172.898 67.9632 173.59 66.5614L183.376 46.7133C184.067 45.3115 185.779 44.7301 187.181 45.4213V45.4213Z" stroke="#124C7B" stroke-width="3.61181" stroke-miterlimit="2.61313" stroke-linecap="round" stroke-linejoin="round"/>
<path fill-rule="evenodd" clip-rule="evenodd" d="M196.604 57.9688C195.695 54.6471 191.945 53.3768 189.222 55.4756C187.17 57.0572 187.199 59.6839 187.652 61.9248C187.764 62.4746 187.911 62.9149 188.046 63.4233C188.183 63.9404 188.328 64.3961 188.516 64.8961C188.956 66.0667 190.485 69.7934 190.91 70.6003C191.404 70.5282 191.919 70.3402 192.441 70.226C193.964 69.8919 197.028 69.065 198.383 68.4916C199.808 67.8884 201.253 67.3739 202.466 66.0962C206.428 61.9224 201.701 56.1094 197.089 58.5822L196.74 58.7756L196.604 57.9688V57.9688Z" stroke="#124C7B" stroke-width="3.61181" stroke-miterlimit="2.61313"/>
<path fill-rule="evenodd" clip-rule="evenodd" d="M164.151 89.2219L202.317 102.978C204.593 103.798 205.784 106.331 204.963 108.607L193.349 140.832C192.529 143.108 189.995 144.299 187.719 143.478L172.505 137.995L166.615 140.764C165.739 141.176 164.685 140.796 164.274 139.92L161.505 134.03L146.29 128.546C144.014 127.726 142.823 125.193 143.643 122.917L148.163 110.377H157.267C161.053 110.377 164.151 107.279 164.151 103.493V89.2219V89.2219Z" stroke="#124C7B" stroke-width="3.61181" stroke-miterlimit="2.61313" stroke-linecap="round" stroke-linejoin="round"/>
<path fill-rule="evenodd" clip-rule="evenodd" d="M177.555 105.713C175.581 100.761 169.593 99.4568 165.769 103.156C162.886 105.945 163.386 109.98 164.471 113.348C164.738 114.175 165.04 114.826 165.336 115.585C165.636 116.357 165.938 117.033 166.314 117.769C167.194 119.493 170.192 124.961 170.984 126.128C171.732 125.932 172.492 125.554 173.274 125.288C175.56 124.51 180.129 122.707 182.114 121.591C184.202 120.416 186.335 119.374 187.98 117.199C193.351 110.092 185.072 101.97 178.407 106.573L177.903 106.93L177.555 105.713Z" stroke="#124C7B" stroke-width="3.61181" stroke-miterlimit="2.61313"/>
<path fill-rule="evenodd" clip-rule="evenodd" d="M81.4589 87.9398L39.4683 98.9524C36.9955 99.6008 35.5032 102.154 36.1516 104.627L45.3327 139.635C45.9812 142.107 48.5348 143.6 51.0074 142.951L67.536 138.616L73.473 142.086C74.3559 142.602 75.5003 142.302 76.0161 141.419L79.486 135.482L96.0148 131.147C98.4874 130.499 99.9797 127.945 99.3313 125.473L95.3726 110.379H88.3433C84.5569 110.379 81.4589 107.281 81.4589 103.494V87.9398Z" stroke="#124C7B" stroke-width="3.61181" stroke-miterlimit="2.61313" stroke-linecap="round" stroke-linejoin="round"/>
<path fill-rule="evenodd" clip-rule="evenodd" d="M65.2677 104.169C67.8122 99.144 74.2372 98.3363 77.9129 102.591C80.6831 105.797 79.7762 109.996 78.3162 113.439C77.9578 114.283 77.5778 114.94 77.1952 115.711C76.806 116.494 76.4246 117.177 75.9596 117.917C74.8705 119.648 71.2001 125.119 70.256 126.273C69.4874 125.996 68.7236 125.526 67.9256 125.172C65.5936 124.138 60.9552 121.81 58.9718 120.447C56.8857 119.014 54.7389 117.716 53.2137 115.272C48.2313 107.287 57.7104 99.5205 64.2905 104.993L64.7862 105.417L65.2677 104.169V104.169Z" stroke="#124C7B" stroke-width="3.61181" stroke-miterlimit="2.61313"/>
</g>
<defs>
<filter id="filter0_f_206_5964" x="-8" y="-8" width="266" height="266" filterUnits="userSpaceOnUse" color-interpolation-filters="sRGB">
<feFlood flood-opacity="0" result="BackgroundImageFix"/>
<feBlend mode="normal" in="SourceGraphic" in2="BackgroundImageFix" result="shape"/>
<feGaussianBlur stdDeviation="25" result="effect1_foregroundBlur_206_5964"/>
</filter>
<clipPath id="clip0_206_5964">
<rect width="250" height="250" fill="white"/>
</clipPath>
</defs>
</svg>
