<svg width="250" height="250" viewBox="0 0 250 250" fill="none" xmlns="http://www.w3.org/2000/svg">
<g clip-path="url(#clip0_206_5936)">
<g filter="url(#filter0_f_206_5936)">
<rect x="42" y="42" width="166" height="166" rx="5" fill="#458DC7" fill-opacity="0.1"/>
</g>
<path d="M125.041 163.153C145.912 163.153 162.831 146.234 162.831 125.363C162.831 104.493 145.912 87.5735 125.041 87.5735C104.17 87.5735 87.2513 104.493 87.2513 125.363C87.2513 146.234 104.17 163.153 125.041 163.153Z" stroke="#124C7B" stroke-width="3.61181" stroke-miterlimit="2.61313" stroke-linecap="round" stroke-linejoin="round"/>
<path d="M206.111 132.267C211.864 132.267 216.528 127.604 216.528 121.85C216.528 116.097 211.864 111.434 206.111 111.434C200.358 111.434 195.694 116.097 195.694 121.85C195.694 127.604 200.358 132.267 206.111 132.267Z" stroke="#124C7B" stroke-width="3.61181" stroke-miterlimit="2.61313" stroke-linecap="round" stroke-linejoin="round"/>
<path d="M162.796 123.727L195.704 122.301" stroke="#124C7B" stroke-width="3.61181" stroke-miterlimit="2.61313" stroke-linecap="round" stroke-linejoin="round"/>
<path d="M46.3969 158.113C52.8169 158.113 58.0214 153.068 58.0214 146.846C58.0214 140.624 52.8169 135.579 46.3969 135.579C39.9769 135.579 34.7725 140.624 34.7725 146.846C34.7725 153.068 39.9769 158.113 46.3969 158.113Z" stroke="#124C7B" stroke-width="3.61181" stroke-miterlimit="2.61313" stroke-linecap="round" stroke-linejoin="round"/>
<path d="M158.237 80.2483C166.762 80.2483 173.673 73.5504 173.673 65.2881C173.673 57.0258 166.762 50.3279 158.237 50.3279C149.712 50.3279 142.801 57.0258 142.801 65.2881C142.801 73.5504 149.712 80.2483 158.237 80.2483Z" stroke="#124C7B" stroke-width="3.61181" stroke-miterlimit="2.61313" stroke-linecap="round" stroke-linejoin="round"/>
<path d="M91.6327 209.213C101.506 209.213 109.511 201.455 109.511 191.885C109.511 182.316 101.506 174.558 91.6327 174.558C81.7589 174.558 73.7546 182.316 73.7546 191.885C73.7546 201.455 81.7589 209.213 91.6327 209.213Z" stroke="#124C7B" stroke-width="3.61181" stroke-miterlimit="2.61313" stroke-linecap="round" stroke-linejoin="round"/>
<path d="M189.365 214.053C203.899 214.053 215.681 202.634 215.681 188.548C215.681 174.461 203.899 163.042 189.365 163.042C174.831 163.042 163.049 174.461 163.049 188.548C163.049 202.634 174.831 214.053 189.365 214.053Z" stroke="#124C7B" stroke-width="3.61181" stroke-miterlimit="2.61313" stroke-linecap="round" stroke-linejoin="round"/>
<path d="M62.1278 89.5231C77.6624 89.5231 90.2557 77.3176 90.2557 62.2615C90.2557 47.2054 77.6624 35 62.1278 35C46.5933 35 34 47.2054 34 62.2615C34 77.3176 46.5933 89.5231 62.1278 89.5231Z" stroke="#124C7B" stroke-width="3.61181" stroke-miterlimit="2.61313" stroke-linecap="round" stroke-linejoin="round"/>
<path d="M143.32 92.2844L150.948 78.4784" stroke="#124C7B" stroke-width="3.61181" stroke-miterlimit="2.61313" stroke-linecap="round" stroke-linejoin="round"/>
<path d="M98.3595 98.6033L81.6719 81.8657" stroke="#124C7B" stroke-width="3.61181" stroke-miterlimit="2.61313" stroke-linecap="round" stroke-linejoin="round"/>
<path d="M88.5803 135.323L57.5879 143.789" stroke="#124C7B" stroke-width="3.61181" stroke-miterlimit="2.61313" stroke-linecap="round" stroke-linejoin="round"/>
<path d="M108.078 159.14L99.4583 176.304" stroke="#124C7B" stroke-width="3.61181" stroke-miterlimit="2.61313" stroke-linecap="round" stroke-linejoin="round"/>
<path d="M151.998 151.845L170.883 170.395" stroke="#124C7B" stroke-width="3.61181" stroke-miterlimit="2.61313" stroke-linecap="round" stroke-linejoin="round"/>
<path fill-rule="evenodd" clip-rule="evenodd" d="M61.4374 49.1228H58.9713H57.1636C48.4027 49.1228 41.2347 56.2908 41.2347 65.0518V80.5127C46.3829 86.0448 53.8359 89.5231 62.1277 89.5231C62.252 89.5231 62.3755 89.5199 62.4993 89.5185V70.002H72.5813C78.3231 70.002 83.0206 65.3042 83.0206 59.5623C83.0206 53.8204 78.3231 49.1228 72.5813 49.1228H61.4374V49.1228Z" stroke="#124C7B" stroke-width="3.61181" stroke-miterlimit="2.61313" stroke-linecap="round" stroke-linejoin="round"/>
<path fill-rule="evenodd" clip-rule="evenodd" d="M72.9868 53.7363C74.253 53.7363 75.2797 54.7631 75.2797 56.0294C75.2797 57.2957 74.253 58.3225 72.9868 58.3225C71.7203 58.3225 70.6936 57.2957 70.6936 56.0294C70.6936 54.7631 71.7203 53.7363 72.9868 53.7363V53.7363Z" stroke="#124C7B" stroke-width="3.61181" stroke-miterlimit="2.61313" stroke-linecap="round" stroke-linejoin="round"/>
<path fill-rule="evenodd" clip-rule="evenodd" d="M190.055 176.927H192.521H194.329C203.09 176.927 210.258 184.095 210.258 192.856V204.057C205.448 210.135 197.88 214.055 189.365 214.055C189.241 214.055 189.117 214.052 188.994 214.051V197.806H178.912C173.17 197.806 168.472 193.109 168.472 187.367C168.472 181.625 173.17 176.927 178.912 176.927H190.055Z" stroke="#124C7B" stroke-width="3.61181" stroke-miterlimit="2.61313" stroke-linecap="round" stroke-linejoin="round"/>
<path fill-rule="evenodd" clip-rule="evenodd" d="M178.506 181.541C177.24 181.541 176.213 182.567 176.213 183.834C176.213 185.1 177.24 186.127 178.506 186.127C179.773 186.127 180.799 185.1 180.799 183.834C180.799 182.567 179.773 181.541 178.506 181.541Z" stroke="#124C7B" stroke-width="3.61181" stroke-miterlimit="2.61313" stroke-linecap="round" stroke-linejoin="round"/>
<path fill-rule="evenodd" clip-rule="evenodd" d="M125.97 106.936H129.287H131.72C143.506 106.936 153.15 116.579 153.15 128.366V150.618C146.232 158.312 136.202 163.153 125.041 163.153C124.874 163.153 124.708 163.148 124.541 163.146V135.026H110.977C103.252 135.026 96.9316 128.706 96.9316 120.981C96.9316 113.256 103.252 106.936 110.977 106.936H125.97Z" stroke="#124C7B" stroke-width="3.61181" stroke-miterlimit="2.61313" stroke-linecap="round" stroke-linejoin="round"/>
<path fill-rule="evenodd" clip-rule="evenodd" d="M110.431 113.143C108.727 113.143 107.346 114.525 107.346 116.229C107.346 117.932 108.727 119.314 110.431 119.314C112.135 119.314 113.516 117.932 113.516 116.229C113.516 114.525 112.135 113.143 110.431 113.143Z" stroke="#124C7B" stroke-width="3.61181" stroke-miterlimit="2.61313" stroke-linecap="round" stroke-linejoin="round"/>
</g>
<defs>
<filter id="filter0_f_206_5936" x="-8" y="-8" width="266" height="266" filterUnits="userSpaceOnUse" color-interpolation-filters="sRGB">
<feFlood flood-opacity="0" result="BackgroundImageFix"/>
<feBlend mode="normal" in="SourceGraphic" in2="BackgroundImageFix" result="shape"/>
<feGaussianBlur stdDeviation="25" result="effect1_foregroundBlur_206_5936"/>
</filter>
<clipPath id="clip0_206_5936">
<rect width="250" height="250" fill="white"/>
</clipPath>
</defs>
</svg>
