<svg width="181" height="191" viewBox="0 0 181 191" fill="none" xmlns="http://www.w3.org/2000/svg">
<g filter="url(#filter0_d_113_1271)">
<path d="M132.066 43.2732L128.916 50.5784L132.066 43.2732ZM132.066 43.2732L134.967 50.7903L132.066 43.2732ZM13.887 20.0088H77.5752L75.2394 25.2636L90.9493 44.6616L115.875 43.3271L121.67 30.2909L96.7442 31.6254L87.3363 20.0088H87.3721L96.7442 31.6254L132.228 29.6593L132.066 43.2732L132.228 29.6593L124.442 20.0088H163.279C167.617 20.0088 171.166 23.5579 171.166 27.8958V77.1781C166.741 71.7408 158.99 68.136 150.167 68.136C136.41 68.136 125.259 76.8979 125.259 87.7066C125.259 90.0097 125.767 92.2192 126.697 94.2716V107.763L132.758 101.702C137.248 105.151 143.391 107.277 150.167 107.277C158.99 107.277 166.741 103.672 171.166 98.2349V137.932C171.166 142.27 167.617 145.819 163.279 145.819H13.887C9.54914 145.819 6 142.27 6 137.932V27.8958C6 23.5579 9.54914 20.0088 13.887 20.0088V20.0088ZM66.155 89.4554V104.275L58.3426 96.4622C53.3472 99.4566 47.1087 101.236 40.3404 101.236C23.9312 101.236 10.629 90.7841 10.629 77.8911C10.629 64.998 23.9312 54.5464 40.3404 54.5464C56.7496 54.5464 70.0518 64.998 70.0518 77.8911C70.0518 82.0988 68.6342 86.0462 66.155 89.4554Z" stroke="#124C7B" stroke-width="3.61181" stroke-miterlimit="2.61313" stroke-linecap="round" stroke-linejoin="round"/>
<path fill-rule="evenodd" clip-rule="evenodd" d="M171.166 123.479V137.932C171.166 142.27 167.617 145.819 163.279 145.819H13.887C9.54914 145.819 6 142.27 6 137.932V123.479H171.166Z" stroke="#124C7B" stroke-width="3.61181" stroke-miterlimit="2.61313" stroke-linecap="round" stroke-linejoin="round"/>
<path fill-rule="evenodd" clip-rule="evenodd" d="M19.6599 32.2715H55.5474C53.9022 34.7444 52.9406 37.7066 52.9406 40.8828C52.9406 49.4743 59.9693 56.503 68.5604 56.503H83.6456V123.471L84.2014 123.478H16.5051V91.8291C21.9215 97.5377 30.5813 101.235 40.3405 101.235C47.1088 101.235 53.3472 99.4558 58.3427 96.4614L66.1551 104.274V89.4547C68.6343 86.0454 70.0519 82.098 70.0519 77.8903C70.0519 64.9973 56.7497 54.5456 40.3405 54.5456C30.5813 54.5456 21.9215 58.2428 16.5051 63.9514V35.4263C16.5051 33.6911 17.9247 32.2715 19.6599 32.2715V32.2715ZM120.789 32.2715H157.507C159.242 32.2715 160.661 33.6911 160.661 35.4263V69.9536C157.472 68.7874 153.916 68.1352 150.167 68.1352C136.41 68.1352 125.259 76.8971 125.259 87.7058C125.259 90.0089 125.767 92.2184 126.697 94.2708V107.762L132.758 101.701C137.248 105.15 143.391 107.276 150.167 107.276C153.916 107.276 157.472 106.624 160.661 105.458V123.478H115.462V49.0963C115.462 47.1298 115.221 45.217 114.766 43.3858L115.875 43.3264L120.789 32.2715V32.2715Z" stroke="#124C7B" stroke-width="3.61181" stroke-miterlimit="2.61313" stroke-linecap="round" stroke-linejoin="round"/>
<path d="M123.349 167.508H53.8174C49.4615 167.508 45.9304 170.501 45.9304 174.194C45.9304 177.886 49.4615 180.88 53.8174 180.88H123.349C127.704 180.88 131.236 177.886 131.236 174.194C131.236 170.501 127.704 167.508 123.349 167.508Z" stroke="#124C7B" stroke-width="3.61181" stroke-miterlimit="2.61313" stroke-linecap="round" stroke-linejoin="round"/>
<path fill-rule="evenodd" clip-rule="evenodd" d="M67.59 145.819H71.1953H105.972H109.577L112.565 167.508H102.984H74.1832H64.6021L67.59 145.819Z" stroke="#124C7B" stroke-width="3.61181" stroke-miterlimit="2.61313" stroke-linecap="round" stroke-linejoin="round"/>
<path d="M92.2162 132.298H84.9499C80.5941 132.298 77.0629 133.35 77.0629 134.648C77.0629 135.946 80.5941 136.998 84.9499 136.998H92.2162C96.5721 136.998 100.103 135.946 100.103 134.648C100.103 133.35 96.5721 132.298 92.2162 132.298Z" stroke="#124C7B" stroke-width="3.61181" stroke-miterlimit="2.61313" stroke-linecap="round" stroke-linejoin="round"/>
<path fill-rule="evenodd" clip-rule="evenodd" d="M90.9495 44.6627L114.766 43.3877C115.22 45.2189 115.462 47.1315 115.462 49.0982V123.48H84.2015L83.6457 123.473V56.5048H68.5605C59.9694 56.5048 52.9407 49.4761 52.9407 40.8847C52.9407 32.2935 59.9694 25.2646 68.5605 25.2646H75.2395L90.9495 44.6627V44.6627Z" stroke="#124C7B" stroke-width="3.61181" stroke-miterlimit="2.61313" stroke-linecap="round" stroke-linejoin="round"/>
<path fill-rule="evenodd" clip-rule="evenodd" d="M67.9537 32.1685C66.0588 32.1685 64.5227 33.7045 64.5227 35.5994C64.5227 37.4942 66.0588 39.0303 67.9537 39.0303C69.8485 39.0303 71.3845 37.4942 71.3845 35.5994C71.3845 33.7045 69.8485 32.1685 67.9537 32.1685Z" stroke="#124C7B" stroke-width="3.61181" stroke-miterlimit="2.61313" stroke-linecap="round" stroke-linejoin="round"/>
<path d="M96.7444 31.6258L81.0344 12.2278L75.2395 25.2641L90.9495 44.662L96.7444 31.6258Z" stroke="#124C7B" stroke-width="3.61181" stroke-miterlimit="2.61313" stroke-linecap="round" stroke-linejoin="round"/>
<path d="M96.7443 31.625L121.67 30.2905L115.875 43.3268L90.9494 44.6613L96.7443 31.625Z" stroke="#124C7B" stroke-width="3.61181" stroke-miterlimit="2.61313" stroke-linecap="round" stroke-linejoin="round"/>
<path d="M109.913 1.99997L74.4292 3.96606L96.7442 31.6249L132.228 29.6588L109.913 1.99997Z" stroke="#124C7B" stroke-width="3.61181" stroke-miterlimit="2.61313" stroke-linecap="round" stroke-linejoin="round"/>
<path d="M128.916 50.5781L132.066 43.2729L132.228 29.659L103.722 16.9873" stroke="#124C7B" stroke-width="3.61181" stroke-miterlimit="2.61313" stroke-linecap="round" stroke-linejoin="round"/>
<path d="M134.967 50.791L132.065 43.2739" stroke="#124C7B" stroke-width="3.61181" stroke-miterlimit="2.61313" stroke-linecap="round" stroke-linejoin="round"/>
<path fill-rule="evenodd" clip-rule="evenodd" d="M150.167 68.1357C163.923 68.1357 175.074 76.8977 175.074 87.7063C175.074 98.5148 163.923 107.277 150.167 107.277C143.391 107.277 137.248 105.15 132.758 101.701L126.697 107.763V94.2713C125.767 92.219 125.259 90.0095 125.259 87.7063C125.259 76.8977 136.41 68.1357 150.167 68.1357V68.1357Z" stroke="#124C7B" stroke-width="3.61181" stroke-miterlimit="2.61313" stroke-linecap="round" stroke-linejoin="round"/>
<path fill-rule="evenodd" clip-rule="evenodd" d="M66.1547 89.4559V104.275L58.3424 96.4627C53.3469 99.4571 47.1085 101.236 40.3402 101.236C23.931 101.236 10.6288 90.7846 10.6288 77.8916C10.6288 64.9985 23.931 54.5469 40.3402 54.5469C56.7494 54.5469 70.0515 64.9985 70.0515 77.8916C70.0515 82.0993 68.6339 86.0467 66.1547 89.4559Z" stroke="#124C7B" stroke-width="3.61181" stroke-miterlimit="2.61313" stroke-linecap="round" stroke-linejoin="round"/>
</g>
<defs>
<filter id="filter0_d_113_1271" x="0.194092" y="0.59082" width="180.686" height="190.095" filterUnits="userSpaceOnUse" color-interpolation-filters="sRGB">
<feFlood flood-opacity="0" result="BackgroundImageFix"/>
<feColorMatrix in="SourceAlpha" type="matrix" values="0 0 0 0 0 0 0 0 0 0 0 0 0 0 0 0 0 0 127 0" result="hardAlpha"/>
<feOffset dy="4"/>
<feGaussianBlur stdDeviation="2"/>
<feComposite in2="hardAlpha" operator="out"/>
<feColorMatrix type="matrix" values="0 0 0 0 0 0 0 0 0 0 0 0 0 0 0 0 0 0 0.25 0"/>
<feBlend mode="normal" in2="BackgroundImageFix" result="effect1_dropShadow_113_1271"/>
<feBlend mode="normal" in="SourceGraphic" in2="effect1_dropShadow_113_1271" result="shape"/>
</filter>
</defs>
</svg>
