<svg width="173" height="183" viewBox="0 0 173 183" fill="none" xmlns="http://www.w3.org/2000/svg">
<path d="M128.066 43.2732L124.916 50.5784L128.066 43.2732ZM128.066 43.2732L130.967 50.7903L128.066 43.2732ZM9.88699 20.0088H73.5752L71.2394 25.2636L86.9493 44.6616L111.875 43.3271L117.67 30.2909L92.7442 31.6254L83.3363 20.0088H83.3721L92.7442 31.6254L128.228 29.6593L128.066 43.2732L128.228 29.6593L120.442 20.0088H159.279C163.617 20.0088 167.166 23.5579 167.166 27.8958V77.1781C162.741 71.7408 154.99 68.136 146.167 68.136C132.41 68.136 121.259 76.8979 121.259 87.7066C121.259 90.0097 121.767 92.2192 122.697 94.2716V107.763L128.758 101.702C133.248 105.151 139.391 107.277 146.167 107.277C154.99 107.277 162.741 103.672 167.166 98.2349V137.932C167.166 142.27 163.617 145.819 159.279 145.819H9.88699C5.54914 145.819 2 142.27 2 137.932V27.8958C2 23.5579 5.54914 20.0088 9.88699 20.0088V20.0088ZM62.155 89.4554V104.275L54.3426 96.4622C49.3472 99.4566 43.1087 101.236 36.3404 101.236C19.9312 101.236 6.62903 90.7841 6.62903 77.8911C6.62903 64.998 19.9312 54.5464 36.3404 54.5464C52.7496 54.5464 66.0518 64.998 66.0518 77.8911C66.0518 82.0988 64.6342 86.0462 62.155 89.4554Z" stroke="#124C7B" stroke-width="3.61181" stroke-miterlimit="2.61313" stroke-linecap="round" stroke-linejoin="round"/>
<path fill-rule="evenodd" clip-rule="evenodd" d="M167.166 123.479V137.932C167.166 142.27 163.617 145.819 159.279 145.819H9.88699C5.54914 145.819 2 142.27 2 137.932V123.479H167.166Z" stroke="#124C7B" stroke-width="3.61181" stroke-miterlimit="2.61313" stroke-linecap="round" stroke-linejoin="round"/>
<path fill-rule="evenodd" clip-rule="evenodd" d="M15.6599 32.2715H51.5474C49.9022 34.7444 48.9406 37.7066 48.9406 40.8828C48.9406 49.4743 55.9693 56.503 64.5604 56.503H79.6456V123.471L80.2014 123.478H12.5051V91.8291C17.9215 97.5377 26.5813 101.235 36.3405 101.235C43.1088 101.235 49.3472 99.4558 54.3427 96.4614L62.1551 104.274V89.4547C64.6343 86.0454 66.0519 82.098 66.0519 77.8903C66.0519 64.9973 52.7497 54.5456 36.3405 54.5456C26.5813 54.5456 17.9215 58.2428 12.5051 63.9514V35.4263C12.5051 33.6911 13.9247 32.2715 15.6599 32.2715V32.2715ZM116.789 32.2715H153.507C155.242 32.2715 156.661 33.6911 156.661 35.4263V69.9536C153.472 68.7874 149.916 68.1352 146.167 68.1352C132.41 68.1352 121.259 76.8971 121.259 87.7058C121.259 90.0089 121.767 92.2184 122.697 94.2708V107.762L128.758 101.701C133.248 105.15 139.391 107.276 146.167 107.276C149.916 107.276 153.472 106.624 156.661 105.458V123.478H111.462V49.0963C111.462 47.1298 111.221 45.217 110.766 43.3858L111.875 43.3264L116.789 32.2715V32.2715Z" stroke="#124C7B" stroke-width="3.61181" stroke-miterlimit="2.61313" stroke-linecap="round" stroke-linejoin="round"/>
<path d="M119.349 167.508H49.8174C45.4615 167.508 41.9304 170.501 41.9304 174.194C41.9304 177.886 45.4615 180.88 49.8174 180.88H119.349C123.704 180.88 127.236 177.886 127.236 174.194C127.236 170.501 123.704 167.508 119.349 167.508Z" stroke="#124C7B" stroke-width="3.61181" stroke-miterlimit="2.61313" stroke-linecap="round" stroke-linejoin="round"/>
<path fill-rule="evenodd" clip-rule="evenodd" d="M63.59 145.819H67.1953H101.972H105.577L108.565 167.508H98.9836H70.1832H60.6021L63.59 145.819Z" stroke="#124C7B" stroke-width="3.61181" stroke-miterlimit="2.61313" stroke-linecap="round" stroke-linejoin="round"/>
<path d="M88.2162 132.298H80.9499C76.5941 132.298 73.0629 133.35 73.0629 134.648C73.0629 135.946 76.5941 136.998 80.9499 136.998H88.2162C92.5721 136.998 96.1032 135.946 96.1032 134.648C96.1032 133.35 92.5721 132.298 88.2162 132.298Z" stroke="#124C7B" stroke-width="3.61181" stroke-miterlimit="2.61313" stroke-linecap="round" stroke-linejoin="round"/>
<path fill-rule="evenodd" clip-rule="evenodd" d="M86.9495 44.6627L110.766 43.3877C111.22 45.2189 111.462 47.1315 111.462 49.0982V123.48H80.2015L79.6457 123.473V56.5048H64.5605C55.9694 56.5048 48.9407 49.4761 48.9407 40.8847C48.9407 32.2935 55.9694 25.2646 64.5605 25.2646H71.2395L86.9495 44.6627V44.6627Z" stroke="#124C7B" stroke-width="3.61181" stroke-miterlimit="2.61313" stroke-linecap="round" stroke-linejoin="round"/>
<path fill-rule="evenodd" clip-rule="evenodd" d="M63.9537 32.1685C62.0588 32.1685 60.5227 33.7045 60.5227 35.5994C60.5227 37.4942 62.0588 39.0303 63.9537 39.0303C65.8485 39.0303 67.3845 37.4942 67.3845 35.5994C67.3845 33.7045 65.8485 32.1685 63.9537 32.1685Z" stroke="#124C7B" stroke-width="3.61181" stroke-miterlimit="2.61313" stroke-linecap="round" stroke-linejoin="round"/>
<path d="M92.7444 31.6258L77.0344 12.2278L71.2395 25.2641L86.9495 44.662L92.7444 31.6258Z" stroke="#124C7B" stroke-width="3.61181" stroke-miterlimit="2.61313" stroke-linecap="round" stroke-linejoin="round"/>
<path d="M92.7443 31.625L117.67 30.2905L111.875 43.3268L86.9494 44.6613L92.7443 31.625Z" stroke="#124C7B" stroke-width="3.61181" stroke-miterlimit="2.61313" stroke-linecap="round" stroke-linejoin="round"/>
<path d="M105.913 1.99997L70.4292 3.96606L92.7442 31.6249L128.228 29.6588L105.913 1.99997Z" stroke="#124C7B" stroke-width="3.61181" stroke-miterlimit="2.61313" stroke-linecap="round" stroke-linejoin="round"/>
<path d="M124.916 50.5781L128.066 43.2729L128.228 29.659L99.7217 16.9873" stroke="#124C7B" stroke-width="3.61181" stroke-miterlimit="2.61313" stroke-linecap="round" stroke-linejoin="round"/>
<path d="M130.967 50.791L128.065 43.2739" stroke="#124C7B" stroke-width="3.61181" stroke-miterlimit="2.61313" stroke-linecap="round" stroke-linejoin="round"/>
<path fill-rule="evenodd" clip-rule="evenodd" d="M146.167 68.1357C159.923 68.1357 171.074 76.8977 171.074 87.7063C171.074 98.5148 159.923 107.277 146.167 107.277C139.391 107.277 133.248 105.15 128.758 101.701L122.697 107.763V94.2713C121.767 92.219 121.259 90.0095 121.259 87.7063C121.259 76.8977 132.41 68.1357 146.167 68.1357V68.1357Z" stroke="#124C7B" stroke-width="3.61181" stroke-miterlimit="2.61313" stroke-linecap="round" stroke-linejoin="round"/>
<path fill-rule="evenodd" clip-rule="evenodd" d="M62.1547 89.4559V104.275L54.3424 96.4627C49.3469 99.4571 43.1085 101.236 36.3402 101.236C19.931 101.236 6.62878 90.7846 6.62878 77.8916C6.62878 64.9985 19.931 54.5469 36.3402 54.5469C52.7494 54.5469 66.0515 64.9985 66.0515 77.8916C66.0515 82.0993 64.6339 86.0467 62.1547 89.4559Z" stroke="#124C7B" stroke-width="3.61181" stroke-miterlimit="2.61313" stroke-linecap="round" stroke-linejoin="round"/>
</svg>
