<svg width="183" height="168" viewBox="0 0 183 168" fill="none" xmlns="http://www.w3.org/2000/svg">
<path fill-rule="evenodd" clip-rule="evenodd" d="M54.3433 2H123.266C127.053 2 130.151 5.098 130.151 8.88438V62.494C130.151 66.2803 127.053 69.3784 123.266 69.3784H97.9548L90.752 76.5812C89.6811 77.6523 87.9286 77.6523 86.8577 76.5812L79.6548 69.3784H54.3433C50.5569 69.3784 47.4589 66.2803 47.4589 62.494V8.88438C47.4589 5.098 50.5569 2 54.3433 2Z" stroke="#124C7B" stroke-width="3.61181" stroke-miterlimit="2.61313" stroke-linecap="round" stroke-linejoin="round"/>
<path fill-rule="evenodd" clip-rule="evenodd" d="M87.5034 18.4248C81.1883 11.3001 70.337 12.7348 66.1514 21.2669C62.9969 27.6975 66.2801 34.1744 70.1437 39.1765C71.0917 40.404 71.9949 41.3153 72.9508 42.411C73.9233 43.5254 74.8396 44.4783 75.9171 45.488C78.4403 47.8524 86.7874 55.2232 88.8257 56.7052C89.9636 55.9221 91.011 54.8262 92.164 53.9054C95.5334 51.2147 102.119 45.4194 104.778 42.3409C107.574 39.1032 110.528 36.0608 111.973 31.4099C116.695 16.2173 97.8669 7.58392 89.4546 19.3534L88.8257 20.2592L87.5034 18.4248V18.4248Z" stroke="#124C7B" stroke-width="3.61181" stroke-miterlimit="2.61313"/>
<path d="M90.7454 89.1156C87.5087 89.1308 84.4176 89.4068 81.6979 89.8881C73.6855 91.3037 72.231 94.2663 72.231 99.7302V109.351H91.1646H72.231H65.1253C59.6227 109.351 54.8042 112.659 53.2972 118.951C51.5589 126.163 51.4817 130.663 53.2972 138.193C54.643 143.799 57.8573 147.793 63.36 147.793H69.8698V139.142C69.8698 132.893 75.2768 127.38 81.6979 127.38H100.609C105.874 127.38 110.076 123.046 110.076 117.759V99.7302C110.076 94.599 105.748 90.7445 100.609 89.8881C97.357 89.3467 93.9822 89.1006 90.7454 89.1156V89.1156ZM80.5063 94.9195C82.4618 94.9195 84.0591 96.5426 84.0591 98.5385C84.0591 100.527 82.4618 102.135 80.5063 102.135C78.5436 102.135 76.9534 100.527 76.9534 98.5385C76.9534 96.5426 78.5436 94.9195 80.5063 94.9195Z" stroke="#124C7B" stroke-width="3.61181" stroke-miterlimit="2.61313" stroke-linejoin="round"/>
<path d="M69.8694 148.093V155.031C69.8694 160.162 74.3314 163.18 79.3363 164.652C85.3296 166.414 91.0769 166.733 98.2477 164.652C103.014 163.272 107.715 160.495 107.715 155.031V145.409M107.715 145.409H88.803M107.715 145.409H117.182C122.684 145.409 124.735 141.571 126.648 135.81C128.625 129.879 128.541 124.176 126.648 116.567C125.289 111.089 122.691 106.968 117.182 106.968H110.076M99.4394 152.625C101.402 152.625 102.992 154.234 102.992 156.222C102.992 158.218 101.402 159.841 99.4394 159.841C97.4836 159.841 95.8867 158.218 95.8867 156.222C95.8867 154.234 97.4836 152.625 99.4394 152.625Z" stroke="#124C7B" stroke-width="3.61181" stroke-miterlimit="2.61313" stroke-linejoin="round"/>
<path fill-rule="evenodd" clip-rule="evenodd" d="M153.181 4.42123L178.699 17.0022C180.1 17.6935 180.682 19.4059 179.991 20.8077L170.205 40.6558C169.514 42.0576 167.801 42.639 166.399 41.948L157.028 37.3276L153.047 38.6795C152.455 38.8806 151.806 38.5607 151.605 37.9687L150.253 33.9872L140.882 29.3668C139.48 28.6756 138.898 26.9632 139.59 25.5613L149.376 5.71328C150.067 4.31145 151.779 3.73002 153.181 4.42123V4.42123Z" stroke="#124C7B" stroke-width="3.61181" stroke-miterlimit="2.61313" stroke-linecap="round" stroke-linejoin="round"/>
<path fill-rule="evenodd" clip-rule="evenodd" d="M162.604 16.9687C161.695 13.647 157.945 12.3767 155.222 14.4755C153.17 16.0571 153.199 18.6838 153.652 20.9246C153.764 21.4745 153.911 21.9148 154.046 22.4232C154.183 22.9402 154.328 23.3959 154.516 23.896C154.956 25.0665 156.486 28.7933 156.91 29.6002C157.404 29.5281 157.919 29.34 158.441 29.2258C159.964 28.8917 163.028 28.0649 164.383 27.4915C165.808 26.8883 167.253 26.3737 168.466 25.096C172.429 20.9223 167.701 15.1092 163.089 17.5821L162.74 17.7755L162.604 16.9687V16.9687Z" stroke="#124C7B" stroke-width="3.61181" stroke-miterlimit="2.61313"/>
<path fill-rule="evenodd" clip-rule="evenodd" d="M130.151 48.2219L168.317 61.9776C170.593 62.7978 171.784 65.3313 170.963 67.6072L159.349 99.8315C158.529 102.108 155.995 103.299 153.719 102.478L138.505 96.9946L132.615 99.7637C131.739 100.176 130.685 99.7959 130.274 98.9199L127.505 93.0299L112.29 87.5463C110.014 86.726 108.823 84.1926 109.643 81.9167L114.163 69.3773H123.267C127.053 69.3773 130.151 66.2793 130.151 62.4929V48.2219V48.2219Z" stroke="#124C7B" stroke-width="3.61181" stroke-miterlimit="2.61313" stroke-linecap="round" stroke-linejoin="round"/>
<path fill-rule="evenodd" clip-rule="evenodd" d="M143.555 64.7131C141.581 59.7612 135.593 58.4568 131.769 62.1565C128.886 64.9448 129.386 68.98 130.471 72.3484C130.738 73.1749 131.04 73.8264 131.336 74.5851C131.636 75.3566 131.938 76.0325 132.314 76.769C133.194 78.4934 136.192 83.9608 136.984 85.1284C137.732 84.932 138.492 84.5536 139.274 84.2875C141.56 83.5097 146.129 81.7074 148.114 80.5906C150.202 79.4159 152.335 78.3742 153.98 76.1988C159.351 69.0925 151.072 60.9701 144.407 65.5726L143.903 65.9304L143.555 64.7131Z" stroke="#124C7B" stroke-width="3.61181" stroke-miterlimit="2.61313"/>
<path fill-rule="evenodd" clip-rule="evenodd" d="M47.4589 46.9397L5.46825 57.9523C2.99553 58.6008 1.50315 61.1543 2.15162 63.6268L11.3327 98.6345C11.9812 101.107 14.5348 102.599 17.0074 101.951L33.536 97.6161L39.473 101.086C40.3559 101.602 41.5003 101.302 42.0161 100.419L45.486 94.4821L62.0148 90.1473C64.4874 89.4988 65.9797 86.9454 65.3313 84.4728L61.3726 69.3787H54.3433C50.5569 69.3787 47.4589 66.2806 47.4589 62.4943V46.9397Z" stroke="#124C7B" stroke-width="3.61181" stroke-miterlimit="2.61313" stroke-linecap="round" stroke-linejoin="round"/>
<path fill-rule="evenodd" clip-rule="evenodd" d="M31.2677 63.1688C33.8122 58.144 40.2372 57.3363 43.9129 61.5907C46.6831 64.7971 45.7762 68.9963 44.3162 72.4387C43.9578 73.2834 43.5778 73.9403 43.1952 74.7107C42.806 75.4944 42.4246 76.1772 41.9596 76.9169C40.8705 78.6484 37.2001 84.1191 36.256 85.2731C35.4874 84.9958 34.7236 84.5258 33.9256 84.172C31.5936 83.1378 26.9552 80.8099 24.9718 79.4472C22.8857 78.0141 20.7389 76.7164 19.2137 74.2719C14.2313 66.2866 23.7104 58.5205 30.2905 63.993L30.7862 64.417L31.2677 63.1688V63.1688Z" stroke="#124C7B" stroke-width="3.61181" stroke-miterlimit="2.61313"/>
</svg>
