<svg width="33" height="27" viewBox="0 0 33 27" fill="none" xmlns="http://www.w3.org/2000/svg">
<g clip-path="url(#clip0_206_5912)">
<path d="M29.9997 0H6.66634C4.82801 0 3.33301 1.495 3.33301 3.33333V11.6667H6.66634V6.66667L17.333 14.6667C17.6216 14.8828 17.9725 14.9996 18.333 14.9996C18.6936 14.9996 19.0444 14.8828 19.333 14.6667L29.9997 6.66667V21.6667H16.6663V25H29.9997C31.838 25 33.333 23.505 33.333 21.6667V3.33333C33.333 1.495 31.838 0 29.9997 0ZM18.333 11.25L7.77634 3.33333H28.8897L18.333 11.25Z" fill="#3776AA"/>
<path d="M0 13.333H11.6667V16.6663H0V13.333ZM3.33333 18.333H13.3333V21.6663H3.33333V18.333ZM8.33333 23.333H15V26.6663H8.33333V23.333Z" fill="#3776AA"/>
</g>
<defs>
<clipPath id="clip0_206_5912">
<rect width="33" height="27" fill="white"/>
</clipPath>
</defs>
</svg>
