<svg width="60" height="60" viewBox="0 0 60 60" fill="none" xmlns="http://www.w3.org/2000/svg">
<g clip-path="url(#clip0_206_5838)">
<circle cx="29" cy="30" r="18" fill="white"/>
<path d="M5.66683 27.5556C5.77794 28.2222 5.66683 28.7778 5.3335 29.3334C5.00016 29.8889 4.44461 30.2222 3.77794 30.3334C3.11127 30.4445 2.55572 30.3334 2.00016 29.8889C1.44461 29.5556 1.11127 29 1.00016 28.3334C0.889052 27.6667 1.00016 27.1111 1.3335 26.5556C1.77794 26 2.22238 25.6667 2.88905 25.5556C3.55572 25.4445 4.11127 25.5556 4.66683 25.8889C5.22239 26.3334 5.55572 26.8889 5.66683 27.5556ZM48.7779 31.5556C50.2224 33.8889 50.6668 36.4445 50.1113 39.1111C49.5557 41.7778 48.2224 44 45.8891 45.5556C44.0002 46.8889 42.0002 47.4445 39.6668 47.4445C39.2224 49.1111 38.3335 50.4445 37.0002 51.3334C35.6668 52.3334 34.2224 52.7778 32.5557 52.6667C30.8891 52.6667 29.4446 52 28.2224 50.8889C28.0002 51.1111 27.8891 51.2222 27.7779 51.2222C25.6668 52.6667 23.3335 53.2222 20.7779 52.7778C18.2224 52.3334 16.2224 51 14.7779 48.8889C13.7779 47.3334 13.2224 45.6667 13.1113 43.7778C11.4446 43.4445 9.88905 42.7778 8.66683 41.5556C7.44461 40.3334 6.55572 39.1111 6.22238 37.5556C5.77794 36.1111 5.77794 34.5556 6.11127 32.8889C6.55572 31.2222 7.3335 29.7778 8.66683 28.5556C7.88905 27.3334 7.55572 26 7.44461 24.5556C7.44461 23.1111 7.66683 21.8889 8.22239 20.6667C8.77794 19.4445 9.55572 18.4445 10.6668 17.6667C11.7779 16.7778 13.0002 16.3334 14.4446 16.1111C15.1113 14.3334 16.1113 12.7778 17.5557 11.5556C18.8891 10.2222 20.4446 9.33336 22.1113 8.66669C23.7779 8.00002 25.4446 7.88891 27.3335 8.11113C29.2224 8.33336 30.7779 9.00002 32.3335 10.2222C33.7779 9.7778 35.2224 9.55558 36.6668 9.66669C38.1113 9.7778 39.4446 10.1111 40.6668 10.7778C41.8891 11.4445 43.0002 12.2222 43.8891 13.2222C44.7779 14.2222 45.4446 15.4445 46.0002 16.7778C46.4446 18.2222 46.6668 19.6667 46.5557 21.1111C47.6668 21.4445 48.5557 22 49.2224 22.8889C50.0002 23.7778 50.4446 24.6667 50.6668 25.6667C50.8891 26.6667 50.7779 27.6667 50.4446 28.7778C50.2224 30 49.6668 30.8889 48.7779 31.5556ZM11.2224 45.6667C11.4446 45.7778 11.6668 46.1111 11.6668 46.3334C11.7779 46.6667 11.6668 46.8889 11.5557 47.2222C11.4446 47.4445 11.1113 47.6667 10.8891 47.6667C10.5557 47.7778 10.3335 47.6667 10.1113 47.5556C9.88905 47.4445 9.66683 47.1111 9.66683 46.8889C9.55572 46.5556 9.66683 46.3334 9.77794 46C9.88905 45.7778 10.2224 45.5556 10.4446 45.5556C10.6668 45.4445 11.0002 45.4445 11.2224 45.6667ZM14.0002 11.1111C14.3335 11.5556 14.3335 12 14.3335 12.4445C14.2224 13 14.0002 13.3334 13.5557 13.6667C13.1113 14 12.6668 14 12.2224 14C11.6668 13.8889 11.3335 13.6667 11.1113 13.2222C10.7779 12.7778 10.7779 12.3334 10.7779 11.8889C10.8891 11.3334 11.1113 11 11.5557 10.6667C12.0002 10.3334 12.4446 10.3334 12.8891 10.3334C13.3335 10.4445 13.6668 10.6667 14.0002 11.1111ZM41.2224 39.6667C41.1113 39.2222 40.8891 38.7778 40.3335 38.6667C39.8891 38.4445 39.3335 38.3334 38.7779 38.3334C38.2224 38.3334 37.7779 38.2222 37.2224 38C36.6668 37.7778 36.4446 37.3334 36.4446 36.7778C36.3335 35.7778 36.6668 34.3334 37.4446 32.4445C38.2224 30.5556 39.0002 28.6667 39.7779 26.7778C40.5557 24.8889 40.8891 23.6667 40.7779 22.7778C40.4446 20.6667 39.3335 19.6667 37.1113 19.5556C36.2224 19.5556 35.4446 19.6667 34.7779 20L34.6668 20.1111C34.5557 20.1111 34.5557 20.2222 34.5557 20.2222C34.5557 20.2222 34.4446 20.2222 34.4446 20.3334C34.3335 20.3334 34.3335 20.3334 34.3335 20.4445H34.2224C34.1113 20.4445 34.1113 20.4445 34.0002 20.4445C34.0002 20.4445 33.8891 20.3334 33.7779 20.3334C33.6668 20.3334 33.6668 20.2222 33.5557 20.2222C33.4446 20.2222 33.4446 20.1111 33.2224 20C33.1113 19.8889 33.0002 19.7778 32.8891 19.6667C32.7779 19.5556 32.7779 19.5556 32.6668 19.4445C32.5557 19.3334 32.4446 19.2222 32.3335 19.2222C32.2224 19.2222 32.1113 19.1111 32.0002 19C31.8891 18.8889 31.7779 18.8889 31.6668 18.8889C31.5557 18.8889 31.4446 18.7778 31.3335 18.7778C30.6668 18.6667 30.2224 18.6667 29.8891 18.8889C29.5557 19.1111 29.0002 19.3334 28.4446 19.8889C28.4446 19.8889 28.3335 20 28.1113 20.1111C27.8891 20.2222 27.7779 20.3334 27.7779 20.4445C27.6668 20.5556 27.5557 20.6667 27.3335 20.7778C27.1113 20.8889 27.0002 21 26.7779 21C26.6668 21 26.4446 21 26.2224 20.8889C25.1113 20.3334 24.2224 19.8889 23.6668 19.6667C22.7779 19.3334 21.8891 19.3334 20.7779 19.7778C19.6668 20.2222 18.8891 20.8889 18.4446 21.7778C18.1113 22.3334 17.6668 23.3334 17.2224 24.7778C16.6668 26.2222 16.2224 27.5556 15.8891 28.8889C15.5557 30.2222 15.1113 31.5556 14.6668 33C14.2224 34.4445 14.0002 35.2222 14.0002 35.2222C13.5557 36.6667 13.7779 37.8889 14.5557 38.8889C15.3335 39.8889 16.5557 40.4445 18.0002 40.3334C18.6668 40.3334 19.1113 40.1111 19.5557 39.8889C20.0002 39.6667 20.3335 39.1111 20.7779 38.4445C20.8891 38.2222 21.7779 36.1111 23.2224 32.2222C24.6668 28.3334 25.5557 26.3334 25.5557 26.2222C25.6668 26 25.8891 25.7778 26.2224 25.6667C26.5557 25.5556 26.8891 25.5556 27.1113 25.6667C27.6668 26 27.8891 26.5556 27.7779 27.3334C27.7779 27.6667 27.2224 29.1111 26.2224 31.6667C25.2224 34.2222 24.6668 35.5556 24.6668 35.7778C24.5557 36.5556 24.7779 37.1111 25.2224 37.5556C25.7779 37.8889 26.3335 38 27.1113 37.7778C27.8891 37.5556 28.4446 37 28.7779 36.2222C28.8891 36.1111 29.3335 35.1111 30.2224 33.3334C31.1113 31.5556 31.8891 29.8889 32.7779 28.2222C33.6668 26.5556 34.1113 25.6667 34.2224 25.4445C34.6668 24.8889 35.1113 24.5556 35.4446 24.5556C36.0002 24.5556 36.3335 25 36.2224 25.7778C36.2224 26.1111 35.5557 27.6667 34.2224 30.3334C32.8891 33 32.2224 34.6667 32.0002 35.3334C31.7779 36.4445 31.8891 37.4445 32.4446 38.5556C33.0002 39.5556 33.7779 40.3334 34.7779 40.8889C35.1113 41.1111 35.6668 41.2222 36.3335 41.3334C37.0002 41.4445 37.7779 41.5556 38.5557 41.5556C39.3335 41.5556 40.0002 41.4445 40.4446 41.1111C41.1113 40.8889 41.3335 40.3334 41.2224 39.6667ZM18.8891 2.44447C19.0002 2.7778 18.8891 3.11113 18.7779 3.44447C18.5557 3.7778 18.3335 3.88891 18.0002 4.00002C17.6668 4.11113 17.3335 4.00002 17.0002 3.7778C16.6668 3.55558 16.4446 3.33336 16.4446 3.00002C16.3335 2.66669 16.4446 2.33336 16.6668 2.00002C16.8891 1.66669 17.1113 1.55558 17.4446 1.44447C17.7779 1.33336 18.1113 1.44447 18.4446 1.66669C18.6668 1.7778 18.7779 2.11114 18.8891 2.44447ZM29.3335 54.5556C29.5557 54.8889 29.6668 55.3334 29.5557 55.6667C29.4446 56.1111 29.2224 56.4445 28.8891 56.6667C28.5557 56.8889 28.1113 57 27.7779 56.8889C27.3335 56.7778 27.0002 56.5556 26.7779 56.2222C26.5557 55.8889 26.4446 55.4445 26.5557 55.1111C26.6668 54.6667 26.8891 54.3334 27.2224 54.1111C27.5557 53.8889 28.0002 53.7778 28.3335 53.8889C28.6668 54 29.1113 54.1111 29.3335 54.5556ZM35.1113 4.11114C35.4446 4.66669 35.5557 5.22225 35.3335 5.88891C35.1113 6.55558 34.7779 7.00002 34.2224 7.33336C33.6668 7.66669 33.1113 7.7778 32.4446 7.55558C31.7779 7.44447 31.3335 7.00002 31.0002 6.44447C30.6668 5.88891 30.5557 5.22225 30.7779 4.66669C30.8891 4.00002 31.3335 3.55558 31.8891 3.22225C32.4446 2.88891 33.0002 2.7778 33.6668 2.88891C34.2224 3.22225 34.7779 3.55558 35.1113 4.11114ZM45.3335 50.3334C45.7779 50.8889 45.8891 51.5556 45.7779 52.2222C45.6668 52.8889 45.3335 53.4445 44.7779 53.8889C44.2224 54.3334 43.5557 54.4445 42.8891 54.3334C42.2224 54.2222 41.6668 53.8889 41.3335 53.3334C40.8891 52.7778 40.7779 52.1111 40.8891 51.4445C41.0002 50.7778 41.3335 50.2222 41.8891 49.7778C42.4446 49.3334 43.1113 49.2222 43.7779 49.3334C44.3335 49.4445 44.8891 49.7778 45.3335 50.3334ZM52.2224 17C52.5557 17.4445 52.6668 18 52.5557 18.5556C52.4446 19.1111 52.2224 19.5556 51.7779 19.8889C51.3335 20.2222 50.7779 20.3334 50.2224 20.2222C49.6668 20.1111 49.2224 19.8889 48.8891 19.3334C48.5557 18.8889 48.4446 18.3334 48.5557 17.7778C48.6668 17.2222 48.8891 16.7778 49.4446 16.4445C49.8891 16.1111 50.4446 16 51.0002 16.1111C51.5557 16.2222 52.0002 16.5556 52.2224 17ZM55.6668 31.7778C55.7779 32.2222 55.6668 32.5556 55.4446 32.8889C55.2224 33.2222 54.8891 33.4445 54.4446 33.5556C54.0002 33.6667 53.6668 33.5556 53.3335 33.3334C53.0002 33.1111 52.7779 32.7778 52.6668 32.3334C52.5557 31.8889 52.6668 31.5556 52.8891 31.2222C53.1113 30.8889 53.4446 30.6667 53.8891 30.5556C54.3335 30.4445 54.6668 30.5556 55.0002 30.7778C55.3335 31.1111 55.5557 31.4445 55.6668 31.7778ZM58.2224 24.4445C58.3335 24.7778 58.2224 25 58.1113 25.3334C58.0002 25.5556 57.6668 25.7778 57.4446 25.8889C57.1113 26 56.8891 25.8889 56.5557 25.6667C56.3335 25.4445 56.1113 25.2222 56.1113 25C56.0002 24.6667 56.1113 24.4445 56.2224 24.1111C56.3335 23.8889 56.6668 23.6667 56.8891 23.6667C57.2224 23.5556 57.4446 23.6667 57.6668 23.7778C58.0002 23.8889 58.1113 24.1111 58.2224 24.4445Z" fill="#124C7B"/>
</g>
<defs>
<clipPath id="clip0_206_5838">
<rect width="60" height="60" fill="white"/>
</clipPath>
</defs>
</svg>
