<svg width="657" height="312" viewBox="0 0 657 312" fill="none" xmlns="http://www.w3.org/2000/svg">
<g clip-path="url(#clip0_206_5993)">
<rect x="252" y="241.914" width="23" height="23" transform="rotate(-43.7818 252 241.914)" stroke="#C1272D" stroke-width="4.36266" stroke-miterlimit="2.61313" stroke-linecap="round" stroke-linejoin="round"/>
<rect x="369.066" y="100" width="16.4309" height="16.4309" transform="rotate(33.4882 369.066 100)" stroke="#C1272D" stroke-width="4.36266" stroke-miterlimit="2.61313" stroke-linecap="round" stroke-linejoin="round"/>
<rect x="530.066" y="33" width="16.4309" height="16.4309" transform="rotate(33.4882 530.066 33)" stroke="#006A44" stroke-width="4.36266" stroke-miterlimit="2.61313" stroke-linecap="round" stroke-linejoin="round"/>
<rect x="150.066" y="118" width="16.4309" height="16.4309" transform="rotate(33.4882 150.066 118)" stroke="#006A44" stroke-width="4.36266" stroke-miterlimit="2.61313" stroke-linecap="round" stroke-linejoin="round"/>
<circle cx="7.5" cy="126.5" r="7.5" stroke="#FDB913" stroke-width="4.36266" stroke-miterlimit="2.61313" stroke-linecap="round" stroke-linejoin="round"/>
<circle cx="267.5" cy="7.5" r="7.5" stroke="#006A44" stroke-width="4.36266" stroke-miterlimit="2.61313" stroke-linecap="round" stroke-linejoin="round"/>
<circle cx="513.5" cy="251.5" r="7.5" stroke="#C1272D" stroke-width="4.36266" stroke-miterlimit="2.61313" stroke-linecap="round" stroke-linejoin="round"/>
<circle cx="315.5" cy="167.5" r="13.5" stroke="#FDB913" stroke-width="4.36266" stroke-miterlimit="2.61313" stroke-linecap="round" stroke-linejoin="round"/>
<circle cx="177.5" cy="45.5" r="13.5" stroke="#C1272D" stroke-width="4.36266" stroke-miterlimit="2.61313" stroke-linecap="round" stroke-linejoin="round"/>
<circle cx="155.5" cy="258.5" r="13.5" stroke="#006A44" stroke-width="4.36266" stroke-miterlimit="2.61313" stroke-linecap="round" stroke-linejoin="round"/>
<path fill-rule="evenodd" clip-rule="evenodd" d="M589.546 116H603.815C633.067 116 657 139.915 657 169.145V312.5C627.748 312.5 586 312.5 586 312.5V119.543C586 117.594 587.595 116 589.546 116Z" fill="#3776AA"/>
<path fill-rule="evenodd" clip-rule="evenodd" d="M521.701 116H598V186H521.701C502.615 186 487 170.251 487 151V151C487 131.75 502.615 116 521.701 116V116Z" fill="#3776AA"/>
<path d="M520.5 147C516.358 147 513 143.418 513 139C513 134.582 516.358 131 520.5 131C524.642 131 528 134.582 528 139C528 143.418 524.642 147 520.5 147Z" fill="#FEFEFE"/>
<path d="M278.163 83.8356L220.491 103.19C219.115 103.652 218.3 104.922 218.671 106.026L230.733 141.969C231.104 143.073 232.52 143.594 233.896 143.133L291.568 123.778C292.944 123.316 293.759 122.047 293.388 120.942L281.326 84.9995C280.955 83.895 279.539 83.3739 278.163 83.8356Z" stroke="#3776AA" stroke-width="3" stroke-miterlimit="2.61313" stroke-linecap="round" stroke-linejoin="round"/>
<path fill-rule="evenodd" clip-rule="evenodd" d="M220 103.355L278.655 83.6709C279.327 83.4454 280.037 83.5808 280.572 83.9709L258.474 120.767L218.653 104.751C218.844 104.117 219.329 103.581 220 103.355V103.355Z" stroke="#3776AA" stroke-width="3" stroke-miterlimit="2.61313" stroke-linecap="round" stroke-linejoin="round"/>
<path fill-rule="evenodd" clip-rule="evenodd" d="M233.405 143.297L292.059 123.613C292.731 123.387 293.216 122.851 293.407 122.217L264.569 110.618L258.474 120.767L247.491 116.349L231.488 142.997C232.023 143.387 232.733 143.523 233.405 143.297V143.297Z" stroke="#3776AA" stroke-width="3" stroke-miterlimit="2.61313" stroke-linecap="round" stroke-linejoin="round"/>
<path fill-rule="evenodd" clip-rule="evenodd" d="M29.0509 36.7162L35.9423 32.7374L39.6016 39.0755C40.2824 40.2547 41.804 40.6624 42.9832 39.9816L45.2632 38.6652C46.4424 37.9844 46.8501 36.4628 46.1693 35.2836L42.51 28.9456L64.0332 16.5192L67.6925 22.8573C68.3733 24.0364 69.8949 24.4441 71.074 23.7633L73.3541 22.4469C74.5333 21.7661 74.941 20.2445 74.2602 19.0654L70.6009 12.7273L77.4924 8.74848C78.445 8.19848 79.6744 8.5279 80.2244 9.48053L102.022 47.2355C102.572 48.1882 102.243 49.4176 101.29 49.9676L52.8488 77.9353C51.8961 78.4853 50.6667 78.1559 50.1167 77.2032L28.3188 39.4482C27.7688 38.4956 28.0983 37.2662 29.0509 36.7162V36.7162Z" stroke="#3776AA" stroke-width="3" stroke-miterlimit="2.61313" stroke-linecap="round" stroke-linejoin="round"/>
<path d="M37.4888 24.1801L34.3261 26.0061C33.3858 26.5489 33.8242 29.0687 35.3054 31.6341L38.1576 36.5743C39.6387 39.1397 41.6017 40.7793 42.5419 40.2364L45.7047 38.4104C46.6449 37.8675 46.2065 35.3478 44.7253 32.7824L41.8731 27.8422C40.392 25.2768 38.429 23.6372 37.4888 24.1801Z" stroke="#3776AA" stroke-width="3" stroke-miterlimit="2.61313" stroke-linecap="round" stroke-linejoin="round"/>
<path d="M65.5796 7.96181L62.4169 9.7878C61.4766 10.3307 61.9151 12.8504 63.3962 15.4158L66.2484 20.356C67.7295 22.9214 69.6925 24.561 70.6328 24.0181L73.7955 22.1921C74.7358 21.6493 74.2973 19.1295 72.8161 16.5641L69.964 11.624C68.4828 9.05854 66.5199 7.41894 65.5796 7.96181Z" stroke="#3776AA" stroke-width="3" stroke-miterlimit="2.61313" stroke-linecap="round" stroke-linejoin="round"/>
<path d="M34.895 50.8384L86.8007 20.8706" stroke="#3776AA" stroke-width="3" stroke-miterlimit="2.61313" stroke-linecap="round" stroke-linejoin="round"/>
<path fill-rule="evenodd" clip-rule="evenodd" d="M73.921 49.2492L77.6485 40.7476L69.6413 45.3633L62.9264 39.4327L64.66 48.2403L56.7182 52.9085L65.8812 53.8771L67.7829 62.961L71.6343 54.5151L80.7274 55.4628L73.921 49.2492Z" stroke="#3776AA" stroke-width="3" stroke-miterlimit="2.61313" stroke-linejoin="round"/>
<path fill-rule="evenodd" clip-rule="evenodd" d="M135.098 205.377L127.435 227.967C127.081 229.008 125.94 229.571 124.898 229.218L71.9276 211.249C70.8859 210.896 70.3227 209.755 70.6761 208.713L78.3394 186.122L100.913 201.24L102.429 196.771C102.867 195.481 104.279 194.784 105.569 195.222L108.062 196.067C109.352 196.505 110.049 197.917 109.611 199.207L108.096 203.672L135.098 205.377V205.377Z" stroke="#3776AA" stroke-width="3" stroke-miterlimit="2.61313" stroke-linecap="round" stroke-linejoin="round"/>
<path fill-rule="evenodd" clip-rule="evenodd" d="M84.1835 165.147C99.1347 170.219 128.27 180.102 143.221 185.174C144.263 185.527 144.826 186.669 144.473 187.711L138.878 204.204C138.525 205.245 137.439 205.525 136.342 205.455L108.096 203.672L109.611 199.207C110.048 197.917 109.351 196.505 108.062 196.067L105.569 195.222C104.279 194.784 102.867 195.481 102.429 196.771L100.913 201.24L77.3038 185.429C76.3901 184.817 75.6989 183.934 76.0523 182.892L81.6471 166.399C82.0004 165.357 83.1418 164.794 84.1835 165.147V165.147Z" stroke="#3776AA" stroke-width="3" stroke-miterlimit="2.61313" stroke-linecap="round" stroke-linejoin="round"/>
<path d="M108.545 196.231L105.086 195.058C104.058 194.709 102.453 196.7 101.502 199.506L99.6691 204.908C98.7175 207.713 98.7796 210.27 99.8078 210.619L103.266 211.792C104.294 212.141 105.899 210.149 106.851 207.344L108.683 201.942C109.635 199.137 109.573 196.58 108.545 196.231Z" stroke="#3776AA" stroke-width="3" stroke-miterlimit="2.61313" stroke-linecap="round" stroke-linejoin="round"/>
<path fill-rule="evenodd" clip-rule="evenodd" d="M101.1 170.886L101.769 168.914C102.123 167.872 103.264 167.309 104.306 167.662L125.722 174.927C126.764 175.28 127.327 176.422 126.974 177.464L126.305 179.436L130.473 180.849L132.376 175.239C132.73 174.197 132.166 173.056 131.125 172.702L101.372 162.61C100.33 162.256 99.1889 162.819 98.8356 163.861L96.9322 169.472L101.1 170.886Z" stroke="#3776AA" stroke-width="3" stroke-miterlimit="2.61313" stroke-linecap="round" stroke-linejoin="round"/>
<path fill-rule="evenodd" clip-rule="evenodd" d="M404.492 9.97283L424.578 16.0188L438.44 41.8176L428.6 74.5074C428.342 75.3651 427.429 75.8556 426.571 75.5975L419.813 73.5634L428.785 43.7576L414.924 17.9588L401.595 13.9468L402.463 11.0629C402.721 10.2052 403.634 9.71465 404.492 9.97283V9.97283Z" stroke="#3776AA" stroke-width="3" stroke-miterlimit="2.61313" stroke-linecap="round" stroke-linejoin="round"/>
<path fill-rule="evenodd" clip-rule="evenodd" d="M424.579 16.0189L438.44 41.8177L425.679 37.9768L420.738 28.7796L424.579 16.0189Z" stroke="#3776AA" stroke-width="3" stroke-miterlimit="2.61313" stroke-linecap="round" stroke-linejoin="round"/>
<path fill-rule="evenodd" clip-rule="evenodd" d="M394.837 11.9128L414.924 17.9588L428.785 43.7575L418.945 76.4473C418.687 77.305 417.774 77.7956 416.917 77.5374L378.56 65.992C377.702 65.7338 377.211 64.8208 377.469 63.9631L392.808 13.0029C393.067 12.1451 393.98 11.6546 394.837 11.9128V11.9128Z" stroke="#3776AA" stroke-width="3" stroke-miterlimit="2.61313" stroke-linecap="round" stroke-linejoin="round"/>
<path fill-rule="evenodd" clip-rule="evenodd" d="M414.924 17.9587L428.785 43.7575L410.515 38.2581C409.657 38 409.167 37.0869 409.425 36.2292L414.924 17.9587Z" stroke="#3776AA" stroke-width="3" stroke-miterlimit="2.61313" stroke-linecap="round" stroke-linejoin="round"/>
<path d="M394.125 26.2373L405 29.5105" stroke="#3776AA" stroke-width="3" stroke-miterlimit="2.61313" stroke-linecap="round" stroke-linejoin="round"/>
<path d="M392.39 32.001L403.265 35.2742" stroke="#3776AA" stroke-width="3" stroke-miterlimit="2.61313" stroke-linecap="round" stroke-linejoin="round"/>
<path d="M392.39 32.001L403.265 35.2742" stroke="#3776AA" stroke-width="3" stroke-miterlimit="2.61313" stroke-linecap="round" stroke-linejoin="round"/>
<path d="M390.655 37.7645L422.412 47.3231" stroke="#3776AA" stroke-width="3" stroke-miterlimit="2.61313" stroke-linecap="round" stroke-linejoin="round"/>
<path d="M388.92 43.5282L420.677 53.0868" stroke="#3776AA" stroke-width="3" stroke-miterlimit="2.61313" stroke-linecap="round" stroke-linejoin="round"/>
<path d="M387.186 49.2919L418.942 58.8505" stroke="#3776AA" stroke-width="3" stroke-miterlimit="2.61313" stroke-linecap="round" stroke-linejoin="round"/>
<path d="M402.835 64.874L415.941 68.8189" stroke="#3776AA" stroke-width="3" stroke-miterlimit="2.61313" stroke-linecap="round" stroke-linejoin="round"/>
<path fill-rule="evenodd" clip-rule="evenodd" d="M372.667 228.502L379.843 247.947C380.224 248.979 379.692 250.135 378.66 250.516L370.015 253.706C368.983 254.087 367.827 253.554 367.446 252.522L360.27 233.078L372.667 228.502Z" stroke="#3776AA" stroke-width="3" stroke-miterlimit="2.61313" stroke-linecap="round" stroke-linejoin="round"/>
<path fill-rule="evenodd" clip-rule="evenodd" d="M348.509 212.748L374.102 203.303L382.115 225.016L356.522 234.461C355.49 234.841 354.334 234.309 353.953 233.277L347.325 215.317C346.944 214.285 347.477 213.129 348.509 212.748Z" stroke="#3776AA" stroke-width="3" stroke-miterlimit="2.61313" stroke-linecap="round" stroke-linejoin="round"/>
<path fill-rule="evenodd" clip-rule="evenodd" d="M379.797 225.871L381.4 230.214C381.78 231.246 381.248 232.402 380.216 232.783L374.963 234.722L372.667 228.502L379.797 225.871Z" stroke="#3776AA" stroke-width="3" stroke-miterlimit="2.61313" stroke-linecap="round" stroke-linejoin="round"/>
<path d="M399.43 179.692L394.985 181.333C393.949 181.715 393.419 182.865 393.801 183.901L409.695 226.969C410.078 228.005 411.228 228.535 412.264 228.153L416.709 226.512C417.745 226.13 418.275 224.98 417.893 223.944L401.999 180.876C401.616 179.84 400.466 179.31 399.43 179.692Z" stroke="#3776AA" stroke-width="3" stroke-miterlimit="2.61313" stroke-linecap="round" stroke-linejoin="round"/>
<path fill-rule="evenodd" clip-rule="evenodd" d="M374.102 203.303C378.109 201.6 388.672 195.001 394.467 185.704L401.748 205.435L409.03 225.166C398.585 221.862 386.268 223.707 382.115 225.016L378.108 214.159L374.102 203.303Z" stroke="#3776AA" stroke-width="3" stroke-miterlimit="2.61313" stroke-linecap="round" stroke-linejoin="round"/>
</g>
<defs>
<clipPath id="clip0_206_5993">
<rect width="657" height="312" fill="white"/>
</clipPath>
</defs>
</svg>
