<svg width="50" height="50" viewBox="0 0 50 50" fill="none" xmlns="http://www.w3.org/2000/svg">
<g clip-path="url(#clip0_206_5824)">
<path d="M25.0003 49.9996C38.8073 49.9996 50 38.8068 50 24.9998C50 11.1928 38.8073 0 25.0003 0C11.1933 0 0.000488281 11.1928 0.000488281 24.9998C0.000488281 38.8068 11.1933 49.9996 25.0003 49.9996Z" fill="#124C7B"/>
<path d="M40.3135 17.9668C39.2421 18.4418 38.0897 18.7631 36.8811 18.9066C38.1151 18.1673 39.0621 16.9975 39.5091 15.6013C38.3544 16.2862 37.075 16.7831 35.7144 17.051C34.6244 15.8901 33.0713 15.1646 31.3515 15.1646C28.052 15.1646 25.3759 17.8406 25.3759 21.1402C25.3759 21.6086 25.4289 22.0645 25.5314 22.5021C20.5652 22.253 16.1617 19.8741 13.2142 16.2577C12.7 17.1401 12.405 18.1673 12.405 19.2623C12.405 21.3349 13.4607 23.1648 15.0632 24.2361C14.0841 24.2053 13.1621 23.9366 12.3568 23.4879C12.3564 23.5133 12.3564 23.5387 12.3564 23.5636C12.3564 26.459 14.417 28.8739 17.1502 29.4225C16.6493 29.5598 16.1203 29.6324 15.5762 29.6324C15.1902 29.6324 14.8163 29.5954 14.4518 29.5259C15.2121 31.8994 17.4185 33.6272 20.034 33.6757C17.9884 35.2787 15.4122 36.2337 12.6117 36.2337C12.1304 36.2337 11.6536 36.2057 11.187 36.15C13.8301 37.8461 16.9719 38.835 20.3463 38.835C31.3377 38.835 37.3486 29.7296 37.3486 21.8323C37.3486 21.5734 37.3428 21.3153 37.3312 21.0595C38.4997 20.2173 39.5126 19.1651 40.3135 17.9668Z" fill="#F1F2F2"/>
</g>
<defs>
<clipPath id="clip0_206_5824">
<rect width="50" height="50" fill="white"/>
</clipPath>
</defs>
</svg>
