<svg width="50" height="50" viewBox="0 0 50 50" fill="none" xmlns="http://www.w3.org/2000/svg">
<path d="M24.9999 0C38.8078 0 50 11.1937 50 25.0001C50 38.8064 38.8078 50 24.9999 50C11.192 50 0 38.8063 0 25.0001C0 11.1939 11.1922 0 24.9999 0Z" fill="#124C7B"/>
<path d="M24.3968 20.314C25.1873 20.314 25.8063 20.0624 26.2594 19.7047C26.7094 19.3453 26.9344 18.8563 26.9344 18.2281V14.4374C26.9344 13.8796 26.7048 13.4186 26.2468 13.064C25.7858 12.7093 25.1968 12.5328 24.4749 12.5328C23.6859 12.5328 23.0546 12.7 22.5874 13.0359C22.1187 13.3733 21.8843 13.8233 21.8843 14.3937V18.1967C21.8843 18.8216 22.1124 19.3154 22.5686 19.6858C23.0248 20.0562 23.636 20.314 24.3968 20.314ZM23.5704 14.5782C23.5704 14.4344 23.6454 14.3188 23.7939 14.2267C23.9439 14.1376 24.1376 14.0938 24.3752 14.0938C24.6345 14.0938 24.8439 14.1376 25.0018 14.2267C25.1613 14.3188 25.2394 14.4345 25.2394 14.5782V18.1813C25.2394 18.3594 25.1613 18.5 25.0049 18.6016C24.8487 18.7017 24.6393 18.7532 24.3752 18.7532C24.1174 18.7532 23.9174 18.7048 23.7782 18.6031C23.6408 18.5046 23.5704 18.3641 23.5704 18.1813V14.5782V14.5782ZM29.6282 20.3094C29.9062 20.3094 30.1891 20.1499 30.4829 19.9906C30.7798 19.8281 31.0625 19.5906 31.3346 19.2813V20.1235H32.8111V12.5218H31.3346V18.2921C31.1971 18.4562 31.044 18.5922 30.8799 18.6999C30.7127 18.8062 30.5753 18.8609 30.4675 18.8609C30.3284 18.8609 30.2268 18.8218 30.1675 18.7391C30.105 18.6594 30.0707 18.5297 30.0707 18.3515V12.5234H28.5972V18.875C28.5972 19.3281 28.6863 19.6673 28.8565 19.8923C29.0297 20.1187 29.2859 20.3094 29.6282 20.3094ZM33.9219 23.4516H16.0781C13.2407 23.4516 10.9421 25.6626 10.9421 28.3861V32.558C10.9421 35.283 13.2407 37.494 16.0781 37.494H33.9218C36.7577 37.494 39.0577 35.283 39.0577 32.558V28.3861C39.0579 25.6624 36.7578 23.4516 33.9219 23.4516ZM18.7327 27.686H17.1547V34.2204H15.6282V27.686H14.0501V26.5719H18.7329C18.7327 26.5719 18.7327 27.686 18.7327 27.686ZM23.4422 34.311H21.7969V33.6329C21.4907 33.883 21.1766 34.075 20.8454 34.2032C20.5188 34.3376 20.2 34.4016 19.8907 34.4016C19.5096 34.4016 19.2252 34.3095 19.0314 34.1236C18.8407 33.9408 18.7423 33.6658 18.7423 33.2985V28.1393H20.3876V32.872C20.3876 33.019 20.422 33.1221 20.4877 33.1877C20.5596 33.2548 20.6736 33.2845 20.8268 33.2845C20.9456 33.2845 21.1018 33.2423 21.2861 33.1547C21.472 33.0687 21.6424 32.9594 21.7971 32.8235V28.1375H23.4424C23.4422 28.1375 23.4422 34.311 23.4422 34.311ZM29.6702 33.136C29.6702 33.5407 29.542 33.8485 29.2875 34.0657C29.0359 34.2829 28.6641 34.3891 28.1844 34.3891C27.8641 34.3891 27.5797 34.3484 27.3328 34.2657C27.0844 34.183 26.85 34.0548 26.6375 33.8782V34.3156H24.9953V26.5719H26.6375V29.0673C26.8594 28.8955 27.0921 28.7611 27.3343 28.6705C27.5827 28.5783 27.8327 28.5345 28.0843 28.5345C28.5984 28.5345 28.9906 28.6548 29.2609 28.897C29.5343 29.1407 29.6702 29.4986 29.6702 29.9658C29.6702 29.9656 29.6702 33.136 29.6702 33.136ZM35.9297 31.3938H32.8985V32.5094C32.8985 32.8204 32.9484 33.036 33.0531 33.1578C33.1594 33.2781 33.3391 33.3375 33.5907 33.3375C33.8564 33.3375 34.0376 33.286 34.1439 33.1844C34.247 33.0813 34.3033 32.8578 34.3033 32.5078V32.2391H35.933V32.5422C35.933 33.1484 35.7376 33.6047 35.3345 33.9125C34.9377 34.2187 34.3438 34.3718 33.5548 34.3718C32.8439 34.3718 32.2845 34.2092 31.8767 33.8843C31.4705 33.5625 31.2642 33.1125 31.2642 32.5437V29.8843C31.2642 29.3733 31.4892 28.9514 31.9392 28.6281C32.3877 28.3063 32.9627 28.1453 33.6736 28.1453C34.3986 28.1453 34.9564 28.2953 35.347 28.5937C35.7361 28.8922 35.9299 29.3234 35.9299 29.8829C35.9297 29.8829 35.9297 31.3938 35.9297 31.3938ZM17.8485 20.3313H19.7126V15.789L21.8829 9.38284H19.9875L18.8343 13.761H18.7156L17.5062 9.38284H15.6265L17.8483 15.9938C17.8485 15.9938 17.8485 20.3313 17.8485 20.3313ZM27.3171 29.4406L26.9718 29.4969L26.6359 29.6704V33.2297C26.7672 33.3219 26.8968 33.3923 27.0219 33.4312L27.4141 33.4922C27.6141 33.4922 27.7594 33.453 27.8532 33.3703C27.9453 33.2907 27.9937 33.1594 27.9937 32.9797V30.0281C27.9937 29.8328 27.939 29.6874 27.8235 29.589C27.7047 29.4907 27.5375 29.4406 27.3171 29.4406Z" fill="white"/>
<path d="M33.6782 29.1812C33.425 29.1812 33.2453 29.2345 33.1345 29.3438C33.0251 29.4485 32.9719 29.6266 32.9719 29.875V30.4719H34.3735V29.875C34.3735 29.6266 34.3156 29.45 34.2063 29.3438C34.0984 29.2345 33.9188 29.1812 33.6782 29.1812Z" fill="white"/>
</svg>
