<svg version="1.1" id="Layer_1" xmlns="http://www.w3.org/2000/svg" xmlns:xlink="http://www.w3.org/1999/xlink" x="0" y="0" width="1500" height="786" xml:space="preserve">
  <style>
    @keyframes blinker{0%,to{opacity:0}25%{opacity:.5;transform:translateY(-10px)}50%{opacity:50;transform:translateY(-15px)}75%{opacity:100;transform:translateY(-7px)}}
  </style>
  <path id="background" fill="#333" d="M0 0h1500v785H0z"/>
  <path id="box" fill="#FFF" d="M203 585h163.8v140H203z"/>
  <g id="bottom_elements">
    <defs>
      <path id="SVGID_1_" d="M0 0h1500v786H0z"/>
    </defs>
    <clipPath id="SVGID_2_">
      <use xlink:href="#SVGID_1_" overflow="visible"/>
    </clipPath>
    <path clip-path="url(#SVGID_2_)" fill="#3776AA" d="M1127 700a25 25 0 10-50 0 25 25 0 0050 0M416.8 700a25 25 0 10-50 0 25 25 0 0050 0"/>
    <path clip-path="url(#SVGID_2_)" fill="#333" d="M398 700a6.2 6.2 0 10-12.5 0 6.2 6.2 0 0012.5 0"/>
    <path clip-path="url(#SVGID_2_)" fill="#FFD645" d="M1456.3 693.8a31.2 31.2 0 10-62.5 0 31.2 31.2 0 0062.5 0"/>
    <path clip-path="url(#SVGID_2_)" fill="#333" d="M1435 693.8a10 10 0 10-20 0 10 10 0 0020 0"/>
    <path clip-path="url(#SVGID_2_)" fill="#FFF" d="M430.5 716.3a8.7 8.7 0 10-17.5 0 8.7 8.7 0 0017.5 0"/>
    <path clip-path="url(#SVGID_2_)" fill="#3776AA" d="M1399.4 716.3a8.7 8.7 0 10-17.5 0 8.7 8.7 0 0017.5 0"/>
    <path clip-path="url(#SVGID_2_)" fill="#FFD645" d="M199.3 716.3a8.7 8.7 0 10-17.5 0 8.7 8.7 0 0017.5 0"/>
    <path id="triangle_6_" clip-path="url(#SVGID_2_)" fill="#3776AA" d="M81.7 662.5l18.8 31.3 18.7 31.2h-75L63 693.7z"/>
    <path id="triangle_5_" clip-path="url(#SVGID_2_)" fill="#FFF" d="M1332 637.5l26.2 43.8 26.2 43.7h-105l26.3-43.8z"/>
    <path id="cloud_1_" clip-path="url(#SVGID_2_)" fill="#FFD645" d="M487.5 425s-23.8-3-34.3-15.2c-15.2-18-15.9-42.7-38.4-57-32.9-21-99 17.5-132.2-52.9-33.4-70.8-77.9-82.2-154-85.8C59.3 210.8 4.4 141.2 0 111.2V0h1500v111.2s-22.1 68.6-120.6 68.6c-86.9 0-121.6 4-145.5 76-27.9 83.9-112.8 64.7-143.5 96.2-22.2 22.8-16.8 45.7-39 61.6-10 7.2-38.9 11.4-38.9 11.4h-525z"/>
    <path id="pycon_box" clip-path="url(#SVGID_2_)" fill="#3776AA" d="M500 425h500v300H500z"/>
    <path id="roof" clip-path="url(#SVGID_2_)" fill="#FFF" d="M1025 457.5H475l12.5-32.5h525z"/>
    <path id="line_8_" transform="rotate(-45 1131.1 686)" clip-path="url(#SVGID_2_)" fill="#FFD645" d="M1125.5 636.2h11.1v99.4h-11.1z"/>
    <path id="yellow_bottom" clip-path="url(#SVGID_2_)" fill="#FFD645" d="M0 725h1500v61H0z"/>
    <path id="P" clip-path="url(#SVGID_2_)" fill="#FFF" d="M581.2 534.6c4 1.8 7.1 4.4 9.3 7.7 2.1 3.4 3.2 7.4 3.2 12 0 4.5-1 8.5-3.2 12-2.2 3.3-5.3 5.9-9.3 7.7-4 1.8-8.8 2.7-14.3 2.7h-14.2v18.2H541v-63h25.9c5.5 0 10.2.9 14.3 2.7m-3.2 29c2.6-2.2 4-5.3 4-9.3 0-4-1.4-7.1-4-9.3-2.7-2.1-6.5-3.2-11.6-3.2h-13.7v25h13.7c5 0 9-1 11.6-3.2"/>
    <path id="y_1_" clip-path="url(#SVGID_2_)" fill="#FFF" d="M649.8 546.8l-22.5 52a24.2 24.2 0 01-7.7 11c-3 2.1-6.6 3.2-10.9 3.2-2.4 0-4.7-.4-7-1.2-2.4-.8-4.3-1.9-5.8-3.2l4.5-8.3a12.3 12.3 0 008.3 3.3c2 0 3.6-.5 4.9-1.5 1.3-1 2.4-2.8 3.5-5.2l.8-1.8-21-48.3h11.8l15 35.6 15.3-35.6h10.8z"/>
    <path id="C" clip-path="url(#SVGID_2_)" fill="#FFF" d="M669.4 591.6a30.9 30.9 0 01-16.5-28.2 31.8 31.8 0 0116.6-28.2 35.5 35.5 0 0117.2-4.2c5.1 0 9.9.9 14.1 2.7 4.3 1.8 7.9 4.4 10.8 7.8l-7.5 7.1a22 22 0 00-16.9-7.4c-4.3 0-8.2 1-11.6 2.9-3.4 1.9-6 4.5-8 7.8-2 3.4-2.9 7.2-2.9 11.5 0 4.2 1 8 2.9 11.4 2 3.4 4.6 6 8 7.9s7.3 2.8 11.6 2.8a22 22 0 0016.9-7.5l7.5 7.2c-3 3.5-6.5 6-10.8 7.9-4.3 1.8-9 2.7-14.2 2.7-6.4 0-12.1-1.4-17.2-4.2"/>
    <path id="o_2_" clip-path="url(#SVGID_2_)" fill="#FFF" d="M728.4 592.4a23 23 0 01-9-8.8c-2.3-3.8-3.4-8-3.4-12.8 0-4.7 1.1-9 3.3-12.6a23 23 0 019.1-8.8c4-2 8.3-3.1 13.2-3.1 4.9 0 9.3 1 13.2 3.1 4 2.1 7 5 9.2 8.8 2.1 3.7 3.2 8 3.2 12.6 0 4.8-1 9-3.2 12.8a23 23 0 01-9.2 8.8 27.5 27.5 0 01-13.2 3.1c-4.9 0-9.3-1-13.2-3.1m23.4-10.7c2.7-2.7 4.1-6.4 4.1-10.9s-1.4-8-4-10.8a13.7 13.7 0 00-10.3-4.2c-4.2 0-7.6 1.4-10.2 4.2-2.7 2.7-4 6.3-4 10.8s1.3 8.2 4 11c2.6 2.7 6 4 10.2 4 4.1 0 7.5-1.3 10.2-4"/>
    <path id="n_1_" clip-path="url(#SVGID_2_)" fill="#FFF" d="M819.9 551.6c3.6 3.5 5.5 8.8 5.5 15.7V595H814v-26.1c0-4.2-1-7.4-3-9.5-2-2.1-4.7-3.2-8.4-3.2a13 13 0 00-9.8 3.7c-2.4 2.5-3.6 6-3.6 10.8v24.3H778v-48h10.7v6.1c1.9-2.2 4.2-3.9 7-5 2.9-1.2 6-1.7 9.6-1.7 6 0 11 1.7 14.6 5.3"/>
    <path id="L" clip-path="url(#SVGID_2_)" fill="#FFF" d="M865.6 531.9h11.7v53h33v10h-44.7z"/>
    <path id="T" clip-path="url(#SVGID_2_)" fill="#FFF" d="M926.4 541.8h-20.8v-10H959v10h-20.9v53h-11.7z"/>
  </g>
  <g fill="#FFF">
    <path d="M81 378.5v-23.2l-11.5 19.2h-2.9l-11.5-18.9v23H49v-35h5.4l13.9 23.1 13.6-23.2h5.4v35h-6.1zM115.3 354.4c2 1.8 3.1 4.7 3.1 8.5v15.6h-5.9v-3.2c-.8 1.2-1.8 2-3.3 2.7-1.4.6-3 .9-5 .9s-3.8-.4-5.3-1a8.1 8.1 0 01-3.5-2.9 7.2 7.2 0 01-1.2-4.1 7 7 0 012.6-5.8c1.8-1.4 4.6-2.2 8.5-2.2h6.9v-.4c0-1.8-.6-3.3-1.7-4.3s-2.8-1.5-5-1.5c-1.5 0-3 .3-4.4.7-1.5.5-2.7 1.2-3.7 2l-2.4-4.6c1.4-1 3-1.8 5-2.4 2-.6 4-.9 6.3-.9 3.9 0 7 1 9 2.9zm-5.7 18.9c1.2-.8 2-1.8 2.6-3.1V367h-6.5c-3.6 0-5.4 1.2-5.4 3.5 0 1.2.5 2 1.4 2.7.9.7 2.1 1 3.7 1a8 8 0 004.2-1zM151 351.8l-12.6 28.9c-1.2 2.9-2.6 5-4.2 6.1a10.2 10.2 0 01-6 1.8c-1.4 0-2.7-.2-4-.7-1.3-.4-2.4-1-3.2-1.8l2.5-4.6a6.8 6.8 0 004.6 1.9c1 0 2-.3 2.7-.9.7-.5 1.4-1.5 2-2.8l.4-1-11.6-26.9h6.5l8.4 19.8 8.4-19.8h6z"/>
  </g>
  <g fill="#FFF">
    <path d="M58.5 409.2v35H52v-29.5h-7.4v-5.5h14zM96.7 436.3h-6.2v8h-6.3v-8H65v-4.5l17.2-22.6h7l-16.3 21.6h11.5v-7h6v7h6.3v5.5zM100 427.7h13.7v5.2H100v-5.2zM130 409.2v35h-6.5v-29.5h-7.4v-5.5h14zM158.4 424a10.2 10.2 0 015.8 9.4 10.6 10.6 0 01-6.3 10c-2 .9-4 1.3-6.5 1.3-4.8 0-8.5-1.5-11.2-4.5-2.6-3-4-7.3-4-12.9 0-3.9.8-7.3 2.2-10a15 15 0 016-6.4 18 18 0 019-2.2c1.8 0 3.5.2 5 .6 1.7.4 3 1 4.2 1.7l-2.4 4.9a12 12 0 00-6.6-1.7c-3.4 0-6 1-8 3-1.8 2.2-2.8 5.1-2.8 9 1-1.1 2.4-2 4-2.6a15 15 0 015.4-1c2.3 0 4.3.5 6.2 1.4zm-2.4 14c1.3-1 2-2.5 2-4.3 0-1.8-.7-3.3-2-4.4-1.3-1-3-1.6-5-1.6-2.2 0-3.9.6-5.2 1.7a5.4 5.4 0 00-2 4.3c0 1.7.7 3.1 2 4.3 1.2 1 3 1.6 5.3 1.6 2 0 3.6-.5 5-1.6z"/>
  </g>
  <g fill="#FFF">
    <path d="M1319.6 347.5l-15.2 35h-6.4l-15.3-35h7l11.7 27 11.7-27h6.5zM1323.3 350.4a3.5 3.5 0 01-1.1-2.7c0-1 .3-2 1.1-2.7a4 4 0 012.9-1c1.1 0 2 .3 2.8 1 .8.6 1.2 1.5 1.2 2.5 0 1.1-.4 2-1.2 2.8s-1.7 1.1-2.8 1.1a4 4 0 01-2.9-1zm-.3 5.4h6.3v26.7h-6.3v-26.7zM1337.5 345.4h6.2v37.1h-6.2v-37zM1375.2 358.5c2 2 3 4.9 3 8.7v15.3h-6.2V368c0-2.3-.6-4-1.7-5.2-1-1.2-2.7-1.8-4.7-1.8-2.3 0-4.1.7-5.4 2-1.4 1.4-2 3.4-2 6v13.5h-6.3v-26.7h6v3.5c1-1.2 2.3-2.2 3.9-2.8a14 14 0 015.3-1c3.3 0 6 1 8 3zM1386.5 350.4a3.5 3.5 0 01-1.2-2.7c0-1 .4-2 1.2-2.7a4 4 0 012.8-1c1.1 0 2.1.3 2.9 1 .7.6 1.1 1.5 1.1 2.5 0 1.1-.4 2-1.1 2.8s-1.7 1.1-2.9 1.1a4 4 0 01-2.8-1zm-.3 5.4h6.2v26.7h-6.2v-26.7zM1426.5 355.8v26.7h-6v-3.4c-1 1.2-2.2 2.2-3.7 2.8s-3.2 1-4.9 1c-3.6 0-6.4-1-8.4-3s-3-5-3-8.8v-15.3h6.2v14.4c0 2.4.5 4.2 1.6 5.4 1 1.2 2.6 1.8 4.6 1.8a7 7 0 005.3-2c1.4-1.5 2-3.5 2-6v-13.6h6.3zM1436.6 382a16 16 0 01-5-2.1l2.4-4.8a18 18 0 009.3 2.7c3.7 0 5.6-1 5.6-3 0-.9-.5-1.5-1.4-2l-4.6-1a37 37 0 01-5.4-1.1 8.2 8.2 0 01-3.6-2.3c-1-1-1.5-2.6-1.5-4.5 0-2.5 1-4.6 3.2-6 2.1-1.6 5-2.4 8.6-2.4 1.8 0 3.6.2 5.5.7 1.8.4 3.3 1 4.5 1.6l-2.4 4.8c-2.3-1.3-4.9-2-7.7-2-1.8 0-3.2.3-4.2.8s-1.4 1.3-1.4 2.2c0 1 .5 1.7 1.5 2.1 1 .4 2.6.8 4.8 1.2 2.1.3 3.8.7 5.2 1.1 1.4.5 2.6 1.2 3.5 2.2s1.5 2.5 1.5 4.4a7 7 0 01-3.2 6 15.3 15.3 0 01-8.9 2.3 24 24 0 01-6.3-.9z"/>
  </g>
  <g fill="#FFF">
    <path d="M1217.7 409.2h6.5v29.5h18.3v5.5h-24.8v-35zM1247.3 412c-.7-.7-1.1-1.5-1.1-2.6s.4-2 1.1-2.7a4 4 0 012.9-1c1.1 0 2 .3 2.8 1 .8.6 1.2 1.5 1.2 2.5 0 1.1-.4 2-1.2 2.8s-1.7 1.1-2.8 1.1a4 4 0 01-2.9-1zm-.3 5.5h6.3v26.7h-6.3v-26.7zM1277.5 442.8c-.7.6-1.6 1-2.7 1.3-1 .3-2.1.5-3.3.5-3 0-5.2-.8-6.8-2.3-1.6-1.5-2.4-3.8-2.4-6.7v-12.9h-4.4v-5h4.4v-6h6.3v6h7.1v5h-7.1v12.7c0 1.3.3 2.3 1 3 .6.7 1.5 1 2.7 1 1.4 0 2.5-.3 3.5-1l1.7 4.4zM1306 420.2c2 2 3 4.9 3 8.7v15.3h-6.3v-14.5c0-2.3-.5-4-1.6-5.2-1.1-1.2-2.7-1.8-4.7-1.8-2.3 0-4.2.7-5.5 2s-2 3.4-2 6v13.5h-6.2v-37h6.2v13.4c1-1 2.3-2 3.8-2.5a14 14 0 015.1-.9c3.4 0 6 1 8.1 3zM1342.8 417.5v26.7h-6v-3.4c-1 1.2-2.2 2.2-3.7 2.8s-3.1 1-4.9 1c-3.5 0-6.4-1-8.4-3s-3-5-3-8.8v-15.3h6.2V432c0 2.4.5 4.2 1.6 5.4 1 1.2 2.6 1.8 4.6 1.8 2.2 0 4-.7 5.3-2s2-3.5 2-6v-13.6h6.3zM1370.2 420c2 2 3.1 4.8 3.1 8.6v15.6h-5.9V441c-.8 1.2-1.8 2-3.3 2.7-1.4.6-3 .9-5 .9s-3.8-.4-5.3-1a7.6 7.6 0 01-2-12.8c1.7-1.4 4.5-2.2 8.4-2.2h6.9v-.4c0-1.8-.6-3.3-1.7-4.3s-2.8-1.5-5-1.5c-1.5 0-3 .3-4.4.7s-2.7 1.2-3.7 2l-2.4-4.6c1.4-1 3-1.8 5-2.4 2-.6 4-.9 6.3-.9 3.9 0 7 1 9 2.9zm-5.7 19c1.2-.8 2-1.8 2.6-3.1v-3.1h-6.5c-3.6 0-5.4 1.2-5.4 3.5 0 1.2.5 2 1.4 2.7.9.7 2.1 1 3.7 1a8 8 0 004.2-1zM1404.6 420.2c2 2 3 4.9 3 8.7v15.3h-6.2v-14.5c0-2.3-.6-4-1.7-5.2-1-1.2-2.7-1.8-4.7-1.8-2.3 0-4.1.7-5.4 2s-2 3.4-2 6v13.5h-6.3v-26.7h6v3.5c1-1.2 2.3-2.2 3.9-2.8a14 14 0 015.3-1c3.3 0 6 1 8 3zM1415.9 412c-.8-.7-1.2-1.5-1.2-2.6s.4-2 1.2-2.7a4 4 0 012.8-1c1.1 0 2.1.3 2.9 1 .7.6 1.1 1.5 1.1 2.5 0 1.1-.4 2-1.1 2.8s-1.7 1.1-2.9 1.1a4 4 0 01-2.8-1zm-.3 5.5h6.2v26.7h-6.2v-26.7zM1449.2 420c2.1 2 3.2 4.8 3.2 8.6v15.6h-6V441c-.7 1.2-1.8 2-3.2 2.7-1.4.6-3.1.9-5.1.9s-3.8-.4-5.3-1a7.6 7.6 0 01-2-12.8c1.8-1.4 4.6-2.2 8.4-2.2h7v-.4c0-1.8-.6-3.3-1.8-4.3-1-1-2.7-1.5-5-1.5-1.4 0-3 .3-4.4.7s-2.6 1.2-3.6 2l-2.5-4.6c1.4-1 3.1-1.8 5-2.4 2-.6 4.1-.9 6.3-.9 4 0 7 1 9 2.9zm-5.7 19c1.3-.8 2.1-1.8 2.6-3.1v-3.1h-6.4c-3.6 0-5.4 1.2-5.4 3.5 0 1.2.4 2 1.3 2.7 1 .7 2.2 1 3.8 1a8 8 0 004.1-1z"/>
  </g>
  <g style="animation:blinker 4s linear infinite">
    <defs>
      <path id="SVGID_3_" d="M0 0h1500v786H0z"/>
    </defs>
    <clipPath id="SVGID_4_">
      <use xlink:href="#SVGID_3_" overflow="visible"/>
    </clipPath>
    <g id="computer_4_" clip-path="url(#SVGID_4_)" fill="#3776AA">
      <path id="computer" d="M164.6 79.8l-.9-2.4-12-33.2-1-2.4a6 6 0 00-7.5-3.6L95.8 55.5a5.9 5.9 0 00-3.5 7.6l13.8 38a6 6 0 007.6 3.5l15.1-5.5 1.1 3-5.2 1.9a3 3 0 00-1.8 3.8l.2.4a3 3 0 003.8 1.8l27.5-10a3 3 0 001.8-3.8l-.2-.5a3 3 0 00-3.8-1.8l-5.2 2-1-3 15-5.5a5.9 5.9 0 003.6-7.6m-11.7 16a1.1 1.1 0 011.4.6l.1.4v.9c-.1.2-.3.4-.6.5l-27.5 10h-.9c-.2-.1-.4-.3-.5-.6l-.2-.5c-.2-.5 0-1.2.7-1.4l6-2.2 15.4-5.6 6-2.2zm-21.2 5.6l-1.1-3 13.6-4.9 1 3-13.5 5zM95.2 65.7l55-20 11.5 31.4-55 20-11.5-31.4zm1.3-8.5L143.8 40a4 4 0 015.2 2.4l.6 1.5-55 20-.6-1.5a4 4 0 012.5-5.2m66.2 26.3a4 4 0 01-2.3 2.1l-23.7 8.6-7.6 2.8-16 5.8a4 4 0 01-5.2-2.4l-.6-1.5 55-20 .5 1.5a4 4 0 010 3.1"/>
      <path id="computer_dot_2_" d="M97.5 60.9a1 1 0 10-.6-1.8 1 1 0 00.6 1.8"/>
      <path id="computer_dot_1_" d="M100.5 59.8a1 1 0 10-.7-1.8 1 1 0 00.7 1.8"/>
      <path id="computer_dot" d="M103.4 58.7a1 1 0 10-.6-1.7 1 1 0 00.6 1.7"/>
      <path id="computer_3_" d="M142.3 66.4a1 1 0 00-.5-.6l-8-3.7a1 1 0 10-.8 1.7l7.2 3.3-3.4 7.3a1 1 0 101.7.7l3.8-8a1 1 0 000-.7"/>
      <path id="computer_2_" d="M123.9 79l-7.2-3.3 3.4-7.2a1 1 0 10-1.7-.8l-3.8 8c-.2.5 0 1 .4 1.3l8.1 3.8h.4a1 1 0 00.4-1.7"/>
      <path id="computer_1_" d="M128.7 63.7c-.5 0-1 .4-1 1l-.4 13.5c0 .5.4 1 .9 1s1-.5 1-1l.4-13.5c0-.5-.4-1-1-1"/>
    </g>
    <g id="_x31_01_6_" clip-path="url(#SVGID_4_)" fill="#3776AA">
      <path id="_x31_01_5_" d="M1155 76a16.9 16.9 0 110-33.8 16.9 16.9 0 010 33.8m0-31.9h-1.3a15 15 0 101.3 0"/>
      <path id="_x31_01_4_" d="M1155 81.3a22 22 0 01-22.1-20.2 22 22 0 0120.2-24 22 22 0 0124 20.1 22 22 0 01-22.1 24.1m0-42.5a20.7 20.7 0 00-15.6 7.3 20.2 20.2 0 002.5 28.6 20.2 20.2 0 0028.7-2.5 20.2 20.2 0 00-2.5-28.6 20.2 20.2 0 00-13-4.8"/>
      <path id="_x31_01_3_" d="M1155.2 65.4a3.6 3.6 0 01-3.5-3.2l-.5-5.3a3.6 3.6 0 015.9-3c.7.5 1.2 1.4 1.2 2.3l.5 5.3a3.6 3.6 0 01-3.6 4m-.4-10.7h-.2a1.7 1.7 0 00-1.5 1.9l.4 5.3c.1 1 1 1.6 1.9 1.6 1-.1 1.6-1 1.5-1.9l-.4-5.3a1.7 1.7 0 00-1.7-1.6m-.3-.9z"/>
      <path id="_x31_01_2_" d="M1164.7 64.6a1 1 0 01-1-.8l-.6-8.4-1 1.2a1 1 0 11-1.4-1.2l2.4-3a1 1 0 011.7.5l.9 10.7a1 1 0 01-1 1"/>
      <path id="_x31_01_1_" d="M1147.5 66.1a1 1 0 01-1-.8l-.6-8.4-1 1.2a1 1 0 01-1.7-.6l.3-.6 2.4-2.9a1 1 0 011.2-.2l.1.1.3.6 1 10.6a1 1 0 01-1 1"/>
      <path id="_x31_01" d="M1177.2 87c-1.4 0-2.6-.5-3.5-1.5l-7.9-7.8a1 1 0 01-.2-.8c0-.3.1-.5.4-.7 2.1-1.4 4-3.1 5.5-5.2a1 1 0 011.4-.2l7.7 7.8a5 5 0 01-3.4 8.4m-9.3-9.9l7.1 7.1a3.1 3.1 0 004.3 0 3 3 0 000-4.3l-7-7c-1.2 1.6-2.7 3-4.4 4.2"/>
    </g>
    <path id="cube" clip-path="url(#SVGID_4_)" fill="#3776AA" d="M273 161.7v-11.8a3.4 3.4 0 10-3.3-5.8l-10.2-5.9v-.8a3.4 3.4 0 00-6.8 0l.1.9-10.2 5.8a3.4 3.4 0 10-3.3 5.8v12.5a3.4 3.4 0 103.3 5.8l10.2 5.8-.1.9a3.4 3.4 0 006.9 0l-.1-.9 10.4-6.4a3.4 3.4 0 005.7-2.6c0-1.6-1.1-3-2.6-3.3m-4.3 3.3c0 .4 0 .7.2 1l-10.4 6.4c-.4-.4-.9-.7-1.4-.8V159a3.4 3.4 0 002.4-4.1l10.2-6c.4.4.9.7 1.4.9v11.9a3.4 3.4 0 00-2.4 3.2m-15 7.4l-10.1-5.9v-.8c0-1.6-1-2.9-2.4-3.3v-12.5c.5-.2 1-.4 1.4-.8l10.2 5.9-.1.8c0 1.6 1 3 2.5 3.3v12.5c-.5.1-1 .4-1.5.8m2.4-31.6c1 0 1.8-.4 2.4-1l10.3 6-.1.8v.8l-10.2 6a3.4 3.4 0 00-4.7 0l-10.2-6v-.8-.8l10.2-6c.6.7 1.4 1 2.3 1m0 16.6a1.6 1.6 0 110-3.1 1.6 1.6 0 010 3.1m16-12.4a1.6 1.6 0 110 3.2 1.6 1.6 0 010-3.2m-16-9.2a1.6 1.6 0 110 3.2 1.6 1.6 0 010-3.2m-17.4 10.8a1.6 1.6 0 113.1 0 1.6 1.6 0 01-3.1 0m1.5 20.7a1.6 1.6 0 110-3.2 1.6 1.6 0 010 3.2m16 9.1a1.6 1.6 0 110-3.1 1.6 1.6 0 010 3.1m16-9.8a1.6 1.6 0 110-3.1 1.6 1.6 0 010 3.1"/>
    <g id="chemistry_2_" clip-path="url(#SVGID_4_)" fill="#3776AA">
      <path id="chemistry_1_" d="M507 70.7a4.7 4.7 0 100 9.4 4.7 4.7 0 000-9.4"/>
      <path id="chemistry" d="M536.1 75.4c0-1.8-1-3.5-3-5v-.1l.1-.3.1-.6a3.6 3.6 0 00-4.4-3.5h-.3l-.4.2-.3.2a3.7 3.7 0 00-1 .8l-.1.1-3.8-1c.5-1.5.8-3 1-4.3 1.2-6 .3-10.2-2.4-11.7-2.7-1.6-6.7-.3-11.4 3.7l-3.2 3c-5.6-5.9-11.1-8.7-14.5-6.7-1.4.8-2.3 2.3-2.7 4.5l-.6.2h-.2l-.4.3-.2.1a3.7 3.7 0 00-1.1 1.4l-.1.2-.2.4v.3a3.6 3.6 0 000 1.3v.3l.2.4v.2c.2.1.2.3.3.4l.2.2.2.3.2.2a3.4 3.4 0 001.5.8h.3l.1.1 1 4.3c-7.9 2-13 5.4-13 9.3s5.1 7.3 13 9.2l-1 4.3c-1 6-.2 10.1 2.5 11.7.7.4 1.5.6 2.4.6 3.3 0 7.7-2.7 12.1-7.4.9 1 1.7 1.8 2.6 2.5l-.3.7v.8a3.6 3.6 0 004.3 3.5h.1a3.5 3.5 0 001.7-1c3 1.4 5 1 6.2.3 2.7-1.6 3.6-5.7 2.5-11.7l-1-4.3c7.9-2 13-5.3 13-9.2m-4.7-6v.4l-.2.4a1.7 1.7 0 01-3.1-1.5 1.8 1.8 0 01.6-.8 1.7 1.7 0 01.5-.2h.5c1 0 1.7.7 1.7 1.7m-20-14.1c3-2.6 5.7-3.9 7.7-3.9.6 0 1.1.1 1.6.4 1.9 1.1 2.5 4.6 1.5 9.7-.2 1.4-.6 2.8-1 4.2-2.5-.5-5.1-.9-8-1a65 65 0 00-4.9-6.4l3.1-3m3.5 24.6l-2.7 4.4a79.2 79.2 0 01-10.3 0 77.4 77.4 0 01-5.2-9 77.7 77.7 0 015.2-8.9 79.8 79.8 0 0110.3 0 79.3 79.3 0 015.2 9l-2.5 4.5m3.5-2.4a62 62 0 012.2 5.8l-6 .8a81.3 81.3 0 003.8-6.6m-7.5 8.8A62.4 62.4 0 01507 91a62 62 0 01-3.9-4.8 80.2 80.2 0 007.7 0M499.5 84l-6-.8c.6-2 1.3-3.8 2.2-5.8a81.1 81.1 0 003.8 6.6m-3.8-10.9l-2.3-5.7c2-.4 4-.7 6.1-.9a80.4 80.4 0 00-3.8 6.6m7.5-8.7c1.3-1.8 2.6-3.4 3.9-4.8l3.8 4.8a80 80 0 00-7.7 0m13.4 5.4l-2-3.3c2 .2 4.1.5 6 1-.6 1.8-1.3 3.7-2.2 5.6l-1.8-3.3m-25.8-10h-.3a1.7 1.7 0 010-3.4c1 0 1.8.8 1.8 1.7 0 1-.7 1.6-1.5 1.8m1 1.6a3.6 3.6 0 00-.2-6.8c.4-1.5 1-2.5 1.8-3 2.4-1.4 7.2 1 12.4 6.5-1.7 1.9-3.4 4-5 6.3-2.8.2-5.5.6-8 1.1l-1-4.1m-12 13.8c0-2.8 4.4-5.7 11.8-7.5.8 2.4 1.8 5 3 7.5-1.2 2.5-2.2 5-3 7.4-7.4-1.7-11.8-4.6-11.8-7.4M493.4 99c-1.9-1.2-2.5-4.7-1.6-9.8l1-4.2c2.5.5 5.2.9 8 1.1 1.6 2.3 3.3 4.5 5 6.4-5.2 5.5-10 7.9-12.4 6.5m17.7-1.2c0-.5.2-.9.4-1.1a1.7 1.7 0 012.9 2l-.7.6-.3.1h-.1l-.4.1c-1 0-1.8-.8-1.8-1.7m11.1-8.6c1 5.1.4 8.6-1.5 9.8-1.3.7-3 .3-4.3-.3v-1a3.6 3.6 0 00-5.6-2.9l-2.5-2.3a65 65 0 005-6.4c2.8-.2 5.5-.6 8-1l1 4.1m.2-6.4c-.8-2.4-1.8-4.9-3-7.4 1.2-2.6 2.2-5 3-7.5l3.6 1v.5a3.6 3.6 0 006 2.6c1.1.9 2.2 2 2.2 3.4 0 2.8-4.4 5.7-11.8 7.4"/>
    </g>
    <path id="globe" clip-path="url(#SVGID_4_)" fill="#3776AA" d="M1440.8 63V63a23.5 23.5 0 00-15-18 23.3 23.3 0 00-23.1 4.1l-.1.1a23.3 23.3 0 00-8 21.8v.1a23.5 23.5 0 0023.2 19.4 23.4 23.4 0 0023-27.4m-11.3 7.2c1-3 1.8-6.2 2-9.2l7.6 2.7c.5 3.3.2 6.6-.8 9.7l-8.8-3.2zm-32.3-9.7l8.8 3.2c-1 3.1-1.8 6.2-2 9.2l-7.6-2.7c-.5-3.3-.2-6.6.8-9.7m10.5 3.8l8.8 3.2-3.2 8.8-7.6-2.7c.3-3 1-6.1 2-9.3m22-9.5c.2 1.2.2 2.4.2 3.6l-7.1-2.6 3.2-8.7c2 1.2 3.3 3.9 3.7 7.7m-5.5-8.3l-3.2 8.7-7-2.6c.7-1 1.5-1.9 2.3-2.6 2.5-2.4 5-3.6 7-3.6h.9m-3.8 10.5l-3.2 8.9-8.8-3.2c1.2-3.1 2.7-6 4.4-8.4l7.6 2.7zm-7.7 21.2l-3.2 8.7c-2-1.2-3.3-3.9-3.7-7.7-.2-1.2-.2-2.4-.2-3.6l7 2.6zm-1.4 9.3l3.2-8.7 7 2.6c-3.4 4.2-7.1 6.6-10.2 6.1M1415 77l3.2-8.8 8.8 3.2a40 40 0 01-4.4 8.3L1415 77zm3.8-10.6l3.2-8.8 7.7 2.8c-.3 2.9-1 6-2 9.2l-8.9-3.2zm18.4-8.6c.5 1.3 1 2.5 1.3 3.8l-6.9-2.5-.1-4.5a17 17 0 00-1.4-5.2c3 2.1 5.5 5 7 8.4m-28.6-10.4a21.5 21.5 0 0111-2 17 17 0 00-4.5 3.2l-3 3.3-6.9-2.5 3.4-2m-5.1 3.4l7.5 2.7a42.2 42.2 0 00-4.4 8.4l-8.8-3.2c1.3-3 3.2-5.8 5.7-8m-5.3 25.4c-.6-1.2-1-2.5-1.3-3.8l6.9 2.5v4.5c.3 2 .8 3.8 1.5 5.2-3-2.1-5.5-5-7.1-8.4m28.7 10.4a21.4 21.4 0 01-11 2 21 21 0 007.5-6.5l6.9 2.5a22 22 0 01-3.4 2m5.1-3.4l-7.5-2.7c1.7-2.4 3.1-5.3 4.4-8.4l8.7 3.2c-1.2 3-3.1 5.8-5.6 8"/>
    <path id="tool_1_" clip-path="url(#SVGID_4_)" fill="#3776AA" d="M1001.7 379.2a13.3 13.3 0 01-12-19 13.2 13.2 0 0117.6-6.3 13.2 13.2 0 016.4 17.6 13.2 13.2 0 01-12 7.7m0-24.7a11.4 11.4 0 100 22.8 11.4 11.4 0 000-22.8"/>
    <path id="tool" clip-path="url(#SVGID_4_)" fill="#3776AA" d="M1007.4 387.3a2 2 0 01-1.5-.6l-2.3-2.6c-1.8.1-3.6 0-5.4-.3l-2.6 2.4a2 2 0 01-2.1.4l-2.4-1.1a2 2 0 01-1-1.9l.1-3.5a18.6 18.6 0 01-3.6-4l-3.6-.1a2 2 0 01-1.7-1.3l-1-2.4a2 2 0 01.6-2.1l2.6-2.4c-.1-1.8 0-3.6.3-5.3l-2.4-2.6a2 2 0 01-.4-2.2l1.1-2.4a2 2 0 011.9-1l3.5.1c1.2-1.4 2.5-2.6 4-3.6v-3.5a2 2 0 011.4-1.8l2.4-.9a2 2 0 012.1.5l2.4 2.7c1.8-.2 3.6-.1 5.3.2l2.6-2.4a2 2 0 012.2-.4l2.3 1.2a2 2 0 011.1 1.8l-.1 3.5c1.4 1.2 2.6 2.5 3.6 4l3.5.1a2 2 0 011.8 1.3l.9 2.4a2 2 0 01-.5 2.1l-2.7 2.4c.2 1.8.1 3.6-.2 5.3l2.4 2.7c.5.5.7 1.4.3 2.1l-1 2.4a2 2 0 01-2 1l-3.4-.1a18.7 18.7 0 01-4 3.6l-.1 3.6a2 2 0 01-1.3 1.7l-2.5 1a2 2 0 01-.6 0m-3.8-5.1c.5 0 1 .2 1.4.6l2.3 2.6 2.6-.8.1-3.6c0-.6.3-1.2.9-1.6 1.3-.8 2.5-2 3.5-3.2a2 2 0 011.6-.7l3.5.2 1.1-2.4-2.4-2.6a2 2 0 01-.5-1.7c.3-1.6.4-3.2.2-4.8 0-.6.2-1.2.7-1.6l2.6-2.4.9-.3-.9.3-.9-2.5-3.5-.1a2 2 0 01-1.6-.9c-.9-1.3-2-2.5-3.2-3.5a2 2 0 01-.7-1.6l.2-3.5-2.4-1.2-2.7 2.5a2 2 0 01-1.6.5c-1.6-.3-3.2-.4-4.8-.3a2 2 0 01-1.6-.6l-2.4-2.6-2.5.9-.1 3.5a2 2 0 01-.9 1.6c-1.3.9-2.5 2-3.5 3.2a2 2 0 01-1.6.7l-3.5-.2-1.2 2.4 2.4 2.6c.5.5.6 1.1.5 1.7-.3 1.6-.3 3.2-.2 4.8a2 2 0 01-.6 1.6l-2.6 2.4.8 2.5 3.6.1a2 2 0 011.5.9c1 1.3 2 2.5 3.3 3.5.4.4.7 1 .7 1.6l-.2 3.5 2.4 1.2 2.6-2.5a2 2 0 011.7-.4 16.2 16.2 0 005 .2"/>
    <g id="globe_data_6_" clip-path="url(#SVGID_4_)" fill="#3776AA">
      <path id="globe_data_3_" d="M396.4 260.4a3.4 3.4 0 00-1.2 6.7h.6a3.4 3.4 0 003.4-2.8c.4-1.8-.9-3.6-2.8-4m1 3.7a1.6 1.6 0 01-1.8 1.3 1.6 1.6 0 111.8-1.3z"/>
      <path id="globe_data_2_" d="M402.2 264a1 1 0 10-.4 1.8 1 1 0 00.4-1.9"/>
      <path id="globe_data_1_" d="M418.2 266.7l-9.9-1.7a1 1 0 00-.3 1.8l9.8 1.8h.2a1 1 0 00.2-1.9"/>
      <path id="globe_data" d="M368.2 231.6c.7-4 2.2-7.6 4.6-10.8l11.9 2a3.4 3.4 0 012.8 4 3.4 3.4 0 01-4 2.9l-5-1a1 1 0 10-.3 1.8l.7.3h.1l.5.3c.7.6 1.2 1.3 1.5 2V234a3.4 3.4 0 01-4 3.5c-1.4-.2-2.8.1-3.9.9s-2 2-2.2 3.4a5.3 5.3 0 004.3 6.2l1.8.3c.4 0 .7.2 1 .3h.2l.8.5c1.1.7 2 1.9 2.3 3.2v1h.1a5.3 5.3 0 01-.4 2.2l-.1.3-.4.6-.2.3a5.5 5.5 0 01-.7.8l-.3.2a25.9 25.9 0 01-11.1-26m58.8 13.6a3.4 3.4 0 00-2.3-1.4l-4-.7a26 26 0 00.5-11.3 27.8 27.8 0 10-32.6 31.6l-.5 2.8a3.4 3.4 0 002.8 4l28.3 5h.6c1.6 0 3.1-1.2 3.4-2.8l1.3-7.4c.3-1.9-1-3.7-2.8-4h-.3l.5-3.1H422.8c1.7 0 3.1-1 3.4-2.8l1.3-7.3c.2-1 0-1.9-.5-2.6m-28.8-34.7a26 26 0 0120.9 20.3l-20.1-3.6c-.2 0-.5 0-.7-.2l-.6-.3a3.5 3.5 0 01-1.4-2l-.1-.6v-.2a3.4 3.4 0 01.2-1.3v-.2l.3-.4.1-.1c0-.2.2-.3.3-.4l.1-.1a3.4 3.4 0 01.9-.6l.2-.1.4-.2h1.5a1 1 0 00.3-1.9l-6.4-1.1a5.3 5.3 0 01-4-7c2.7-.5 5.4-.4 8.1 0M381 258.7l.7-.8.1-.2.6-.8a7 7 0 00.9-3.6c0-.5 0-1-.2-1.3v-.2c0-.4-.2-.8-.4-1.1v-.2l-.7-1.1v-.1l-.9-1-.1-.1-1-.8h-.1l-1.2-.7-1.3-.3-1.8-.4a3.4 3.4 0 011.2-6.7h1.3l.8-.1.3-.1.6-.2.4-.2.5-.3.3-.3c.7-.6 1.2-1.3 1.5-2v-.1a5.5 5.5 0 00.4-2v-.2-.7l-.7-1.8 1 .2A5.3 5.3 0 00385 221l-10.9-1.9c3.7-4.2 8.5-7 13.9-8.3v.2a7.1 7.1 0 005.8 8.3l2.4.5a5.3 5.3 0 00-2 4.2l.1.2.1.8v.1a5.3 5.3 0 002.2 3.1l.1.1.8.4h.1l1 .4 20.8 3.6a25.8 25.8 0 01-.6 10l-22.4-4h-.7-.1l-.5.1h-.1l-.6.2a3.5 3.5 0 00-1 .7l-.4.5v.1l-.3.5v.1l-.3.7-1.3 7.4c-.3 1.8 1 3.6 2.8 4h.3l-.5 3h-.3c-1.9-.3-3.7 1-4 2.8l-.5 2.8c-2.8-.6-5.4-1.5-8-3m41.7 6l-1.3 7.5c-.1.8-1 1.4-1.8 1.2l-28.3-5a1.6 1.6 0 01-1.2-1.8l1.3-7.4a1.5 1.5 0 011.1-1.2h.7l28.3 5c.8.1 1.4 1 1.2 1.8m-3-4l-15.6-2.8-8.5-1.5.6-3 24 4.2-.5 3zm4.8-5.9c-.2.9-1 1.4-1.8 1.3l-1.3-.2-12.9-2.3-14.1-2.5c-.4 0-.8-.3-1-.6-.3-.4-.4-.8-.3-1.2l1.3-7.4c.1-.9 1-1.4 1.8-1.3l28.3 5c.9.2 1.4 1 1.3 1.8l-1.3 7.4z"/>
      <path id="globe_data_4_" d="M399.5 243.1a3.4 3.4 0 10-1.2 6.8 3.4 3.4 0 001.2-6.8m.3 4.7l-1.2.3c-.4-.1-.8-.3-1-.7a1.6 1.6 0 01.4-2.2 1.5 1.5 0 011.1-.2 1.5 1.5 0 011.3 1.8c0 .4-.3.8-.6 1"/>
      <path id="globe_data_5_" d="M405.2 246.7a1 1 0 10-.3 1.8 1 1 0 00.3-1.8"/>
      <path d="M421.2 249.5l-9.9-1.7a1 1 0 10-.3 1.8l9.9 1.7h.1a1 1 0 00.2-1.8"/>
    </g>
    <path id="cloud" clip-path="url(#SVGID_4_)" fill="#3776AA" d="M769.4 198a5.3 5.3 0 00-10.5 1l-6 1a8.8 8.8 0 00-6.6-5.2c-.3-1-.9-2-1.6-2.8l5.1-7.3a5.3 5.3 0 006.6-1.8 5.3 5.3 0 10-8.1.7l-5 7a8.7 8.7 0 00-9.7-.4l-1.7-9.9a5.3 5.3 0 003.4-6 5.3 5.3 0 10-5.3 6.3l2 10.9c-.9.8-1.6 1.7-2 2.8l-1.7.1a7 7 0 00-3.2 1.5l-9.1-6.3a5.3 5.3 0 10-1 1.5l8.7 6.2a7 7 0 00-1.3 4.6 7 7 0 00-4.6 4.3l-6.5 1.1a5.3 5.3 0 10.3 1.9l5.7-1a7.1 7.1 0 008.3 7.6h.2l-5.2 7.4a5.3 5.3 0 101.5 1l6.3-9 7.5-1.3 2.5 14.3a5.3 5.3 0 00-3.4 5.9 5.3 5.3 0 006.2 4.3 5.3 5.3 0 00-1-10.5l-2.5-14.3 7.5-1.3 9.3 6.5a5.3 5.3 0 001.8 6.6 5.3 5.3 0 007.4-1.3 5.3 5.3 0 00-1.3-7.4 5.3 5.3 0 00-6.8.6l-7.9-5.5a8.7 8.7 0 005.8-9.9v-.1l5.7-1a5.3 5.3 0 0010.2-2.8M749.2 178a3.4 3.4 0 014.8-.8 3.4 3.4 0 11-4.8.8m-21.1.2a3.4 3.4 0 114-5.6 3.4 3.4 0 01-4 5.6M714 189.3a3.4 3.4 0 11-5.6-4 3.4 3.4 0 015.6 4m-7 23.2a3.4 3.4 0 01-4-2.8 3.4 3.4 0 012.7-4 3.4 3.4 0 011.2 6.8m14.3 17.5a3.4 3.4 0 01-5.7-4 3.4 3.4 0 115.7 4m19-.3a3.4 3.4 0 110 7 3.4 3.4 0 010-7m16.3-10.6a3.4 3.4 0 115.6 3.9 3.4 3.4 0 01-5.6-4m-6-11.6a6.9 6.9 0 01-4.4 2.9l-20.8 3.6a5.2 5.2 0 01-6-4.2 5.2 5.2 0 014.1-6 1 1 0 00.7-.6l.1-.1c.2-.2.2-.5.2-.7a5.2 5.2 0 016-6c.5 0 1-.2 1-.7a6.9 6.9 0 0113.3.3c.1.4.4.6.8.7a7 7 0 015 10.8m14.3-5a3.4 3.4 0 01-1.2-6.8c1.9-.4 3.7.9 4 2.7.3 2-1 3.7-2.8 4"/>
    <path id="microscope_1_" clip-path="url(#SVGID_4_)" fill="#3776AA" d="M1050.9 154.4c-.4-.7-1-1.3-1.8-1.6-.8-.3-1.7-.3-2.4.1a3.2 3.2 0 104.2 1.5m-2.3 2.6a1.3 1.3 0 01-1.8-.7 1.3 1.3 0 012.4-1c.3.6 0 1.4-.6 1.7"/>
    <path id="microscope" clip-path="url(#SVGID_4_)" fill="#3776AA" d="M1086 187.8l-2.2-4.7a2.2 2.2 0 00-3-1l-5.5 2.5a22.6 22.6 0 00-22-34 7.3 7.3 0 00-12.2 2.7l-.2.4-1.2-2.7a3.4 3.4 0 00-3.7-1.9l-1-2c1.2-1 1.7-2.6 1-4l-.9-1.9a1 1 0 00-1.2-.5l-12.8 6a1 1 0 00-.5 1.3l.8 1.8a3.4 3.4 0 003.8 2l1 2a3.4 3.4 0 00-1 4l7.6 16.4.3.4 4.2 3 .3.8a5.5 5.5 0 009.9-4.6l-.5-.8.5-5v-.1l-.1-.5-2.3-4.9.4.2a7.4 7.4 0 005.6-.2 11.5 11.5 0 0115.5 5.6 11.5 11.5 0 01-5.6 15.4l-1 .5-.1-.3-.9-1.9a2.2 2.2 0 00-2.9-1l-18.7 8.7c-1 .5-1.6 1.8-1 3l.8 1.7a2.2 2.2 0 003 1.1l12.5-5.9 2.2 4.7-12.6 6c-.5.2-1 .6-1.1 1.2-.2.5-.2 1 0 1.6l2.3 4.8a2.2 2.2 0 002.9 1l38.5-18a2.2 2.2 0 001-2.9m-59-36.8l3.3-1.5 3.2-1.5.8 1.8-6.4 3-.9-1.8zm-3.8-2l-.4-1 11.1-5.2.5 1c.3.8 0 1.7-.8 2v.1l-1.6.7-6.7 3.2c-.8.3-1.7 0-2-.8m22.3 20.4l-.3 3-7.2 3.3-2.5-1.7 10-4.6zm-1.4 10a3.6 3.6 0 01-5-2.1l6.5-3 .2.3c.8 1.8 0 3.9-1.7 4.7m-4.4-9.3l-5.6 2.6-7.2-15.6c-.4-.7 0-1.7.7-2l4.2-2 4-1.9h.1a1.6 1.6 0 012.1.7l7.3 15.6-5.6 2.6zm6.4-9a5.5 5.5 0 01-3.3-7 5.5 5.5 0 017-3.4 5.5 5.5 0 013.4 7 5.5 5.5 0 01-7 3.4m-6.9 32.6l-.4-.1-.8-1.9c-.1-.1 0-.3.1-.4l18.7-8.7h.2l.3.1.8 1.9v.2l-.1.2-2.2 1-3.1 1.4-13.5 6.3zm24.6-3.7l-7.3 3.4-2.2-4.7 1.8-.8 5.5-2.6a13.4 13.4 0 006.6-18 13.4 13.4 0 00-14-7.6c.3-.4.5-.8.6-1.3.7-1.8.6-3.8-.2-5.6l-.2-.3a20.7 20.7 0 0117.3 33.8l-7.9 3.7m20.4-1l-.2.1-38.5 18-.4-.1-2.2-4.8c-.1 0 0-.2 0-.2l.1-.2 29.7-13.8 8.9-4.2a.3.3 0 01.2 0l.2.2 2.2 4.7v.3"/>
    <g id="console_3_" clip-path="url(#SVGID_4_)" fill="#3776AA">
      <path id="console" d="M938.4 59.3a1 1 0 00-.6.5l-1.4 3.5-3.4-1.4a1 1 0 00-1.3.5l-2.5 6.4c-.2.4 0 1 .5 1.2l3.5 1.4-1.4 3.5v.7c0 .2.2.4.5.5l6.4 2.6a1 1 0 001.2-.6l1.4-3.4 3.5 1.4a1 1 0 001.2-.5l2.6-6.4a1 1 0 00-.6-1.2l-3.4-1.4L946 63a1 1 0 00-.6-1.2l-6.3-2.6a1 1 0 00-.8 0m5.6 4l-1.4 3.4a1 1 0 00.5 1.2l3.5 1.5-2 4.6-3.4-1.4a1 1 0 00-1.2.5l-1.4 3.5-4.7-1.9 1.5-3.5c.1-.5 0-1-.6-1.2l-3.4-1.4L933 64l3.5 1.4c.5.2 1 0 1.2-.5l1.4-3.5 4.7 1.8z"/>
      <path id="console_button_3_" d="M957.1 76.4a4 4 0 107.6 3 4 4 0 00-7.6-3m4.6-.6a2.2 2.2 0 11-1.6 4.1 2.2 2.2 0 011.6-4"/>
      <path id="console_button_2_" d="M971 82a4 4 0 107.6 3 4 4 0 00-7.6-3m1.8.7a2.2 2.2 0 012.8-1.2 2.2 2.2 0 11-2.8 1.2"/>
      <path id="console_button_1_" d="M961.3 86.1a4 4 0 107.5 3 4 4 0 00-7.5-3m1.7.7a2.2 2.2 0 114 1.7 2.2 2.2 0 01-4-1.7"/>
      <path id="console_button" d="M969.1 77.5l1.5.3a4 4 0 10-1.5-.3m-.5-4.6a2.2 2.2 0 012.9-1.2 2.2 2.2 0 11-2.9 1.2"/>
      <path id="console_2_" d="M954 65l5.8 2.3a1 1 0 001.2-.5c.2-.5 0-1-.5-1.3l-5.8-2.3a1 1 0 10-.7 1.7"/>
      <path id="console_1_" d="M971.3 54.7a5.9 5.9 0 003.2 7.8 6 6 0 007.8-3.3l6.5-16.2a1 1 0 10-1.7-.7l-6.6 16.2a4 4 0 01-5.3 2.2 4 4 0 01-2.2-5.3l1.9-4.6a6 6 0 00-11-4.5l-5.3 13-14.8-5.9a16.6 16.6 0 00-21.6 9.2c-3.4 8.4.7 18.1 9.2 21.5 2.4 1 5 1.6 7.6 1.9a31.2 31.2 0 0117 6.8c2 1.6 4.2 3 6.7 4A16.5 16.5 0 10975 66l-14.8-6 5.2-13a4 4 0 017.6 3l-1.8 4.6zm9.8 18.5a14.8 14.8 0 011.4 13.7 14.6 14.6 0 01-19.1 8.1c-2.3-.9-4.4-2.1-6.3-3.6a33 33 0 00-18-7.3c-2.4-.2-4.7-.8-7-1.7a14.7 14.7 0 015.3-28.3h.2a14.6 14.6 0 015.5 1l31.3 12.7c2.7 1.1 5 3 6.7 5.4"/>
    </g>
    <g id="lamp" clip-path="url(#SVGID_4_)" fill="#3776AA">
      <path id="lamp_bulb" d="M820.4 381.6l-.9.3-.6-1.7.8-.3a1 1 0 00-.6-1.8l-.9.3-.6-1.8.9-.3a1 1 0 00-.7-1.7l-.9.3-.5-1.5a1 1 0 00-1.2-.5l-1.1.4a23.4 23.4 0 011.9-11 16 16 0 00-.2-12.3 16 16 0 00-19.7-8.8 15.8 15.8 0 00-9.9 20.6 16 16 0 007.5 8.6 23.4 23.4 0 018.5 7.2l-1.1.4a1 1 0 00-.6 1.2l.6 1.5-1 .3a1 1 0 00.7 1.7l1-.3.6 1.8-1 .3a1 1 0 00.7 1.8l.9-.4.6 1.8-.8.3a1 1 0 00.6 1.8l.9-.3.5 1.4a1 1 0 001.2.6l1.6-.6a6 6 0 0010.5-.3c.6-1.2.7-2.4.5-3.7l1.5-.5c.5-.2.7-.7.6-1.2l-.6-1.5 1-.3a1 1 0 10-.7-1.8m-25.8-12.9a14 14 0 01-6-18.5 14 14 0 018.1-7.2 14.1 14.1 0 0118.5 14.5c-.1 1.4-.4 2.8-1 4-1 2.6-1.5 4.6-1.7 6.5-.3 2-.4 4-.3 5.9l-8.1 3a25.2 25.2 0 00-9.4-8m19.4 23a4 4 0 01-4.7-1.6l7.4-2.7a4 4 0 01-2.7 4.3m-7.8-2.5l-3.7-10L815 375l.5 1.5 3 8.5-12.2 4.5z"/>
      <path id="lamp_11" d="M804.6 371.1c.5-.3.6-.9.3-1.3l-2.7-4.3a1 1 0 10-1.6 1l2.7 4.3a1 1 0 001.3.3"/>
      <path id="lamp_10" d="M808 370h.1c.5-.2.9-.6.8-1.1l-.7-5a1 1 0 00-1.9.2l.7 5c.1.5.5.8 1 .8"/>
      <path id="lamp_9" d="M793.5 337.9a1 1 0 001.7-.7l-2.1-5.9a1 1 0 00-1.8.7l2.2 5.9z"/>
      <path id="lamp_8" d="M785.8 343.8a1 1 0 001.2-1.4l-3.8-3.2a1 1 0 10-1.2 1.4l3.8 3.2z"/>
      <path id="lamp_7" d="M777.2 352l5 .8h.1a1 1 0 00.2-1.8l-5-.9a1 1 0 10-.3 1.9"/>
      <path id="lamp_6" d="M788 369l-3.2 3.8a1 1 0 001.4 1.2l3.2-3.9a1 1 0 00-1.4-1.2"/>
      <path id="lamp_5" d="M824.3 358.4l-4.9-1a1 1 0 00-.3 1.8l4.9 1h.2a1 1 0 00.1-1.8"/>
      <path id="lamp_4" d="M812.8 341.7c.3 0 .6 0 .7-.3l3.3-3.8a1 1 0 10-1.5-1.2l-3.2 3.8a1 1 0 00.7 1.5"/>
      <path id="lamp_3" d="M803.9 337.6h.1a1 1 0 001-.7l.8-5a1 1 0 00-1.8-.3l-.9 5c0 .4.3 1 .8 1"/>
      <path id="lamp_2" d="M782.8 360.7l-5.8 2.1a1 1 0 00.6 1.8l5.9-2.1a1 1 0 00-.7-1.8"/>
      <path id="lamp_1" d="M818.4 349.7h.3l5.9-2.2a1 1 0 00-.7-1.8l-5.8 2.2a1 1 0 00.3 1.8"/>
    </g>
    <g id="robot_3_" clip-path="url(#SVGID_4_)" fill="#3776AA">
      <path d="M655.9 348.4a1 1 0 00-1.3.4l-1.5 3.4a1 1 0 101.7.8l1.5-3.4c.3-.5 0-1-.4-1.2M672 307.8a1 1 0 10-.8 1.7 1 1 0 00.8-1.7M675.8 311.7a1 1 0 10.8-1.7 1 1 0 00-.8 1.7"/>
      <path id="robot_2_" d="M674.7 323.7a20.7 20.7 0 00-5.6-3.6c-.1 0-3.3-1.7-6.4-2a1 1 0 00-1 .7l-4.5 12.7c-.1.3 0 .8.3 1 .1.1 2.7 2 4.5 2.7 1.7 1 4.9 1.7 5 1.7h.2c.3 0 .6-.1.8-.4l6.8-11.6a1 1 0 00-.1-1.2m-8 11.3a18.3 18.3 0 01-4-1.5c-1-.4-2.6-1.4-3.5-2l4-11.4c2.5.4 5 1.7 5.1 1.7 0 0 2.6 1.1 4.5 2.8l-6 10.3z"/>
      <path id="robot" d="M704.9 331.3l-1.3-3.2a1 1 0 10-1.8.7l1 2.5-3 1.8a4.7 4.7 0 00-3.3-1.6l-.6-3.4 2.5-.9a1 1 0 00-.6-1.8l-3.2 1.1a1 1 0 00-.7 1l.7 4.3a4.6 4.6 0 00-2.9 5l-5.8 1.9a3.4 3.4 0 00-2.7-1.5L682 332a4 4 0 001.7-4.8l-1.2-3.4 2-2.1a1 1 0 000-1.4c-.8-.7-1.7-1.3-2.6-1.8a10 10 0 000-7.8c-.9-2.3-2.6-4.3-4.8-5.5l.8-1.9h.6a3.4 3.4 0 003.1-2 3.4 3.4 0 10-6.3-.2c.2.6.5 1 1 1.4l-1 1.9c-5.1-2-10.9.1-13.2 4.8l-3-.8a1 1 0 00-1.2.8l-.3 3-3.3 1.2a4 4 0 00-2.7 4.4l-4.7 2.5c-.3-.4-.7-.7-1.1-.9l-1.8-.3-2.2-5.6a4.6 4.6 0 001.9-5.4l3.7-2.3c.4-.2.5-.7.4-1.1l-1.3-3.2a1 1 0 00-1.8.7l1 2.4-3 1.8a4.7 4.7 0 00-3.3-1.5l-.6-3.5 2.5-.8a1 1 0 10-.5-1.8l-3.3 1.1a1 1 0 00-.6 1l.6 4.3c-1 .4-2 1.2-2.5 2.4a4.7 4.7 0 005 6.6l2.3 5.6c-.5.3-.9.8-1.1 1.3a3.4 3.4 0 106.5.9l4.5-2.3 1.7 5.7-2.3 5.7-1 2.4c-.1.4 0 .8.3 1a46 46 0 009 5.4 46 46 0 0010 3.4c.3 0 .6-.2.8-.5l1.2-2.3 2.9-5.4 5.5-2.3 1 4.9a3.4 3.4 0 00-1.4 4.1 3.4 3.4 0 004.4 2 3.4 3.4 0 002.2-3.3l5.8-2a4.7 4.7 0 004 2.4 4.7 4.7 0 004.5-6.2l3.7-2.2c.4-.3.5-.8.4-1.2m-27.8-32a1.5 1.5 0 011.4-1l.6.2a1.6 1.6 0 11-2 .8m-1.7 7.1c2.2 1 4 2.8 4.8 5 .8 2 .8 4.2 0 6a92.4 92.4 0 00-16.3-7.6c2.1-3.9 7.2-5.4 11.5-3.4m-37.3 5.7a2.8 2.8 0 112.3-5.1 2.8 2.8 0 01-2.3 5m7.6 11.2a1.6 1.6 0 11-2.8-1.3 1.6 1.6 0 012.8 1.3m7.9-5.2a2.2 2.2 0 011.3-2.8l2.3-.9c-.5 2.8-1.2 5.4-2.2 8.2l-1.4-4.5zm16.6 21.6l-.9 1.7a48.9 48.9 0 01-16.7-7.8l.8-1.7a70 70 0 006.3-21.3 83.4 83.4 0 0111.8 4.4s6.3 3 11 6.2a70 70 0 00-12.3 18.5m10.9-14.1l.8 2.3a2.2 2.2 0 01-1.3 2.8l-4.3 1.8c1.5-2.5 3-4.8 4.8-7m3.4 16a1.6 1.6 0 01-2 .7c-.4-.2-.7-.5-.8-1a1.5 1.5 0 01.9-2 1.5 1.5 0 011.2.1 1.6 1.6 0 01.7 2.1m14.4-4a2.8 2.8 0 11-5.1-2.3 2.8 2.8 0 015 2.4"/>
      <path id="robot_1_" d="M658.4 343a7.6 7.6 0 00-6-.1 6 6 0 00-3.5 3.5c-3 8.6-2.8 13.6.8 15.2.6.3 1.3.5 2 .5 3 0 6.4-3.2 10.2-9.6a6 6 0 00.5-5c-.7-2-2.1-3.7-4-4.5m1.9 8.5c-2.8 4.7-6.7 9.9-9.8 8.5-3.1-1.5-1.6-7.9.2-13 .3-1 1.2-1.9 2.4-2.4a5.8 5.8 0 014.5 0c1.4.7 2.5 2 3 3.5.3 1.2.2 2.4-.3 3.4"/>
    </g>
    <g id="pydata" clip-path="url(#SVGID_4_)" fill="#3776AA">
      <path d="M566.5 285l-9.7-26.7-28.1-5 9.7 26.8zM555.3 254.3l-9.7-26.8-28.1-5 9.7 26.9zM565.6 198.9h-.2l-28.1-5a1 1 0 01-.7-.6l-9.8-26.8a1 1 0 011-1.2l28.2 5c.3 0 .6.2.7.5l9.7 26.8a1 1 0 01-.8 1.3m-27.4-6.7l26 4.5L555 172l-26-4.6 9 24.8zM559.3 253l-9.8-26.9 18.4-21.9 9.7 26.9zM546.4 224.6h-.2l-28-5a1 1 0 01-.6-1.5l18.3-21.9c.2-.2.6-.3.9-.3l28 5a1 1 0 01.6 1.5l-18.3 21.9a1 1 0 01-.7.3M520 218l26 4.5 16.9-20.2-26-4.5-17 20.2z"/>
    </g>
    <path id="spark" clip-path="url(#SVGID_4_)" fill-rule="evenodd" clip-rule="evenodd" fill="#3776AA" d="M367.1 68.1l-5.2-3c0 1.3-.2 2.5-.3 3.7l5 3.1c1 .6 2.4.8 3.3.1 1-.6 1.2-1.8 1-2.9l-1.7-7.6 8.2-5.7c1.4-1 1.2-3.5-1.8-3.4h-8.9l-2-7.4c-.8-2-3.3-2.5-4.8 0-.4.6-2.6 5.5-3.6 7.6l-8.6.3c-1 .1-2.1.6-2.6 1.7-.5 1 0 2.1.8 2.8l4.7 4 4.5-1.4-5.4-4.1 8.7-.5c1.2-2.5 3.4-7.5 3.6-7.4l2.2 7.4h8.5l-7.1 5.1 1.5 7.6zm-63.7-.2l-2.3 5.5-3.4-1 3-7.2c.8-2 1.5-3.8 2.5-5.6a9.9 9.9 0 0110.1-5c5 .8 7.6 5.5 5.6 10.2-2 5-8.6 7.4-13.2 4.8-.8-.4-1.4-1.1-2.3-1.7m12.3-4.7c.6-2.1-.6-4.4-2.8-5l-.1-.1c-2.8-.8-6 1-6.8 3.8-.6 2.3.7 4.6 3 5.2 2.8.7 6-1.1 6.7-3.9m-9.5-13l-4 1.6-.8-1.8c-.7-1-1.5-1.3-2.6-1-1.1.3-1.8 1.2-1.3 2.2l2.3 4.5c2 3.5 1.8 6.3-.9 8.7a8.2 8.2 0 01-9.8.8c-1.7-1.2-2.3-3-2.3-5l4.1-1 .4 1.6c.6 1.7 2.3 2.5 4 1.8 1.5-.7 2-2 1-3.7-.7-1.6-1.7-3-2.4-4.7-2.5-4.8 1.5-9.2 6.5-9 3 .3 5 1.8 5.8 5M333.7 77l-3.4-.9 2.4-5.8.6-2.1c.8-3.5-1.5-5.8-5-5.3-3.4.5-5.7 4-4.3 6.8 1 1.8 3 2.8 5.2 2.3l1.7-.6-1.5 3.8c-4.8 1.4-9.6-2.4-9.5-6.8 0-3.5 1.8-6 4.8-7.8 3-1.6 6.1-1.9 9.2-.1a6.7 6.7 0 013.2 8c-1 2.8-2.2 5.6-3.4 8.5m25.5 6.9l-4.5-1.2-3.4-10-3.4 8.1-3.8-1 7.2-17.4 4.9-1.6-3.7 9 8.3-5.3-.4 3.8-5.7 3.5 4.5 12M339 78.4l-3.5-1 3.4-8.1 1-2.6a5.2 5.2 0 016.3-2.9l2.3.7-.7 1.7-.7 1.7-1.9-.5c-1-.3-1.6 0-2 1l-3.6 8.7-.6 1.3"/>
    <path id="python2" clip-path="url(#SVGID_4_)" fill="#3776AA" d="M919.1 318.2a50 50 0 01-12.6-2 37.5 37.5 0 01-15.2-7.3c-3.9-3.5-5.3-7.7-4.2-12l5.3-19.5.3-1.3c1.9-7 7.8-10.4 14.8-8.6l.8.2 22.6 6c5.9 1.6 13.3-2.7 14.9-8.8l2.9-10.7a1 1 0 011.1-.7l8.1 2.2c5.1 1.4 8.1 5.5 8.7 12.1.4 4-.2 9-1.6 14.3a41.3 41.3 0 01-6 13.5c-3.7 5.1-8.3 7.2-13.3 5.8l-32-8.6-.4 1.4 21 5.7a1 1 0 01.8 1.1l-2.2 8.1c-1.7 6-6.2 9-13.8 9M904 269c-4.5 0-8 2.8-9.4 7.7l-.3 1.2-5.2 19.6c-1 3.6.2 7 3.6 10.1 3.2 2.8 8.2 5.2 14.4 6.9 14.3 3.8 22 2 24-5.8l2-7.2-21.1-5.6a1 1 0 01-.7-1.2l.9-3.1a1 1 0 011.1-.7l33 8.8c4.2 1.1 8-.6 11.3-5.1 2.3-3.2 4.3-7.6 5.7-12.9 1.4-5 2-9.8 1.6-13.6-.6-5.8-3-9.3-7.3-10.5l-7.3-2-2.6 10c-1.9 7-10.3 11.9-17.2 10l-22.6-6-.8-.2c-1-.3-2-.4-3-.4m18 43.7a5 5 0 01-4.8-6.3 5 5 0 019.7 2.6 5 5 0 01-4.8 3.7m0-8.2a3.1 3.1 0 100 6.3 3.1 3.1 0 000-6.3"/>
    <path id="python" clip-path="url(#SVGID_4_)" fill="#3776AA" d="M906.3 265.7l23.2 6.2h.2a12.2 12.2 0 0014.8-9l.2-.6 5-18.9c2.3-8.5-6.5-14.9-18.6-18.1-12.2-3.3-22.6-3.3-25.3 6.4l-2.2 8.1 22 5.9-.8 3.2-33-8.9c-4.6-1.2-8.6.8-11.9 5a39 39 0 00-6.2 13.7 42.1 42.1 0 00-1.7 13.2c.4 6 2.9 10.7 8 12l8.2 2.2 2.5-9.2.7-2.6a12.2 12.2 0 0114.9-8.6m8.3-28.8a4 4 0 112.1-7.8 4 4 0 01-2 7.8"/>
    <path id="pytorch" clip-path="url(#SVGID_4_)" fill="#3776AA" d="M878.5 132.7a15.5 15.5 0 11-21.9 0l11-11v5.5l-1 1-7.3 7.3a11.5 11.5 0 000 16.4 11.5 11.5 0 0016.4 0 11.5 11.5 0 000-16.4l2.8-2.8zm-5.4-.7a2 2 0 110-4 2 2 0 010 4"/>
    <g id="pandas" clip-path="url(#SVGID_4_)" fill="#3776AA">
      <path d="M698 101a5.9 5.9 0 01-5 .4l3.8 6.6-3 1.8-9.5-16.4 2.7-1.6 1.2 1.8c.1-2 1.4-3.7 3-4.6 3-1.7 6.8-.5 8.7 3 2 3.3 1.2 7.2-1.9 9m-6.5-9.2c-1.7 1-2.4 3.3-1 5.6 1.3 2.3 3.5 2.9 5.3 1.8 1.8-1 2.4-3.2 1-5.5-1.3-2.4-3.5-3-5.3-1.9M714.6 91l-1.2-1.8c0 2-1.3 3.6-3 4.6-3 1.7-6.7.5-8.7-3-2-3.3-1.2-7.2 1.9-9a6 6 0 015.4-.2l-1-2 2.8-1.5 6.5 11.3-2.7 1.6zm-8.8-7.4c-1.7 1-2.4 3.2-1 5.5 1.3 2.3 3.5 2.9 5.3 1.9 1.8-1 2.4-3.3 1-5.6-1.3-2.3-3.5-2.9-5.3-1.8M728 83.3l-3.7-6.3c-1.2-2.2-2.4-2.5-3.8-1.7-1.4.9-2.2 3-1.3 4.6l3.6 6.3-3 1.8-6.6-11.3 2.8-1.6 1.4 2c-.1-1.9 1-3.8 2.7-4.8 3-1.7 5.4-.3 7 2.5l3.9 6.7-3 1.8zM742 75.1l-1-1.7c-.2 1.9-1.5 3.6-3 4.5-3.1 1.8-6.8.5-8.8-2.9-2-3.4-1.2-7.2 1.9-9a6 6 0 015-.5l-3.4-5.9 3-1.7 9.1 15.6-2.7 1.6zm-8.7-7.4c-1.8 1-2.4 3.2-1 5.6 1.3 2.3 3.5 2.8 5.3 1.8 1.8-1 2.4-3.2 1-5.5-1.3-2.4-3.5-3-5.3-1.9M756.2 67l-1.2-1.8c-.1 2-1.4 3.6-3 4.6-3 1.7-6.7.5-8.7-3-2-3.3-1.2-7.2 1.9-9a6 6 0 015.4-.3l-1-1.8 2.8-1.6 6.5 11.3-2.7 1.6zm-8.8-7.4c-1.8 1-2.4 3.2-1 5.5 1.3 2.3 3.5 2.9 5.3 1.9 1.8-1 2.4-3.3 1-5.6-1.3-2.3-3.5-2.9-5.3-1.8M765.8 61.9c-1.6.9-3.4 1.3-5.2 1.3l-.7-2.4c1.2 0 3 0 4.7-1 1.2-.7 1.8-1.6 1.2-2.5-.4-.8-1.4-.6-3.2 0-3.1 1-5 0-5.9-1.6-1-1.7-.6-4.2 2.5-6 1.8-1 4-1.2 4.4-1.2l.6 2.3c-1.3 0-2.6.3-3.8 1-1.2.7-1.5 1.4-1.1 2.1.4.8 1.4.7 2.7.3 3.4-1.1 5.4-.4 6.2 1 1.5 2.5.5 5-2.4 6.7"/>
      <path transform="rotate(150 659 102.7)" d="M657 98.4h4.1v8.5H657z"/>
      <path transform="rotate(150 667.8 117.8)" d="M665.7 113.6h4.1v8.5h-4.1z"/>
      <path transform="rotate(150 663.4 110.3)" d="M661.3 108.3h4.1v4h-4.1z"/>
      <path transform="rotate(150 661.8 120.6)" d="M659.7 106.5h4.1v28.3h-4.1z"/>
      <path transform="rotate(150 676.8 120.7)" d="M674.8 116.4h4.1v8.5h-4.1z"/>
      <path transform="rotate(150 668.1 105.5)" d="M666 101.3h4.1v8.5H666z"/>
      <path transform="rotate(150 672.5 113.1)" d="M670.4 111.1h4.1v4h-4.1z"/>
      <path transform="rotate(150 674 102.9)" d="M672 88.7h4.1V117H672z"/>
    </g>
    <g id="flask" clip-path="url(#SVGID_4_)" fill="#3776AA">
      <path id="flask_icon" d="M501.6 365c-1.5-1-3-2.2-4.1-3.8-2.3-2.8-4-6-5.2-9.4-.8-2.2-1-4.5-2-6.6-1-1.6.2-3.2 2-3.7.7-.2 2-.9.4-.4-1.4 1-1.6-1-.1-1 1-.2 1.3-1 1-1.7-1-.7 2.6-1.5.8-2.5-2-2.1 2.6-2.5 1.5-.1-.3 1.8 3.2-.4 2.4 1.7.8 1 3 .2 3 1.6 1.2.1 1.6 1.1 2.8 1.2 1.1.5 3.3 1 3.6 2.3-1.1.9-3.8-2-4 .6.4 3.8.3 7.6 1.7 11.2.7 2.1 2.2 3.8 3.7 5.5a16 16 0 005 3.8 21 21 0 005.2 1.6c.8-.5 2-2.6 3.2-1.7 0 1-2.3 2-.1 2 1.2-.5 2.1.9 3.1-.3 1 1.1 4-.8 3.3 1.6-.9.6-2.2.2-3.1 1-1.6-.7-2.8.7-4.5.5-1.8.3-3.7.5-5.6.5-3.1-.3-6.3-.4-9.2-1.5-1.7-.4-3.3-1.4-4.8-2.3m2.7 1.1c1.6.7 3.2 1.4 5 1.7 2.8.4 5.7 1 8.5.4-1.3-.6-2.6.2-3.9-.4-1.5.3-3.2 0-4.7-.3-1.8-.8-3.7-1.3-5.3-2.3-2.1-.8 1 1 1.6 1 1.3.8-1.4-.3-1.8-.6-1.1-.6-1.2-.5-.1.1l.7.4m-3.1-2.2c1.5.6 0-1-.8-1-.3-.5-1.2-.9-.5-1.2-1.2.4-1.2-1.5-1.8-1.2-1.2-.4-.5-1.8-1.9-2.6-.1-.9-1.4-1.6-1.8-3-.2-.6-1.5-2.6-.7-.7.7 1.7 1.8 3.2 2.8 4.7a9.7 9.7 0 003 3.7c.5.5 1 1.2 1.7 1.3m-4.6-5c0-.2.3.6 0 0m6.4 5.7c.4-.1-.5-.2 0 0m.9.3c0-.4-.4.3 0 0m1 .5c.6-.5-.7-.3 0 0m1.9 1c.3-.5-1-.2 0 0m-3.5-2.5c.8-.5-1 0 0 0m.8.4c0-.2-.3.2 0 0m4 2.5c.6.5 3.8 1 1.8.2-.3 0-3.6-1-1.8-.2m-6.4-4.9c0-.3-1-.3 0 0m1.9 1c.5-.3-1-.2 0 0m1.6 1c.7-.2-1.2-.2 0 0m-4.2-2.8c.7.5 3 0 1.1-.4-.8-.4-2.8-.8-1.4.3h.3zm5.2 3.2c.3-.6-1.3-.3 0 0m-1.6-1.3c1.9.5-1.5-1.2-.4-.2l.2.1.2.1zm3.2 1.9c1.8 0-1.5-.3 0 0m-7.5-4.8c0-.4-.4 0 0 0m10.5 6.4c0-.6-.6.5 0 0m-7.5-4.6c-.1-.3-.6 0 0 0m-2.8-2c1-.1-1.4-.5 0 0m-3.4-2.2c-.1-.5-1-.9 0 0m8.8 5.6c-.2-.3 0 0 0 0m5.5 3.3c0-.3-.3.1 0 0m-6-3.8c.1-.5-.8-.2 0 0m-4-2.6c.7-.1-1.3-.5 0 0m6.8 4.3c1.2-.5-1.1-.3 0 0m-3.6-2.5c1.4.2-1.6-.9-.2 0h.2zm4.7 2.9c1.3-.8.9 1.8 2.1.2 1.3-1-1 1.2.5.2 1.1-.8 2.8.3 3.9.7.7 0 1.5.7 2.2.2 1.5-.4-2.9-.6-1.7-1.3-1.4.4-2.4-.5-3-1.3-1.6-.4-3.4-1.2-4.2-2.5-.3-.5.5 0-.2-.8-1-.8-1.4-1.8-2-2.8-.8-.4-.9-1.5-1 0 0-1-.9-1.6-1-1.3 0-1 .9-.5.2-1.2-.1-1-.6-2-.8-3-.2-.6 0-1.7-.7-.5-.3 1.3-.1-1.5.3-.6.6-1-.2-.8-.2-.7.3-.8.2-2-.1-1.5.2-.8.3-3-.3-2.7.4-.9.7-4-.9-2.8-.6 0-1.7.2-2.2.5 1.6.9-.1.3-.8.2 0 .8-.7.4-1.5.4 1.3.2-.6 1.4-1.4 1-1 .4.8 1.5 0 1.9.1.5-1.4-.2-1.3 1-1-.4-.1 1.5.3.8 1.6.5 1.1 1.4 1.2 2.4-.3.5-1.3-1.3-.2-1.2-.9-1.4-1-.5-1.6.1-.2 0 1.7.9.5 1.3 1 .2 1 1.1 1.3 1.7.6.6.5-.7 1.3 0-.5-.7-2.6-2-1-1.5 0-.7-.2-1.3.3-1.3.5-1-.5 2.3.6 1 .3 0 .4-.8 1 .2.8.8.3 1.4-.9.6.2.7 1.5 1 1.3 2 .3 1 .6.7 1 .6.2 1 .4.3.4-.2 1.1.3.9 1 1.2 1.5.8.3-1.1-2.5.3-.9 1.4 1.3.5 1.9-.8 1.7.8-.1 1.1 1 2.1 1 1 .5 1.6 2.2 0 1.5-.6-.5-2.6-1.2-1-.2 1.6.7 2.8 1.1 4.2 2 1 .7 1.5 1.6 1.9 1.8-.9.4-2.6-.4-1.3-.6-.8-.1-1.8-.6-1 .5.7.5 2.4.5 2.7.5-.3.6-.7.6 0 .7-.8.4.2.5.3.7m-1.6-4.6c-.5-.5-.6-1.4 0-.6.2.1.8 1.6 0 .6m5.3 3.4c.3 0 0 .2 0 0m-6-4.6c0-.7.1.6 0 0m-.6-.7c-.6-1.2.8.3 0 0m-6.3-4.4c.3 0 .2.6 0 0m5 2.8c.2-.8.3.7 0 0m-3.5-2.5c-.3-.5.5.4 0 0m3 1c-.5-1.3.4-.7.2.2l-.2-.2zm-5.2-3.5c-.3-.5-.7-1.7-.6-2 .1.5 1.3 2.6.6.8-.8-1.5 1 .5 1.1.8.1.4-.5 0 0 .8-.8-1-.5.6-1.1-.4m-1.7-1.2c.1-1 .4.7 0 0m.8.3c.3-.7.6 1 0 0m-1.8-1.4c-.6-.6-1-1.1 0-.3.4 0-.9-1.3.1-.4 1.1.1.6 1.7-.1.7m1 0c.3-.3.1.4 0 0m.5.2c-.5-1 .6.4 0 0m-1.1-1c-1.8-1.7 2.2.7.3.2l-.3-.3zm5 2.8c-.8-.4-.2-3.2 0-1.3.8-.2 0 1 .6 1-.1.7-.4 1-.6.3m1.9 1.1c0-.8.1.6 0 0m-.3-.3c0-.3 0 .4 0 0m-6.3-4.2c-1.1-1.6 3.3 1.6.7.4-.2 0-.6-.1-.7-.4m3.6 1.9c-.1-1.3.2.2 0 0m2.7 1.8c.2-.8 0 .4 0 0m-6.1-4.3c.7-.1 2.8 1.2.8.4-.2-.3-.6-.2-.8-.4m5.8 2.9c0-1.4.4-.8 0 .2v-.2zM498 347c.3-.4-.7-1.8.1-.5.4.3 1.1.5.5.7 1 .8-.3.2-.6-.2m5 3c.2-1.6.1.9 0 0m-5.6-4.4c.2 0 .1.3 0 0m1.3.8c.3-.7.6.8 0 0m3.7 2c0-.2 0 .4 0 0m-.2-.4c-.5-1.3.4.6 0 0m-.3-.9c-.1-.5.2.7 0 0m.5-.8c-.4-.6.4-2.7.5-1.4-.4 1-.1 1.6.1.2.5-1 0 2.1-.6 1.2m.5-3.1c.1-.2 0 .2 0 0m-.9 17.2c-.2-.2 0 .1 0 0m1.8 1c1 .2 1-.2.1-.4-.5-.4-2-.9-.6 0 0 .2.3.2.5.3m-3.5-2.3c.5.4 2 1.1.7.1.5-.5-.8-.8-.4-1.1-1-.7-.8-.6 0-.6-1.3-.6.1-.5 0-.8-.4-.1-2.4-.9-1.2 0-1.2-.5-.3.3-.7.2-1.2-.3 1 1-.2.6.7.5 1.9 1.4.3.6-.2.3 1.1.7 1.5 1m1.8 1c2.3.8-1-.9 0 0m9.7 5.9c0-.5-.3.4 0 0m1 .4c.5-.5 0 .8.8-.1 0-.7 0-1.1-1-.3-.2.2-.3.8.2.4m-15.8-9.9c-.1-.6-1-.6 0 0m1.1.7c-.4-.6-1.4-.6 0 0m6 3.6c.6.6 2.7.4.7.1-.3-.4-1.8-.3-.7 0m8.3 5c.9-.7-.9.4 0 0m1.9 1.3c0-.2-.4.1 0 0m0-.3c1-1-1 0 0 0m-19.9-12.6c-.8-1.2-.5-1.7-1.3-2.7-.2-.8-1.4-2.5-.7-.7.7 1 1 2.7 2 3.4m19.6 12.3c1.8-1.2-.8-.6 0 0m1.4.5c.9-.8-.6-.2 0 0m-18.7-12c.3-.3-.6 0 0 0m18.4 11.6c.9-.5-.2-.5-.2 0h.2zm-12.1-7.6c0-.4-.5 0 0 0m.7.4c-.2-.5-.4.1 0 0m12.8 7.6c1.2-.8-.7-.1-.2.2l.2-.2zm-.4-.2c.9-.8-1 .4 0 0m2.2 1.5c.6-.4-.8-.1 0 0m-21-13.5c.8.2 3.4 2 1.9.1-.8-.2-.3-2-1.1-1.7.5.8.4 1.2-.7.7-1.3-.7-.7.3-.5.6-.3 0 .5.3.4.3m-3.8-3c.1-.7-1.4-3.4-.7-1.4.2.4.2 1.2.7 1.4m7 4.3c-.4-.4 0 0 0 0m1 .2c0-.6-1.1-.2 0 0m9.3 5.9c-.2-.5-.7 0 0 0m.4.3c0-.3-.2 0 0 0m3.7 2.3c.3-.3-.5 0 0 0m-19.5-12.5c1-.4-1-.3 0 0m14.6 9.1c0-.6-.7.2 0 0m-15-10c.6-.3-.6-.2 0 0m1.9.8c0-.2-.2.1 0 0m22.8 14c.9-.1 2.8.5 3-.2-1 0-3.4-.7-3.5.2h.5zm-22.2-13.8c0-.7-.5 0 0 0m-5-3.4c-.2-1.3-.8-.2 0 0m1.2.3c0-.4-1-.4 0 0m.7.3c-.2-.2-.2.2 0 0m4.2 2.7c.2-.2-.5-.1 0 0M494 349c0-1-1.3-.2 0 0m-2.4-1.6c0-.4-.2.2 0 0m.4-.3c0-.5-.3 0 0 0m2 1.2c.8-.3-1.6-.7-.2 0h.2zm26.5 16.4c.5-.5-.7-.2 0 0m3.2 1.6c.2-.6-.6.1 0 0m-29.5-19c0-.6-.7 0 0 0m-2.8-2c-.2-.8-.2-2.3 1.3-1.8-2 .4 1.3 2.4.9.8.8 0 1.6-.5 1.2.3 1.6-.2 2.7-1.5 4.2-1.4 1.2-.1 2.5-.2 3.8-.7 1.1 0 2.1-1.2 1.5-2-1.4 0-3 .1-4.5.5-1.8.3-3.4 1-5.2 1.3-1.8.3.3.7-.2.8-.9.3 1.1.5-.1.8-.8-.1-1.5-.4-1.2-1.1-1.7.2-3.2.9-1.8 2.6zm4-2c.4-1.4 2.1 1.2.6.2l-.6-.2m0-.7c.6-.4.4.3 0 0m.8 0c0-.6 1.7.4.3.3l-.3-.3zm1-.4c.3-.4 0 .4 0 0m.2-.1c.6-.8 3.4-.5 1.4-.1-.6-.4-1 .2-1.4 0m3.7-.5c-.1-2 1.8.7 0 0m1 0c.4-1 1.5-.4.2-.2 0 .1 0 .5-.2.2m-8.3 5.3c1.1-.7-1.2-.6 0 0m.8.2c.4-.4-.9-.2 0 0m-2.5-1.8c.7-.5-.7-.1 0 0m33.5 21c0-.6-.5.2 0 0m-3.4-2.4c0-.6-.5 0 0 0m4.3 2.6c.9 0 2.7-.3.8-.3-.3 0-1.8 0-.8.3m-31.2-19.8c.8 0 1.2-.8-.1-.8-2-.2 1.8.7-.3.4-.2.2.4.4.4.4m.7.3c0-.5-.2.3 0 0m.7-2c.4-.4-.4-.1 0 0m-2.4-4.1c1.3-.4 3.1-1 3.7.2-.6-.7-.2-1.5.4-.4.8 1.1 1.2-.5.7-.9.6.8 1.3 1.2.4 0 1-1.1-2 .2-2.7.2-.3.2-3.3.8-2.5.9m.8-1.5c.7-.5 2.6.4 1.4-.5-.1-.1-2.6.7-1.4.5m2.7.1c.9 0-.4-1.1.7-.6-.2-.5-1.3-.6-1.8-.9-.2.5.6 1.6 1.1 1.5m-2.2-2.4c.3-.4-.6.2 0 0m1 .2c1.5-.1-.3-.6-.2 0h.3zm-2-1.6c-1-1.3 1.9.2.8-1.1-.8-.7-1.6.8-.8 1.1m12.7 6.9c.4-.8-1.9-1.1-.3-.3.1 0 0 .3.3.3"/>
      <path id="F" d="M498 372.4l-.1 2c0 .2 0 .3-.3.3l-.3-.3-.5-.9c-.2-.2-.4-.3-.8-.3a22.8 22.8 0 00-3 0l-.2.2v4c0 .2.1.3.3.2a46.2 46.2 0 002.7-.2l.2-.8c0-.3.1-.4.4-.3.2 0 .3.1.2.3-.1.8-.2 1.8-.1 3 0 .2-.1.3-.3.3-.2 0-.3 0-.3-.2-.2-.8-.5-1.2-.9-1.2h-2.2v4c0 .3.1.5.4.6l1 .3c.4 0 .5.1.4.3 0 .2-.3.3-.7.3h-3.5c-.3 0-.4 0-.4-.3 0-.2.1-.3.4-.3.6 0 .9-.6.9-1.5v-7.6l-.2-.9-.8-.6c-.3 0-.3-.2-.3-.4 0-.1 0-.2.2-.2h.4l2.7.1a73.1 73.1 0 004.8 0"/>
      <path id="l_1_" d="M503.8 383.6c0 .3-.1.4-.4.4a17.4 17.4 0 00-3.5 0v-.3c0-.2.1-.3.4-.4.4 0 .5-.4.5-.9v-8c0-.5 0-.8-.2-1-.1-.3-.4-.4-.7-.6-.2 0-.3-.1-.3-.2 0-.2.1-.3.4-.4l1.3-.6.6-.3c.3 0 .4.1.4.4v10.6c0 .3 0 .6.2.7.2.2.5.3 1 .3.2 0 .3.2.3.3"/>
      <path id="a_2_" d="M511.8 383.1l-.6.6-1.1.4c-.3 0-.5-.2-.6-.4l-.4-.3-.8.4c-.6.2-1 .3-1.6.3-.5 0-.9-.1-1.2-.4-.4-.3-.5-.7-.5-1.3 0-1 1.1-1.7 3.5-2.2.4 0 .6-.2.6-.5v-.5c0-1-.4-1.5-1.3-1.5-.2 0-.5.2-.7.7-.2.4-.6.7-1 .7-.5 0-.7-.1-.7-.6 0-.3.4-.6 1-1 .8-.4 1.6-.6 2.3-.6 1.2 0 1.8.6 1.7 1.7v3.7c0 .4.2.6.5.6h.4l.3-.1c.2 0 .2 0 .2.3m-2.7-2v-.3h-.4c-1.5.2-2.2.7-2.2 1.4s.4 1 1.1 1c.3 0 .6 0 1-.2.3-.1.5-.3.5-.4V381z"/>
      <path id="s_1_" d="M518.4 382.1c0 .6-.2 1.1-.7 1.5-.5.4-1.1.5-2 .5a8 8 0 01-1.6-.1l-.9-.3v-1.2c0-.3 0-.5.2-.5.1 0 .2 0 .3.2.5.8 1.2 1.2 2.2 1.2.8 0 1.2-.3 1.2-.9 0-.3 0-.5-.2-.6-.3-.2-.7-.5-1.3-.7-.8-.4-1.4-.7-1.7-1-.3-.3-.4-.8-.4-1.3 0-.6.2-1.1.7-1.5a3 3 0 011.8-.5l1.3.1c.5.1.7.2.7.3l.3 1.5-.3.1h-.4c-.4-.8-1-1.2-1.7-1.2-.8 0-1.2.3-1.2.8 0 .3 0 .5.3.7l1.4.7 1.5.8c.4.4.5.8.5 1.4"/>
      <path id="k" d="M528.9 383.7c0 .2-.2.3-.5.3h-2.3c-1-1-1.7-2.1-2.4-3.2 0-.1 0-.2-.2-.2l-.5.3c-.3.2-.4.4-.4.7v.8c0 .4.1.7.3.8l.9.2c.2 0 .4.1.4.3v.2h-.4c-.6 0-1.6 0-3 .2-.4 0-.6 0-.6-.2v-.2c0-.1.1-.3.5-.4.3 0 .5-.4.5-1.1v-7.8l-.1-1c-.2-.2-.5-.4-.9-.5l-.3-.3c0-.2.2-.3.5-.4l1.2-.6.6-.3c.3 0 .4.1.4.4a202 202 0 000 2.6v5.6l.1.2.4-.2a48.3 48.3 0 002-1.9c0-.1-.2-.3-.7-.3-.2 0-.3-.2-.3-.4s.2-.3.3-.2h3.6c.2 0 .3.2.3.4s-.2.3-.5.3l-1.2.3c-.6.3-1.2.7-1.8 1.4l-.1.1s0 .3.3.6c.7 1.1 1.4 2 2 2.5.5.4.9.6 1.3.6h.5v.4"/>
    </g>
    <g id="django" clip-path="url(#SVGID_4_)" fill-rule="evenodd" clip-rule="evenodd" fill="#3776AA">
      <path id="j_1_" d="M1245 127.5l2.1 5.7-5.4 2-2-5.7 5.4-2"/>
      <path id="d" d="M1231 132.7l5.3-2 9.3 25.5c-4.8 2.8-9.6 5-13.8 4.4-5.5-.9-8.8-8.9-6.5-13.8 1.1-2.5 4.3-5 8.6-5.7l-3-8v-.4m-.1 19.6c1.2 3.3 4.3 4.4 8 2.1l-3.3-8.9c-4.4.3-5.9 3.6-4.7 6.8"/>
      <path id="o_1_" d="M1313 112c4.2-2 8.3-1.3 10.8 1.3 4.2 4.3 4 11.2.9 14.3a11.7 11.7 0 01-5.5 3c-5.8 1.5-11.4-3-11.7-10l.1-2.3c.5-2.5 2-4.6 5.3-6.2m4.8 13.8c6.7.2 2.7-12.9-2.8-9.5-3.4 2-.6 9.5 2.8 9.5"/>
      <path id="a_1_" d="M1271.3 147.1c-4.3 2-10.5 5.9-14 3.8-2.1-1.2-3.2-4.6-2.5-6.7.9-2.7 4.3-4.5 7.5-6 0-.8-.6-1.9-1.1-2.3-3.3.4-5.8 2.6-7.6 4.3l-1.5-4.2c2.6-2.6 9.4-6.8 12.8-4.3 1.8 1.4 2.5 4.6 3.5 7.3l3 8.1m-11.7-2.4c-.5 3 3.4 2.3 5.6.7l-1.4-3.7c-1.7 1-3.9 1.6-4.2 3"/>
      <path id="n" d="M1290.3 140.5l-5.4 2-2.5-7c-.8-2.3-1.5-5.3-3-5.8-1.2-.4-3.4.8-4.6 1.7l4.8 13-5.4 2-6-16.7c4.9-3.4 14.3-8.5 17.5-1.9 1.6 3.3 2.9 8.6 4.6 12.7"/>
      <path id="j" d="M1248.2 136l4.2 11.7c1.5 4.8 3 8.5 2 11.4l-1.1 2.2c-.4.6-1 1.7-1.6 2-.5.2-2.3-.1-3-.2l-3-.3c1.6-2 3.2-3.6 3-6.5 0-2.5-1.3-5.7-2.5-8.8l-3.4-9.5 5.4-2z"/>
      <path id="g" d="M1305.6 115.5c0 1.6-.2 3.1-.3 4.6-.5.4-1.1.2-1.3.5 2 5.9 6.2 13.3 5.4 18.4-.4 3-2.4 5.6-6.3 7.3a17.1 17.1 0 01-7.5 1.5l-1.9-5c3 .5 9.7-.6 10.3-4.2.2-1-.1-2-.4-3.3-1 .4-2 1.3-3.4 1.9-5.6 2.1-10.7-1.1-11.6-7.9a9 9 0 011.8-6.9c3-3.8 9.2-5.8 15.2-6.9m-9.3 16.3c1.4 1.2 4 .8 5.7-.9l-3.2-8.5c-5.1.4-6 6.7-2.5 9.4"/>
    </g>
    <g id="tensorflow_1_" clip-path="url(#SVGID_4_)" fill="#3776AA">
      <path id="tensorflow" d="M1151.6 253.8l-10.7-15-15.8 33.9 7.4-.6 4.4-9.6 3.3 4.6 3-6.6-3.2-4.5 1.8-3.8 6.3 9.1z"/>
      <path id="tesorflow" d="M1121.3 239.6l18.3-1.5-15.8 34-4.2-6 9.2-20-11 1z"/>
    </g>
  </g>
  <g id="Extra_components">
    <defs>
      <path id="SVGID_11_" d="M0 0h1500v786H0z"/>
    </defs>
    <clipPath id="SVGID_12_">
      <use xlink:href="#SVGID_11_" overflow="visible"/>
    </clipPath>
    <path id="x_2_" clip-path="url(#SVGID_12_)" fill="#333" d="M284.6 650.8l-6.7 6.6-9.6 9.4a9.5 9.5 0 01-9.6 2.3 8.6 8.6 0 01-6.6-7 8 8 0 012.4-7.5 3691 3691 0 0115.8-15.6c.4-.4.4-.6 0-1l-15.7-15.4c-5-5.1-2.6-13.2 4.7-14.8 3.5-.8 6.6.1 9.2 2.6l6.8 6.7 9.2 9.1.6.4 5 4.9a10 10 0 013.2 5.2c.6 2.8 0 5.3-2 7.5-1.7 1.9-3.5 3.6-5.4 5.4-.4.4-.6 1-1.3 1.2"/>
    <path id="x_1_" clip-path="url(#SVGID_12_)" fill="#333" d="M284.6 650.8l5.9-5.9a8.8 8.8 0 002.9-6 8 8 0 00-2.3-6l-6.6-6.7c.6-.2 1-.7 1.4-1.1l2.8-2.8 6.5-6.5c2-1.8 3.8-3.8 5.7-5.6 2.7-2.5 6-3.2 9.5-2.3 3.6 1 5.9 3.3 6.7 6.7a8 8 0 01-2.2 7.6l-4.3 4.3-8.7 8.6-3 3c-.3.3-.4.4-.1.7l5.9 5.9 9.4 9.3c1.4 1.4 2.5 3 3 4.8.8 3.5-1 7.5-4.4 9.4a10 10 0 01-10.6-.4c-1.3-.8-2.1-2-3.2-2.9l-2.3-2.3-7-6.8-4.5-4.6-.5-.4"/>
    <path id="b" clip-path="url(#SVGID_12_)" fill="#333" d="M315.5 692.4a6 6 0 00-6.9 1.2v-5.8c0-.4 0-.5-.5-.5h-2.4c-.4 0-.5.1-.5.5V704c0 .4 0 .6.6.6h1.5c1.3 0 1.3 0 1.3-1.2l.1-.1h.2c1.7 2 5.9 2.2 8.2.2a6.4 6.4 0 002.4-5.5 6.1 6.1 0 00-4-5.7m-3.2 9.6c-2.1 0-3.6-1.5-3.7-3.5 0-2 1.6-3.5 3.7-3.5 2.2 0 3.8 1.4 3.8 3.5 0 2-1.6 3.5-3.8 3.5"/>
    <path id="a" clip-path="url(#SVGID_12_)" fill="#333" d="M301.3 692.3c-.4-.3-1.2 0-1.8 0-.5 0-1-.2-1.4 0-.4.2 0 .8-.2 1.3-2.2-2.3-6.4-2.2-8.7 0a6.4 6.4 0 00-2.1 4.3c-.2 2.4.7 4.4 2.7 5.8 2.4 1.9 5.3 1.7 8.2-.4v.9c0 .4 0 .5.5.5h2.2c.6 0 .8-.1.7-.7v-10c0-.6.3-1.3 0-1.7m-7.1 9.7c-2.2 0-3.8-1.5-3.8-3.6 0-2 1.6-3.4 3.8-3.4 2.1 0 4.3 1.4 4.3 3.4s-2.2 3.5-4.3 3.6"/>
    <path id="o" clip-path="url(#SVGID_12_)" fill="#333" d="M245 692c-4 0-7 2.8-7 6.5s3 6.5 7 6.5 7.2-2.9 7.2-6.6c0-3.6-3.1-6.5-7.2-6.5m0 10c-2 0-3.6-1.5-3.6-3.4 0-2 1.6-3.5 3.7-3.4 2 0 3.6 1.4 3.6 3.4s-1.5 3.4-3.6 3.4"/>
    <path id="y" clip-path="url(#SVGID_12_)" fill="#333" d="M279.5 692.2h-2.3c-.6 0-.8.2-1 .7l-2.7 7.7-.2-.6-3-7.2c-.2-.3-.2-.6-.6-.6h-3.4c0 .4.2.6.3.8l4.7 10.3c.5 1 .3 1.7-.6 2.5a3 3 0 01-2 .8c-.4 0-.5.1-.5.5v2c0 .4 0 .5.5.5 2.2 0 4-.8 5.2-2.4.8-1 1.2-2.2 1.7-3.4l4.4-11c.1-.4.1-.6-.5-.6"/>
    <path id="x" clip-path="url(#SVGID_12_)" fill="#333" d="M260.8 697.9l4-5c0-.2.3-.4.2-.6h-2.6c-1-.1-1.4.1-1.9.8-.6 1-1.3 1.8-2 2.6l-2.4-3c-.1-.2-.2-.4-.5-.4h-3.8l.5.6 3.9 5c.2.3.8.5.6.9-1.4 1.7-3.4 3.5-4.8 5.3-.1.2-.3.3-.3.6h3.3c.4 0 .7-.2 1-.5l2.5-3.3 2.6 3.4c.1.2.2.4.6.4h3.7l-4.6-6c-.3-.3-.2-.5 0-.8"/>
    <path id="s" clip-path="url(#SVGID_12_)" fill="#333" d="M329.3 697.7l-2-.5-1.8-.7c-.4-.1-.7-.4-.6-.8 0-.4.3-.7.7-.8 1-.3 2.1 0 2.7.8.2.3.4.3.7.1a35 35 0 012.2-1c.3-.2.3-.3 0-.6a5.9 5.9 0 00-4.9-2.3 6 6 0 00-3.3 1c-1.3.8-1.8 2-1.6 3.4 0 1.3 1 2.2 2.2 2.7l2 .6 2.1.7c.7.4.7 1.2 0 1.6-1 .4-2.6.2-3.4-.5-.3-.3-.2-.9-.7-.8-.4 0-.8.4-1.1.5l-.4.2c-1.5.8-1.6 1-.2 2.2 1.8 1.7 5.5 2 7.9.7 1.5-.7 2-2 2-3.5-.2-1.5-1-2.5-2.5-3"/>
    <path id="l" clip-path="url(#SVGID_12_)" fill="#333" d="M284.7 687.1c0-.4-.1-.6-.6-.5h-2.5c-.3 0-.4 0-.4.4v17.2c0 .4.1.5.5.5h2.4c.4 0 .6-.1.6-.6v-8.5-8.5"/>
    <path id="circle_10_" clip-path="url(#SVGID_12_)" fill="#3776AA" d="M954.1 176.5a7.1 7.1 0 110-14.3 7.1 7.1 0 010 14.3m0-12.4a5.2 5.2 0 100 10.5 5.2 5.2 0 000-10.5"/>
    <path id="circle_9_" clip-path="url(#SVGID_12_)" fill="#3776AA" d="M623.1 244.2a7.1 7.1 0 110-14.3 7.1 7.1 0 010 14.3m0-12.4a5.2 5.2 0 100 10.5 5.2 5.2 0 000-10.5"/>
    <path id="circle_8_" clip-path="url(#SVGID_12_)" fill="#3776AA" d="M559.7 34.7a6.1 6.1 0 110-12.3 6.1 6.1 0 010 12.3m0-10.4a4.2 4.2 0 100 8.5 4.2 4.2 0 000-8.5"/>
    <path id="circle_7_" clip-path="url(#SVGID_12_)" fill="#3776AA" d="M1130.2 138.6a6.1 6.1 0 110-12.2 6.1 6.1 0 010 12.2m0-10.3a4.2 4.2 0 100 8.4 4.2 4.2 0 000-8.4"/>
    <path id="circle_6_" clip-path="url(#SVGID_12_)" fill="#3776AA" d="M1395.2 138.6a6.1 6.1 0 110-12.2 6.1 6.1 0 010 12.2m0-10.3a4.2 4.2 0 100 8.4 4.2 4.2 0 000-8.4"/>
    <path id="circle_5_" clip-path="url(#SVGID_12_)" fill="#3776AA" d="M165.4 178.6a4.6 4.6 0 110-9.2 4.6 4.6 0 010 9.2m0-7.3a2.7 2.7 0 100 5.4 2.7 2.7 0 000-5.4"/>
    <path id="circle_4_" clip-path="url(#SVGID_12_)" fill="#3776AA" d="M349.9 311.2a4.6 4.6 0 110-9.2 4.6 4.6 0 010 9.2m0-7.3a2.7 2.7 0 100 5.4 2.7 2.7 0 000-5.4"/>
    <path id="circle_3_" clip-path="url(#SVGID_12_)" fill="#3776AA" d="M944 397.6a4.6 4.6 0 110-9.2 4.6 4.6 0 010 9.2m0-7.3a2.7 2.7 0 100 5.5 2.7 2.7 0 000-5.5"/>
    <path id="circle_2_" clip-path="url(#SVGID_12_)" fill="#3776AA" d="M738.6 292.9a4.6 4.6 0 110-9.2 4.6 4.6 0 010 9.2m0-7.3a2.7 2.7 0 100 5.4 2.7 2.7 0 000-5.4"/>
    <path id="circle_1_" clip-path="url(#SVGID_12_)" fill="#3776AA" d="M378.7 146.7a4.6 4.6 0 110-9.2 4.6 4.6 0 010 9.2m0-7.3a2.7 2.7 0 100 5.4 2.7 2.7 0 000-5.4"/>
    <path id="circle" clip-path="url(#SVGID_12_)" fill="#3776AA" d="M843.5 213.5a4.6 4.6 0 110-9.2 4.6 4.6 0 010 9.2m0-7.3a2.7 2.7 0 100 5.5 2.7 2.7 0 000-5.5"/>
    <path id="triangle_4_" clip-path="url(#SVGID_12_)" fill="#3776AA" d="M468 188.6a1 1 0 01-.4 0l-16.6-6.8a1 1 0 01-.2-1.6l14.1-11a1 1 0 011.5.6l2.5 17.8a1 1 0 01-1 1m-14.6-7.9l13.5 5.5-2-14.5-11.5 9z"/>
    <path id="triangle_3_" clip-path="url(#SVGID_12_)" fill="#3776AA" d="M56.7 145.2a1 1 0 01-1-1l2-12.4a1 1 0 011.6-.6l9.6 7.9a1 1 0 01-.2 1.6L57 145a1 1 0 01-.3 0m2.6-11.4l-1.4 9 8.6-3.2-7.2-5.8z"/>
    <path id="triangle_2_" clip-path="url(#SVGID_12_)" fill="#3776AA" d="M303 232a1 1 0 01-.8-1.3l5.6-11.1c.2-.3.5-.5.8-.5.3 0 .7.1.8.4l6.9 10.4a1 1 0 01-.8 1.5l-12.4.7m5.7-10.2l-4.2 8.2 9.2-.5-5-7.7z"/>
    <path id="triangle_1_" clip-path="url(#SVGID_12_)" fill="#3776AA" d="M838 59a1 1 0 01-.9-1.2l4.4-11.7a1 1 0 011.6-.3l8 9.7a1 1 0 01-.6 1.5L838 59h-.1m4.7-10.7l-3.3 8.6 9.1-1.5-5.8-7.1z"/>
    <path id="triangle" clip-path="url(#SVGID_12_)" fill="#3776AA" d="M1194 216.6a1 1 0 01-.8-1.3l4.4-11.7a1 1 0 011.6-.3l8 9.7a1 1 0 01-.7 1.5l-12.3 2h-.1m4.7-10.7l-3.3 8.6 9.1-1.5-5.8-7.1z"/>
    <path id="square_7_" clip-path="url(#SVGID_12_)" fill="#3776AA" d="M41.6 49.3a1 1 0 01-.5 0l-11-6.4a1 1 0 01-.3-1.3l6.3-11a1 1 0 011.3-.4l11 6.4c.5.2.6.8.4 1.3l-6.4 11a1 1 0 01-.8.4m-9.7-7.6l9.4 5.4 5.4-9.4-9.4-5.4-5.4 9.4z"/>
    <path id="line_7_" clip-path="url(#SVGID_12_)" fill="#3776AA" d="M583.9 399.7a1 1 0 01-.9-1.3l8.9-20.7a1 1 0 111.7.8l-8.9 20.6a1 1 0 01-.8.6"/>
    <path id="square_6_" clip-path="url(#SVGID_12_)" fill="#3776AA" d="M599.9 139a1 1 0 01-.4 0l-10.5-4.2a1 1 0 01-.5-1.2l4.2-10.6a1 1 0 011.2-.5l10.5 4.2a1 1 0 01.5 1.2l-4.1 10.5a1 1 0 01-1 .6m-9.2-5.6l8.8 3.5 3.4-8.8-8.8-3.5-3.4 8.8z"/>
    <path id="square_5_" clip-path="url(#SVGID_12_)" fill="#3776AA" d="M779.2 130.2h-7.5a1 1 0 01-1-1v-7.5c0-.5.5-.9 1-.9h7.5c.5 0 1 .4 1 1v7.5c0 .5-.5.9-1 .9m-6.6-1.9h5.7v-5.6h-5.7v5.6z"/>
    <path id="square_4_" clip-path="url(#SVGID_12_)" fill="#3776AA" d="M1262 68.6h-7.5a1 1 0 01-1-1v-7.4c0-.6.5-1 1-1h7.5c.5 0 1 .4 1 1v7.5c0 .5-.5.9-1 .9m-6.5-1.9h5.6v-5.6h-5.6v5.6z"/>
    <path id="square_3_" clip-path="url(#SVGID_12_)" fill="#3776AA" d="M436.5 56.4h-11.3a1 1 0 01-1-.9V44.2c0-.5.4-1 1-1h11.3c.5 0 .9.5.9 1v11.3c0 .5-.4 1-1 1m-10.3-2h9.4v-9.4h-9.4v9.5z"/>
    <path id="square_2_" clip-path="url(#SVGID_12_)" fill="#3776AA" d="M472.5 295.8H465a1 1 0 01-1-1v-7.4c0-.5.4-1 1-1h7.5c.5 0 .9.5.9 1v7.5c0 .5-.4 1-1 1m-6.5-2h5.6v-5.6H466v5.6z"/>
    <path id="square_1_" clip-path="url(#SVGID_12_)" fill="#3776AA" d="M714.1 398.8a1 1 0 01-.8-.7l-2.5-7a1 1 0 01.6-1.3l7.1-2.4a1 1 0 011.2.6l2.4 7c.2.6 0 1-.5 1.3l-7.1 2.4a1 1 0 01-.4 0m-1.2-7.4l1.8 5.3 5.4-1.8-1.9-5.3-5.3 1.8z"/>
    <path id="square" clip-path="url(#SVGID_12_)" fill="#3776AA" d="M1018 260.3a1 1 0 01-.9-.7l-2.4-7a1 1 0 01.6-1.2l7-2.5h.8c.2.2.4.3.5.6l2.4 7a1 1 0 01-.6 1.3l-7 2.4a1 1 0 01-.4 0m-1.2-7.4l1.8 5.3 5.3-1.8-1.8-5.3-5.3 1.8z"/>
    <path id="line_6_" clip-path="url(#SVGID_12_)" fill="#3776AA" d="M884.4 372.8a1 1 0 01-.7-.3L872 359.9a1 1 0 011.4-1.3l11.7 12.6a1 1 0 01-.7 1.6"/>
    <path id="line_5_" clip-path="url(#SVGID_12_)" fill="#3776AA" d="M1070.2 316.6a1 1 0 01-.7-.3l-11.7-12.7a1 1 0 011.4-1.2l11.6 12.6a1 1 0 01-.6 1.6"/>
    <path id="line_4_" clip-path="url(#SVGID_12_)" fill="#3776AA" d="M806.9 281.2a1 1 0 01-.6-1.7l15.1-10.8a1 1 0 011.1 1.6l-15 10.8a1 1 0 01-.6.1"/>
    <path id="line_3_" clip-path="url(#SVGID_12_)" fill="#3776AA" d="M221.5 68.5h-.3a1 1 0 01-.6-1.3L227 47a1 1 0 011.8.6l-6.5 20.3a1 1 0 01-1 .7"/>
    <path id="line_2_" clip-path="url(#SVGID_12_)" fill="#3776AA" d="M1337.4 58a1 1 0 01-.9-1.2l6.6-20.3a1 1 0 011.7.5l-6.5 20.4a1 1 0 01-.9.7"/>
    <path id="line_1_" clip-path="url(#SVGID_12_)" fill="#3776AA" d="M1047 83.3a1 1 0 01-.8-1.4l12-20.6a1 1 0 011.6 1l-12 20.6a1 1 0 01-.8.4"/>
    <path id="line" clip-path="url(#SVGID_12_)" fill="#3776AA" d="M633.7 53.5a1 1 0 01-.7-1.7l19.6-16.5a1 1 0 111.2 1.4l-19.5 16.5a1 1 0 01-.6.3"/>
  </g>
  <g fill="#FFF2F0">
    <path d="M225.2 567.2h1.4v5.2l1-1.1 3.2-4h1.7l-3.9 4.5 4.2 6.2h-1.6l-3.6-5.3-1 1.2v4.1h-1.4v-10.8zM234.6 574.4c0 1.9 1.3 2.7 2.7 2.7 1 0 1.6-.2 2.1-.4l.3 1c-.5.2-1.4.5-2.6.5-2.4 0-3.8-1.6-3.8-4s1.4-4.1 3.6-4.1c2.5 0 3.2 2.2 3.2 3.6v.7h-5.5zm4.2-1c0-1-.4-2.3-2-2.3-1.4 0-2 1.3-2.2 2.3h4.2zM242.4 570.3l1.7 4.5.5 1.6.5-1.6 1.5-4.5h1.5l-2.1 5.5c-1 2.6-1.7 4-2.7 4.8-.6.6-1.3.9-1.7 1l-.3-1.2 1.2-.7a4.3 4.3 0 001.3-2l-.1-.3-2.9-7.1h1.6zM249.2 576.6c.4.2 1.2.5 1.9.5 1 0 1.5-.5 1.5-1.1 0-.7-.4-1-1.5-1.5-1.4-.5-2-1.2-2-2.1 0-1.3 1-2.3 2.6-2.3.8 0 1.5.2 2 .5l-.4 1a3 3 0 00-1.6-.5c-.8 0-1.3.5-1.3 1 0 .7.5 1 1.5 1.4 1.3.5 2 1.2 2 2.3 0 1.4-1 2.4-2.9 2.4-.8 0-1.6-.2-2.2-.6l.4-1zM257.4 568v2.3h2v1h-2v4.2c0 1 .3 1.5 1 1.5h.9v1l-1.2.2c-.6 0-1.2-.2-1.5-.6-.4-.4-.6-1.1-.6-2v-4.3h-1.2v-1h1.2v-1.9l1.4-.4zM268 574c0 3-2 4.2-3.8 4.2-2.1 0-3.7-1.6-3.7-4 0-2.6 1.7-4.1 3.8-4.1 2.2 0 3.7 1.6 3.7 4zm-6.1.1c0 1.7 1 3 2.3 3 1.4 0 2.4-1.2 2.4-3 0-1.3-.7-3-2.3-3-1.7 0-2.4 1.6-2.4 3zM269.8 572.4v-2.1h1.2v1.2h.1c.4-.7 1.3-1.4 2.6-1.4 1 0 2.7.6 2.7 3.3v4.6H275v-4.5c0-1.2-.5-2.3-1.8-2.3a2 2 0 00-1.9 1.5v5.3h-1.5v-5.6zM279.5 574.4c0 1.9 1.2 2.7 2.6 2.7 1 0 1.6-.2 2.2-.4l.2 1c-.5.2-1.3.5-2.6.5-2.3 0-3.8-1.6-3.8-4s1.4-4.1 3.7-4.1c2.5 0 3.2 2.2 3.2 3.6v.7h-5.5zm4.1-1c0-1-.4-2.3-2-2.3-1.4 0-2 1.3-2.1 2.3h4.1zM290.1 572.8v-2.5h1.2v1.3a3 3 0 012.8-1.5c2 0 3.3 1.6 3.3 4 0 2.7-1.7 4-3.5 4-1 0-2-.4-2.4-1.1v4.2H290v-8.4zm1.4 2v.6c.3 1 1.2 1.7 2.2 1.7 1.5 0 2.3-1.2 2.3-3 0-1.6-.8-2.9-2.3-2.9-1 0-1.8.7-2.1 1.7l-.1.6v1.3zM303.5 578l-.1-1c-.5.6-1.3 1.2-2.4 1.2-1.6 0-2.4-1.1-2.4-2.2 0-2 1.7-3 4.6-3 0-.7-.1-1.9-1.7-1.9-.7 0-1.5.2-2 .6l-.3-1c.6-.4 1.5-.6 2.5-.6 2.4 0 3 1.6 3 3.1v4.8h-1.2zm-.2-4c-1.6 0-3.3.3-3.3 1.8 0 .9.6 1.3 1.3 1.3a2 2 0 001.9-1.3V574zM307 572.7l-.2-2.4h1.3v1.5c.4-1 1.3-1.7 2.2-1.7h.4v1.4h-.4c-1 0-1.7.7-2 1.7v4.8h-1.4v-5.3zM313.8 568v2.3h2v1h-2v4.2c0 1 .3 1.5 1.1 1.5h.8v1l-1.2.2c-.6 0-1.2-.2-1.5-.6-.4-.4-.5-1.1-.5-2v-4.3h-1.2v-1h1.2v-1.9l1.3-.4zM317.4 572.4v-2.1h1.2l.1 1.2c.4-.7 1.3-1.4 2.6-1.4 1 0 2.7.6 2.7 3.3v4.6h-1.4v-4.5c0-1.2-.4-2.3-1.8-2.3a2 2 0 00-1.9 1.5v5.3h-1.5v-5.6zM327.1 574.4c0 1.9 1.3 2.7 2.7 2.7 1 0 1.6-.2 2.1-.4l.2 1c-.5.2-1.3.5-2.5.5-2.4 0-3.8-1.6-3.8-4s1.3-4.1 3.6-4.1c2.5 0 3.2 2.2 3.2 3.6v.7H327zm4.1-1c0-1-.3-2.3-2-2.3-1.3 0-2 1.3-2 2.3h4zM334.3 572.7v-2.4h1.2v1.5h.1c.4-1 1.2-1.7 2.2-1.7h.4v1.4h-.5c-1 0-1.7.7-2 1.7v4.8h-1.4v-5.3z"/>
  </g>
  <g fill="#FFF">
    <path d="M864 651.5v5.5h-25.8v-4.3l13.9-13.3c1.6-1.5 2.6-2.8 3.2-3.9.5-1 .8-2.2.8-3.3 0-1.6-.6-2.9-1.7-3.8a7.7 7.7 0 00-4.8-1.3 9.8 9.8 0 00-8.2 3.7l-4.6-3.5c1.4-1.8 3.2-3.3 5.6-4.3s4.9-1.5 7.7-1.5c3.8 0 6.9.9 9.1 2.7a8.9 8.9 0 013.4 7.3c0 2-.4 3.7-1.2 5.4-.8 1.7-2.3 3.6-4.6 5.7l-9.3 8.9H864zM874.8 655.4c-2.2-1.4-3.9-3.5-5.2-6.2-1.2-2.7-1.9-6-1.9-9.7 0-3.7.7-7 2-9.7s3-4.8 5.1-6.2c2.2-1.4 4.7-2.1 7.5-2.1a13.7 13.7 0 0112.8 8.3c1.3 2.7 1.9 6 1.9 9.7 0 3.7-.6 7-2 9.7-1.2 2.7-3 4.8-5.1 6.2-2.3 1.4-4.8 2.1-7.6 2.1s-5.3-.7-7.5-2.1zm13.5-6.6c1.4-2.1 2.1-5.2 2.1-9.3s-.7-7.2-2.1-9.3a6.9 6.9 0 00-6-3c-2.4 0-4.4 1-5.8 3-1.5 2.1-2.2 5.2-2.2 9.3s.7 7.2 2.2 9.3c1.4 2 3.4 3 5.8 3 2.5 0 4.5-1 6-3zM926.7 651.5v5.5H901v-4.3l14-13.3c1.5-1.5 2.6-2.8 3.1-3.9s.8-2.2.8-3.3c0-1.6-.5-2.9-1.6-3.8a7.7 7.7 0 00-4.9-1.3 9.8 9.8 0 00-8.2 3.7l-4.5-3.5c1.4-1.8 3.2-3.3 5.5-4.3s5-1.5 7.8-1.5c3.8 0 6.8.9 9 2.7s3.5 4.3 3.5 7.3c0 2-.4 3.7-1.2 5.4s-2.4 3.6-4.6 5.7l-9.4 8.9h16.5zM942.6 622v35H936v-29.6h-7.4V622h13.9z"/>
  </g>
</svg>
