<svg width="245" height="36" viewBox="0 0 245 36" fill="none" xmlns="http://www.w3.org/2000/svg">
<g clip-path="url(#clip0_206_5911)">
<g clip-path="url(#clip1_206_5911)">
<path fill-rule="evenodd" clip-rule="evenodd" d="M160.196 7.97488H161.853C165.249 7.97488 168.027 10.7953 168.027 14.2425V27.4004V27.9361C168.027 29.3136 169.138 30.4406 170.495 30.4406C171.852 30.4406 172.962 29.3136 172.962 27.9361V27.4004V6.29911C172.962 2.85198 175.741 0.0315247 179.137 0.0315247H179.947H180.793H186.551H187.316H188.208C191.604 0.0315247 194.382 2.85198 194.382 6.29911V27.4004V27.9361C194.382 29.3136 195.493 30.4406 196.85 30.4406C198.207 30.4406 199.317 29.3136 199.317 27.9361V27.4004L199.317 6.29911C199.317 2.85198 202.096 0.0315247 205.492 0.0315247H206.2H207.148H212.907H213.57H214.563C217.959 0.0315247 220.738 2.85198 220.738 6.29911V27.4004V27.9361C220.738 29.3136 221.848 30.4406 223.205 30.4406C224.562 30.4406 225.672 29.3136 225.672 27.9361V27.4004V14.169C225.672 10.7218 228.451 7.9014 231.847 7.9014H232.479H233.504H241.376C243.602 7.9014 245.423 9.74983 245.423 12.0091C245.423 14.2683 243.602 16.1168 241.376 16.1168H233.915V29.2917C233.915 32.7389 231.137 35.5593 227.741 35.5593H227.342H225.672H220.738H219.973H218.669C215.273 35.5593 212.495 32.7388 212.495 29.2917V8.19037V8.14951C212.495 6.77198 211.385 5.64502 210.027 5.64502C208.67 5.64502 207.56 6.77198 207.56 8.14951V8.19037L207.56 29.2917C207.56 32.7388 204.782 35.5593 201.386 35.5593H200.322H199.317H194.382H192.953H192.314C188.918 35.5593 186.14 32.7388 186.14 29.2917V8.19037L186.14 8.14951C186.14 6.77198 185.029 5.64502 183.672 5.64502C182.315 5.64502 181.205 6.77198 181.205 8.14951V8.19037V29.2917C181.205 32.7388 178.426 35.5593 175.03 35.5593H173.762H172.962H168.027H166.392H165.959C162.563 35.5593 159.785 32.7389 159.785 29.2917V8.39272C159.785 8.16291 159.97 7.97488 160.196 7.97488Z" fill="#C1272D"/>
<path d="M241.286 11.894C241.967 11.894 242.52 11.3332 242.52 10.6415C242.52 9.94975 241.967 9.38898 241.286 9.38898C240.604 9.38898 240.052 9.94975 240.052 10.6415C240.052 11.3332 240.604 11.894 241.286 11.894Z" fill="white"/>
</g>
<g clip-path="url(#clip2_206_5911)">
<path fill-rule="evenodd" clip-rule="evenodd" d="M80.0239 7.97488H81.6805C85.0765 7.97488 87.855 10.7953 87.855 14.2425V27.4004V27.9361C87.855 29.3136 88.9653 30.4406 90.3224 30.4406C91.6795 30.4406 92.7898 29.3136 92.7898 27.9361V27.4004V6.29911C92.7898 2.85198 95.5683 0.0315247 98.9643 0.0315247H99.7747H100.621H106.379H107.144H108.036C111.432 0.0315247 114.21 2.85198 114.21 6.29911V27.4004V27.9361C114.21 29.3136 115.32 30.4406 116.678 30.4406C118.035 30.4406 119.145 29.3136 119.145 27.9361V27.4004L119.145 6.29911C119.145 2.85198 121.923 0.0315247 125.319 0.0315247H126.028H126.976H132.734H133.397H134.391C137.787 0.0315247 140.565 2.85198 140.565 6.29911V27.4004V27.9361C140.565 29.3136 141.676 30.4406 143.033 30.4406C144.39 30.4406 145.5 29.3136 145.5 27.9361V27.4004V14.169C145.5 10.7218 148.279 7.9014 151.675 7.9014H152.306H153.331H161.204C163.43 7.9014 165.251 9.74983 165.251 12.0091C165.251 14.2683 163.43 16.1168 161.204 16.1168H153.743V29.2917C153.743 32.7389 150.964 35.5593 147.568 35.5593H147.17H145.5H140.565H139.801H138.497C135.101 35.5593 132.323 32.7388 132.323 29.2917V8.19037V8.14951C132.323 6.77198 131.212 5.64502 129.855 5.64502C128.498 5.64502 127.388 6.77198 127.388 8.14951V8.19037L127.388 29.2917C127.388 32.7388 124.609 35.5593 121.213 35.5593H120.15H119.145H114.21H112.781H112.142C108.746 35.5593 105.967 32.7388 105.967 29.2917V8.19037L105.967 8.14951C105.967 6.77198 104.857 5.64502 103.5 5.64502C102.143 5.64502 101.033 6.77198 101.033 8.14951V8.19037V29.2917C101.033 32.7388 98.254 35.5593 94.8581 35.5593H93.5892H92.7898H87.855H86.22H85.7868C82.3908 35.5593 79.6123 32.7389 79.6123 29.2917V8.39272C79.6123 8.16291 79.7975 7.97488 80.0239 7.97488Z" fill="#006A44"/>
<path d="M161.113 11.8939C161.795 11.8939 162.347 11.3332 162.347 10.6414C162.347 9.94969 161.795 9.38892 161.113 9.38892C160.432 9.38892 159.879 9.94969 159.879 10.6414C159.879 11.3332 160.432 11.8939 161.113 11.8939Z" fill="white"/>
</g>
<g clip-path="url(#clip3_206_5911)">
<g clip-path="url(#clip4_206_5911)">
<path fill-rule="evenodd" clip-rule="evenodd" d="M0.398448 7.97491H2.05506C5.45102 7.97491 8.22954 10.7953 8.22954 14.2425V27.4005V27.9361C8.22954 29.3137 9.33983 30.4406 10.6969 30.4406C12.054 30.4406 13.1643 29.3137 13.1643 27.9361V27.4005V6.29914C13.1643 2.85201 15.9429 0.0315552 19.3388 0.0315552H20.1492H20.9954H26.7535H27.5184H28.4102C31.8061 0.0315552 34.5846 2.85201 34.5846 6.29914V27.4005V27.9361C34.5846 29.3137 35.6949 30.4406 37.052 30.4406C38.4091 30.4406 39.5194 29.3137 39.5194 27.9361V27.4005L39.5195 6.29914C39.5195 2.85201 42.298 0.0315552 45.694 0.0315552H46.4026H47.3506H53.1087H53.7718H54.7653C58.1613 0.0315552 60.9398 2.85201 60.9398 6.29914V27.4005V27.9361C60.9398 29.3137 62.0501 30.4406 63.4072 30.4406C64.7643 30.4406 65.8746 29.3137 65.8746 27.9361V27.4005V14.169C65.8746 10.7218 68.6531 7.90143 72.0491 7.90143H72.6808H73.7057H81.5786C83.8043 7.90143 85.6253 9.74986 85.6253 12.0091C85.6253 14.2684 83.8043 16.1168 81.5786 16.1168H74.1173V29.2917C74.1173 32.7389 71.3388 35.5593 67.9428 35.5593H67.5444H65.8746H60.9398H60.1752H58.8715C55.4756 35.5593 52.697 32.7389 52.697 29.2917V8.1904V8.14954C52.697 6.77201 51.5868 5.64505 50.2296 5.64505C48.8725 5.64505 47.7622 6.77201 47.7622 8.14954V8.1904L47.7622 29.2917C47.7622 32.7389 44.9837 35.5593 41.5877 35.5593H40.5245H39.5195H34.5846H33.1553H32.5164C29.1204 35.5593 26.3419 32.7389 26.3419 29.2917V8.1904L26.3419 8.14954C26.3419 6.77201 25.2316 5.64505 23.8745 5.64505C22.5174 5.64505 21.4071 6.77201 21.4071 8.14954V8.1904V29.2917C21.4071 32.7389 18.6285 35.5593 15.2326 35.5593H13.9637H13.1643H8.22954H6.59449H6.16129C2.76533 35.5593 -0.0131836 32.7389 -0.0131836 29.2917V8.39275C-0.0131836 8.16294 0.172051 7.97491 0.398448 7.97491Z" fill="#FDB913"/>
<path d="M81.4878 11.894C82.1693 11.894 82.7217 11.3332 82.7217 10.6415C82.7217 9.94972 82.1693 9.38895 81.4878 9.38895C80.8064 9.38895 80.2539 9.94972 80.2539 10.6415C80.2539 11.3332 80.8064 11.894 81.4878 11.894Z" fill="white"/>
</g>
</g>
</g>
<defs>
<clipPath id="clip0_206_5911">
<rect width="245" height="36" fill="white"/>
</clipPath>
<clipPath id="clip1_206_5911">
<rect width="85.6384" height="35.5278" fill="white" transform="translate(159.798)"/>
</clipPath>
<clipPath id="clip2_206_5911">
<rect width="85.6384" height="35.5278" fill="white" transform="translate(79.6255)"/>
</clipPath>
<clipPath id="clip3_206_5911">
<rect width="85.6384" height="35.5278" fill="white"/>
</clipPath>
<clipPath id="clip4_206_5911">
<rect width="85.6384" height="35.5278" fill="white"/>
</clipPath>
</defs>
</svg>
